<mxfile host="Electron" agent="Mozilla/5.0 (Macintosh; Intel Mac OS X 10_15_7) AppleWebKit/537.36 (KHTML, like Gecko) draw.io/25.0.2 Chrome/128.0.6613.186 Electron/32.2.5 Safari/537.36" version="25.0.2" pages="2">
  <diagram id="e22hNvlpfN5c61L2vQlw" name="Page-1">
    <mxGraphModel dx="2083" dy="2070" grid="1" gridSize="10" guides="1" tooltips="1" connect="1" arrows="1" fold="1" page="0" pageScale="1" pageWidth="850" pageHeight="1100" background="#ffffff" math="0" shadow="0">
      <root>
        <mxCell id="0" />
        <mxCell id="1" parent="0" />
        <mxCell id="mw-tG2SvXwZyPVMsNlKE-91" value="" style="rounded=0;whiteSpace=wrap;html=1;fillColor=#ffe6cc;strokeColor=#d79b00;" parent="1" vertex="1">
          <mxGeometry x="378" y="-114" width="790" height="334" as="geometry" />
        </mxCell>
        <mxCell id="yYOCXMEWniT7reJ3RpYq-102" value="&lt;font style=&quot;font-size: 18px;&quot;&gt;Create ResourceBinding&lt;/font&gt;" style="text;html=1;align=center;verticalAlign=middle;whiteSpace=wrap;rounded=0;fontSize=16;" parent="1" vertex="1">
          <mxGeometry x="433.5" y="126" width="247" height="52" as="geometry" />
        </mxCell>
        <mxCell id="mw-tG2SvXwZyPVMsNlKE-85" value="" style="group;rounded=1;glass=0;" parent="1" vertex="1" connectable="0">
          <mxGeometry x="255" y="-513" width="911" height="349" as="geometry" />
        </mxCell>
        <mxCell id="mw-tG2SvXwZyPVMsNlKE-83" value="" style="rounded=0;whiteSpace=wrap;html=1;fillColor=#d5e8d4;strokeColor=#82b366;" parent="mw-tG2SvXwZyPVMsNlKE-85" vertex="1">
          <mxGeometry x="1.7569913211186114" width="909.2430086788814" height="334.4583333333333" as="geometry" />
        </mxCell>
        <mxCell id="yYOCXMEWniT7reJ3RpYq-104" value="&lt;b&gt;&lt;font style=&quot;font-size: 30px;&quot;&gt;Volcano global&lt;/font&gt;&lt;/b&gt;" style="text;html=1;align=center;verticalAlign=middle;whiteSpace=wrap;rounded=0;fontSize=28;" parent="mw-tG2SvXwZyPVMsNlKE-85" vertex="1">
          <mxGeometry x="-15" y="4.83" width="272" height="48.17" as="geometry" />
        </mxCell>
        <mxCell id="mw-tG2SvXwZyPVMsNlKE-98" value="&lt;font&gt;Set ResourceBinding.&lt;/font&gt;&lt;div&gt;&lt;font&gt;Suspension.Scheduling=false when admit success&lt;/font&gt;&lt;/div&gt;" style="text;html=1;align=center;verticalAlign=middle;whiteSpace=wrap;rounded=0;fontSize=18;" parent="mw-tG2SvXwZyPVMsNlKE-85" vertex="1">
          <mxGeometry x="346" y="271.46" width="409" height="63" as="geometry" />
        </mxCell>
        <mxCell id="mw-tG2SvXwZyPVMsNlKE-119" value="" style="group" parent="mw-tG2SvXwZyPVMsNlKE-85" vertex="1" connectable="0">
          <mxGeometry x="436.99702025072327" y="36.37708333333333" width="426.9488910318226" height="232.66666666666666" as="geometry" />
        </mxCell>
        <mxCell id="mw-tG2SvXwZyPVMsNlKE-121" value="" style="group" parent="mw-tG2SvXwZyPVMsNlKE-119" vertex="1" connectable="0">
          <mxGeometry width="426.9488910318226" height="232.66666666666666" as="geometry" />
        </mxCell>
        <mxCell id="mw-tG2SvXwZyPVMsNlKE-84" value="" style="rounded=1;whiteSpace=wrap;html=1;fillColor=#dae8fc;strokeColor=#6c8ebf;" parent="mw-tG2SvXwZyPVMsNlKE-121" vertex="1">
          <mxGeometry width="426.9488910318226" height="232.66666666666666" as="geometry" />
        </mxCell>
        <mxCell id="mw-tG2SvXwZyPVMsNlKE-97" value="&lt;b&gt;Controller&lt;/b&gt;" style="text;html=1;align=center;verticalAlign=middle;whiteSpace=wrap;rounded=0;fontSize=25;" parent="mw-tG2SvXwZyPVMsNlKE-121" vertex="1">
          <mxGeometry x="42.16779170684667" y="19.994791666666664" width="52.70973963355834" height="27.265625" as="geometry" />
        </mxCell>
        <mxCell id="mw-tG2SvXwZyPVMsNlKE-114" value="&lt;font style=&quot;font-size: 16px;&quot;&gt;Find the Queue related to ResourceBinding&lt;/font&gt;" style="rounded=1;whiteSpace=wrap;html=1;fillColor=#f8cecc;strokeColor=#b85450;" parent="mw-tG2SvXwZyPVMsNlKE-121" vertex="1">
          <mxGeometry x="178.33461909353906" y="19.994791666666664" width="201.61475409836066" height="54.53125" as="geometry" />
        </mxCell>
        <mxCell id="mw-tG2SvXwZyPVMsNlKE-115" value="&lt;font style=&quot;font-size: 16px;&quot;&gt;Sort ResourceBidning by Queue prioriry&lt;/font&gt;" style="rounded=1;whiteSpace=wrap;html=1;fillColor=#f8cecc;strokeColor=#b85450;" parent="mw-tG2SvXwZyPVMsNlKE-121" vertex="1">
          <mxGeometry x="178.33461909353906" y="92.703125" width="201.61475409836066" height="54.53125" as="geometry" />
        </mxCell>
        <mxCell id="mw-tG2SvXwZyPVMsNlKE-116" value="&lt;font style=&quot;font-size: 16px;&quot;&gt;Queue capacity management&lt;/font&gt;" style="rounded=1;whiteSpace=wrap;html=1;fillColor=#f8cecc;strokeColor=#b85450;" parent="mw-tG2SvXwZyPVMsNlKE-121" vertex="1">
          <mxGeometry x="178.33461909353906" y="167.22916666666666" width="201.61475409836066" height="54.53125" as="geometry" />
        </mxCell>
        <mxCell id="Npk0ftExUG0agtpWYvep-37" value="" style="group" parent="mw-tG2SvXwZyPVMsNlKE-121" vertex="1" connectable="0">
          <mxGeometry x="28" y="76.61999999999999" width="139" height="86.87" as="geometry" />
        </mxCell>
        <mxCell id="Npk0ftExUG0agtpWYvep-31" value="" style="rounded=1;whiteSpace=wrap;html=1;fillColor=#fff2cc;strokeColor=#d6b656;" parent="Npk0ftExUG0agtpWYvep-37" vertex="1">
          <mxGeometry x="1.80380357228545" width="110.19619642771457" height="86.87" as="geometry" />
        </mxCell>
        <mxCell id="Npk0ftExUG0agtpWYvep-32" value="&lt;b&gt;&lt;font style=&quot;font-size: 16px;&quot;&gt;CRDs&lt;/font&gt;&lt;/b&gt;" style="text;html=1;align=center;verticalAlign=middle;whiteSpace=wrap;rounded=0;fontSize=14;" parent="Npk0ftExUG0agtpWYvep-37" vertex="1">
          <mxGeometry x="5" y="-1.996560732546025" width="54.1948507021547" height="35.37532238360255" as="geometry" />
        </mxCell>
        <mxCell id="Npk0ftExUG0agtpWYvep-33" value="&lt;ul&gt;&lt;li&gt;&lt;font style=&quot;font-size: 16px;&quot;&gt;Vc Job&lt;/font&gt;&lt;/li&gt;&lt;li&gt;&lt;font style=&quot;font-size: 16px;&quot;&gt;Queue&lt;/font&gt;&lt;/li&gt;&lt;/ul&gt;" style="text;html=1;align=center;verticalAlign=middle;whiteSpace=wrap;rounded=0;" parent="Npk0ftExUG0agtpWYvep-37" vertex="1">
          <mxGeometry x="-12" y="19.4" width="107" height="52.06" as="geometry" />
        </mxCell>
        <mxCell id="mw-tG2SvXwZyPVMsNlKE-120" value="" style="group" parent="mw-tG2SvXwZyPVMsNlKE-85" vertex="1" connectable="0">
          <mxGeometry x="168" y="55" width="239" height="105.43" as="geometry" />
        </mxCell>
        <mxCell id="yYOCXMEWniT7reJ3RpYq-103" value="" style="rounded=1;whiteSpace=wrap;html=1;fillColor=#dae8fc;strokeColor=#6c8ebf;" parent="mw-tG2SvXwZyPVMsNlKE-120" vertex="1">
          <mxGeometry width="239" height="105.43" as="geometry" />
        </mxCell>
        <mxCell id="mw-tG2SvXwZyPVMsNlKE-103" value="&lt;b&gt;Webhook&lt;/b&gt;" style="text;html=1;align=center;verticalAlign=middle;whiteSpace=wrap;rounded=0;fontSize=25;" parent="mw-tG2SvXwZyPVMsNlKE-120" vertex="1">
          <mxGeometry x="38.68524519127647" y="10.179969123604387" width="57.432112068965516" height="27.266379310344828" as="geometry" />
        </mxCell>
        <mxCell id="mw-tG2SvXwZyPVMsNlKE-104" value="&lt;font style=&quot;font-size: 18px;&quot;&gt;Set ResourceBinding.&lt;/font&gt;&lt;div&gt;&lt;font style=&quot;font-size: 18px;&quot;&gt;Suspension.Scheduling=true&lt;/font&gt;&lt;/div&gt;" style="text;html=1;align=center;verticalAlign=middle;whiteSpace=wrap;rounded=0;fillColor=none;" parent="mw-tG2SvXwZyPVMsNlKE-120" vertex="1">
          <mxGeometry x="51.421049994006836" y="55.441637931034485" width="138.79427083333331" height="27.266379310344828" as="geometry" />
        </mxCell>
        <mxCell id="Npk0ftExUG0agtpWYvep-30" value="" style="shape=image;imageAspect=0;aspect=fixed;verticalLabelPosition=bottom;verticalAlign=top;image=data:image/svg+xml,PHN2ZyB4bWxuczp4bGluaz0iaHR0cDovL3d3dy53My5vcmcvMTk5OS94bGluayIgeG1sbnM9Imh0dHA6Ly93d3cudzMub3JnLzIwMDAvc3ZnIiB2aWV3Qm94PSIwIDAgMzYwIDM2MCI+PGxpbmVhckdyYWRpZW50IHkyPSI5MC4zMzMzMyIgeTE9IjI2MS4yMTg2IiB4Mj0iMTgwLjgzMzMzIiB4MT0iMTgwLjgzMzMzIiBncmFkaWVudFVuaXRzPSJ1c2VyU3BhY2VPblVzZSIgaWQ9ImEiPjxzdG9wIHN0b3AtY29sb3I9IiNlYjU1MjAiIG9mZnNldD0iMCIvPjxzdG9wIHN0b3AtY29sb3I9IiNlYjUxMWYiIG9mZnNldD0iLjI0NzI3Ii8+PHN0b3Agc3RvcC1jb2xvcj0iI2ViNDQxZCIgb2Zmc2V0PSIuNTAzNDQiLz48c3RvcCBzdG9wLWNvbG9yPSIjZWIzMDFhIiBvZmZzZXQ9Ii43NjI3MiIvPjxzdG9wIHN0b3AtY29sb3I9IiNlYjE2MTYiIG9mZnNldD0iMSIvPjwvbGluZWFyR3JhZGllbnQ+PHBhdGggZmlsbD0idXJsKCNhKSIgZD0ibTE1Mi42MDYzMyAxMzcuMjc0NTUtMjIuNDczNTUtMjIuNDczNTVhMS4xNjcyOCAxLjE2NzI4IDAgMCAxIDAtMS42NTA3NWwyMi40NzU2OS0yMi40NzU2OWExLjE2NDE3IDEuMTY0MTcgMCAwIDEgMS42NDY5IDBsMjIuNDc1NjkgMjIuNDc1NjlhMS4xNjcxNSAxLjE2NzE1IDAgMCAxIDAgMS42NTA3NWwtMjIuNDczNTUgMjIuNDczNTVhMS4xNjcgMS4xNjcgMCAwIDEgLTEuNjUxMTggMHptLTUuOTU4MzQgMy4yNzQ1OS0xOS43ODk4LTE5Ljc4OThhMS4xNjk4NSAxLjE2OTg1IDAgMCAwIC0xLjY1NDE3IDBsLTE5Ljc4OTc5IDE5Ljc4OThhMS4xNjk1OSAxLjE2OTU5IDAgMCAwIDAgMS42NTQ2bDE5Ljc5MzIxIDE5Ljc5MzI2YTEuMTY0NyAxLjE2NDcgMCAwIDAgMS42NDczNCAwbDE5Ljc5MzIyLTE5Ljc5MzI2YTEuMTcwMzcgMS4xNzAzNyAwIDAgMCAwLTEuNjU0NnptNTQuODAxNjIgMC0xOS43ODk3My0xOS43ODk4YTEuMTY5OTIgMS4xNjk5MiAwIDAgMCAtMS42NTQyMyAwbC0xOS43ODk4IDE5Ljc4OThhMS4xNzAzNyAxLjE3MDM3IDAgMCAwIDAgMS42NTQ2bDE5Ljc4OTggMTkuNzg5NzlhMS4xNjk5MiAxLjE2OTkyIDAgMCAwIDEuNjU0MjMgMGwxOS43ODk3My0xOS43ODk3OWExLjE3MDM3IDEuMTcwMzcgMCAwIDAgMC0xLjY1NDZ6bS04NC44NzkxNCAyNy40MDQ0NC0xNy4xMTYyOS0xNy4xMTYyOWExLjE2NTE0IDEuMTY1MTQgMCAwIDAgLTEuNjQ3NyAwbC0xNy4xMTU5MyAxNy4xMTYyOWExLjE2NDY4IDEuMTY0NjggMCAwIDAgMCAxLjY0NzM0bDE3LjExNTkzIDE3LjExNjI5YTEuMTY1MTIgMS4xNjUxMiAwIDAgMCAxLjY0NzcgMGwxNy4xMTYyOS0xNy4xMTYyOWExLjE2NTQ2IDEuMTY1NDYgMCAwIDAgMC0xLjY0NzM0em01NC44MDEyIDAtMTcuMTE1ODctMTcuMTE2MjlhMS4xNjUyMSAxLjE2NTIxIDAgMCAwIC0xLjY0Nzc2IDBsLTE3LjExNTg3IDE3LjExNjI5YTEuMTY0NyAxLjE2NDcgMCAwIDAgMCAxLjY0NzM0bDE3LjExNTgzIDE3LjExNjI5YTEuMTY1MTkgMS4xNjUxOSAwIDAgMCAxLjY0Nzc2IDBsMTcuMTE1ODctMTcuMTE2MjlhMS4xNjQ3IDEuMTY0NyAwIDAgMCAuMDAwMDQtMS42NDczNHptNTQuODAxNjIgMC0xNy4xMTU4Ni0xNy4xMTYyOWExLjE2NTIyIDEuMTY1MjIgMCAwIDAgLTEuNjQ3NzcgMGwtMTcuMTE1OCAxNy4xMTYyOWExLjE2NDU3IDEuMTY0NTcgMCAwIDAgMCAxLjY0NzM0bDE3LjExNTggMTcuMTE2MjlhMS4xNjUyIDEuMTY1MiAwIDAgMCAxLjY0Nzc3IDBsMTcuMTE1ODYtMTcuMTE2MjlhMS4xNjQ1NyAxLjE2NDU3IDAgMCAwIDAtMS42NDczNHptLTEzOS42ODQxOCAyNy40MDE0Mi0xNC40MzYzOS0xNC40MzYzNWExLjE2NDE3IDEuMTY0MTcgMCAwIDAgLTEuNjQ2OSAwbC0xNC40MzYzMyAxNC40MzYzNWExLjE2MzggMS4xNjM4IDAgMCAwIDAgMS42NDYwNWwxNC40MzY3NSAxNC40MzY4MmExLjE2NDQ0IDEuMTY0NDQgMCAwIDAgMS42NDY0OCAwbDE0LjQzNjM5LTE0LjQzNjgyYTEuMTYzMTQgMS4xNjMxNCAwIDAgMCAwLTEuNjQ2MDV6bTU0LjgwMiAwLTE0LjQzNjM4LTE0LjQzNjM5YTEuMTY0NyAxLjE2NDcgMCAwIDAgLTEuNjQ3MzQgMGwtMTQuNDM2MzQgMTQuNDM2MzlhMS4xNjM5MiAxLjE2MzkyIDAgMCAwIDAgMS42NDYwNWwxNC40MzY4OCAxNC40MzY4MmExLjE2NDM3IDEuMTY0MzcgMCAwIDAgMS42NDY0MiAwbDE0LjQzNjgxLTE0LjQzNjgyYTEuMTYzOSAxLjE2MzkgMCAwIDAgLTAtMS42NDYwNXptNTQuODAxNjMgMC0xNC40MzY3NC0xNC40MzY3OGExLjE2NDQ0IDEuMTY0NDQgMCAwIDAgLTEuNjQ2NDggMGwtMTQuNDM2ODQgMTQuNDM2NzhhMS4xNjQgMS4xNjQgMCAwIDAgMCAxLjY0NjA1bDE0LjQzNjgxIDE0LjQzNjgyYTEuMTY0NDQgMS4xNjQ0NCAwIDAgMCAxLjY0NjQ4IDBsMTQuNDM2ODItMTQuNDM2ODJhMS4xNjM5MiAxLjE2MzkyIDAgMCAwIDAtMS42NDYwNXptNTQuODAxNjIgMC0xNC40MzY3Ni0xNC40MzY3OGExLjE2NDQ0IDEuMTY0NDQgMCAwIDAgLTEuNjQ2NDggMGwtMTQuNDM2ODIgMTQuNDM2NzhhMS4xNjM5MiAxLjE2MzkyIDAgMCAwIDAgMS42NDYwNWwxNC40MzY4MiAxNC40MzY4MmExLjE2NDQ0IDEuMTY0NDQgMCAwIDAgMS42NDY0OCAwbDE0LjQzNjgxLTE0LjQzNjgyYTEuMTYzOSAxLjE2MzkgMCAwIDAgLTAtMS42NDYwNXptLTE5NC40ODg3NSAyNy4zOTg1LTExLjc1MTc4LTExLjc1MTc4YTEuMTY3MjYgMS4xNjcyNiAwIDAgMCAtMS42NTA3NSAwbC0xMS43NTE3OCAxMS43NTE3OGExLjE2NzI4IDEuMTY3MjggMCAwIDAgMCAxLjY1MDc1bDExLjc1MTc4IDExLjc1MTc1YTEuMTY3MjYgMS4xNjcyNiAwIDAgMCAxLjY1MDc1IDBsMTEuNzUxNzgtMTEuNzUxNzhhMS4xNjcyNiAxLjE2NzI2IDAgMCAwIDAtMS42NTA3MnptNTQuODAxNjMgMC0xMS43NTEzNS0xMS43NTE3OGExLjE2Nzc4IDEuMTY3NzggMCAwIDAgLTEuNjUxMTggMGwtMTEuNzUxNzggMTEuNzUxNzhhMS4xNjcyNiAxLjE2NzI2IDAgMCAwIDAgMS42NTA3NWwxMS43NTE3OCAxMS43NTE3NWExLjE2Nzc4IDEuMTY3NzggMCAwIDAgMS42NTExOCAwbDExLjc1MTM1LTExLjc1MTc4YTEuMTY3MjggMS4xNjcyOCAwIDAgMCAwLTEuNjUwNzJ6bTU0LjgwMTYyIDAtMTEuNzUxMzUtMTEuNzUxNzhhMS4xNjc3OCAxLjE2Nzc4IDAgMCAwIC0xLjY1MTE4IDBsLTExLjc1MTMzIDExLjc1MTc4YTEuMTY2NDggMS4xNjY0OCAwIDAgMCAwIDEuNjUwNzVsMTEuNzUxMzMgMTEuNzUxNzVhMS4xNjc3OCAxLjE2Nzc4IDAgMCAwIDEuNjUxMTggMGwxMS43NTEzNS0xMS43NTE3OGExLjE2NzI2IDEuMTY3MjYgMCAwIDAgLTAtMS42NTA3MnptNTQuODAxNjMgMC0xMS43NTEzNi0xMS43NTE3OGExLjE2NzY5IDEuMTY3NjkgMCAwIDAgLTEuNjUxMTEgMGwtMTEuNzUxNDIgMTEuNzUxNzhhMS4xNjcyOCAxLjE2NzI4IDAgMCAwIDAgMS42NTA3NWwxMS43NTE0IDExLjc1MTc1YTEuMTY3NjkgMS4xNjc2OSAwIDAgMCAxLjY1MTExIDBsMTEuNzUxMzYtMTEuNzUxNzhhMS4xNjYzOSAxLjE2NjM5IDAgMCAwIC4wMDAwMi0xLjY1MDcyem01NC44MDIxMSAwLTExLjc1MTg0LTExLjc1MTc4YTEuMTY3NzggMS4xNjc3OCAwIDAgMCAtMS42NTExOCAwbC0xMS43NTEyOSAxMS43NTE3OGExLjE2NzE1IDEuMTY3MTUgMCAwIDAgMCAxLjY1MDc1bDExLjc1MTI5IDExLjc1MTc1YTEuMTY3NzggMS4xNjc3OCAwIDAgMCAxLjY1MTE4IDBsMTEuNzUxODQtMTEuNzUxNzhhMS4xNjczNyAxLjE2NzM3IDAgMCAwIC0wLTEuNjUwNzJ6bS0yNDkuMjg2MjEgMjcuNDAyNzQtOS4wNzUyMy05LjA3NDg3YTEuMTY0MjUgMS4xNjQyNSAwIDAgMCAtMS42NDcgMGwtOS4wNzQ4NiA5LjA3NDg3YTEuMTY0MTcgMS4xNjQxNyAwIDAgMCAwIDEuNjQ2OWw5LjA3MzU4IDkuMDczNThhMS4xNjYyMyAxLjE2NjIzIDAgMCAwIDEuNjQ5OSAwbDkuMDczNTgtOS4wNzM1OGExLjE2NSAxLjE2NSAwIDAgMCAuMDAwMDMtMS42NDY5em01NC44MDE2OCAwLTkuMDc1MzUtOS4wNzQ4N2ExLjE2NDE3IDEuMTY0MTcgMCAwIDAgLTEuNjQ2OSAwbC05LjA3NDgyIDkuMDc0ODdhMS4xNjQwNiAxLjE2NDA2IDAgMCAwIDAgMS42NDY5bDkuMDcyNjcgOS4wNzI3M2ExLjE2NzU0IDEuMTY3NTQgMCAwIDAgMS42NTE2MSAwbDkuMDcyNzgtOS4wNzI3M2ExLjE2NSAxLjE2NSAwIDAgMCAuMDAwMDEtMS42NDY5em01NC44MDE1NyAwLTkuMDcyNjctOS4wNzI3M2ExLjE2NzYgMS4xNjc2IDAgMCAwIC0xLjY1MTY2IDBsLTkuMDcwNTkgOS4wNzAxNmExLjE2ODgyIDEuMTY4ODIgMCAwIDAgMCAxLjY1Mmw5LjA3MDU5IDkuMDcwMTZhMS4xNjc2IDEuMTY3NiAwIDAgMCAxLjY1MTY2IDBsOS4wNzI2Ny05LjA3MjczYTEuMTY0MTcgMS4xNjQxNyAwIDAgMCAwLTEuNjQ2ODZ6bTU0Ljc5OTA2LS4yMzU4Mi05LjA3MDE2LTkuMDcwMTdhMS4xNjc1NCAxLjE2NzU0IDAgMCAwIC0xLjY1MTYxIDBsLTkuMDcyNzMgOS4wNzIzYTEuMTY0NyAxLjE2NDcgMCAwIDAgMCAxLjY0NzM0bDkuMDcyNzMgOS4wNzI3MmExLjE2ODMgMS4xNjgzIDAgMCAwIDEuNjUxNjEgMGw5LjA3MDE2LTkuMDcwNTlhMS4xNjc1MyAxLjE2NzUzIDAgMCAwIDAtMS42NTE2em01NC44MDIwNSAwLTkuMDcwNTktOS4wNzAxN2ExLjE2NzU0IDEuMTY3NTQgMCAwIDAgLTEuNjUxNjEgMGwtOS4wNzI3MiA5LjA3MjNhMS4xNjQ3IDEuMTY0NyAwIDAgMCAwIDEuNjQ3MzRsOS4wNzI3MiA5LjA3MjcyYTEuMTY4MyAxLjE2ODMgMCAwIDAgMS42NTE2MSAwbDkuMDcwNTktOS4wNzA1OWExLjE2ODI5IDEuMTY4MjkgMCAwIDAgMC0xLjY1MTZ6bTU0LjgwMTYzIDAtOS4wNzA1OS05LjA3MDE3YTEuMTY3NTQgMS4xNjc1NCAwIDAgMCAtMS42NTE2MSAwbC05LjA3MjczIDkuMDcyM2ExLjE2NTQ4IDEuMTY1NDggMCAwIDAgMCAxLjY0NzM0bDkuMDcyNzMgOS4wNzI3MmExLjE2ODMgMS4xNjgzIDAgMCAwIDEuNjUxNjEgMGw5LjA3MDU5LTkuMDcwNTlhMS4xNjgxOCAxLjE2ODE4IDAgMCAwIDAtMS42NTE2em0tOTEuMjc0OTUtMTEyLjY0NDE2IDIyLjQ3Ny0yMi40NzdhMS4xNjQ2OSAxLjE2NDY5IDAgMCAwIDAtMS42NDczM2wtMjIuNDc3LTIyLjQ3NzRhMS4xNjUyMiAxLjE2NTIyIDAgMCAwIC0xLjY0Nzc3IDBsLTIyLjQ3NyAyMi40Nzc0YTEuMTY0NjkgMS4xNjQ2OSAwIDAgMCAwIDEuNjQ3MzNsMjIuNDc3IDIyLjQ3N2ExLjE2NTIyIDEuMTY1MjIgMCAwIDAgMS42NDc3NyAwem0yNy40MDQgMjQuNzE3MjcgMTkuNzg5ODYtMTkuNzg5NzlhMS4xNjk1OSAxLjE2OTU5IDAgMCAwIDAtMS42NTQ2bC0xOS43ODk4Ni0xOS43ODk4YTEuMTY5ODUgMS4xNjk4NSAwIDAgMCAtMS42NTQxNyAwbC0xOS43ODk3OSAxOS43ODk4YTEuMTcwMzcgMS4xNzAzNyAwIDAgMCAwIDEuNjU0NmwxOS43ODk3OSAxOS43ODk3OWExLjE2OTg1IDEuMTY5ODUgMCAwIDAgMS42NTQxOC0wem0yNy4zOTc2MSAyNC43MjM2OCAxNy4xMTU4Ny0xNy4xMTYyOWExLjE2NDcgMS4xNjQ3IDAgMCAwIDAtMS42NDczNGwtMTcuMTE1ODctMTcuMTE2MjlhMS4xNjUyMSAxLjE2NTIxIDAgMCAwIC0xLjY0Nzc2IDBsLTE3LjExNTg3IDE3LjExNjI5YTEuMTY0NyAxLjE2NDcgMCAwIDAgMCAxLjY0NzM0bDE3LjExNTg3IDE3LjExNjI5YTEuMTY1MTkgMS4xNjUxOSAwIDAgMCAxLjY0Nzc3LTB6bTI3LjQwMDE3IDI0LjcyMDcgMTQuNDM1MTEtMTQuNDM1MTFhMS4xNjYzOSAxLjE2NjM5IDAgMCAwIDAtMS42NDk0N2wtMTQuNDM1MTEtMTQuNDM1MTFhMS4xNjQ0NCAxLjE2NDQ0IDAgMCAwIC0xLjY0NjQ4IDBsLTE0LjQzNjM3IDE0LjQzNjc4YTEuMTYzMTMgMS4xNjMxMyAwIDAgMCAwIDEuNjQ2MDVsMTQuNDM2MzggMTQuNDM2ODJhMS4xNjQ0NCAxLjE2NDQ0IDAgMCAwIDEuNjQ2NDguMDAwMDR6bTI3LjQwMzE3IDI0LjcxODA5IDExLjc1MTc4LTExLjc1MTc4YTEuMTY3MjYgMS4xNjcyNiAwIDAgMCAwLTEuNjUwNzVsLTExLjc1MTc4LTExLjc1MTc4YTEuMTY3MjYgMS4xNjcyNiAwIDAgMCAtMS42NTA3NSAwbC0xMS43NTE3OCAxMS43NTE4MWExLjE2NzM5IDEuMTY3MzkgMCAwIDAgMCAxLjY1MDc1bDExLjc1MTc4IDExLjc1MTc1YTEuMTY3MjYgMS4xNjcyNiAwIDAgMCAxLjY1MDc1IDB6bTI3LjQwMTQ2IDI0LjQ4NjU4IDkuMDc0NS05LjA3NDg2YTEuMTYyIDEuMTYyIDAgMCAwIDAtMS42NDMwNmwtOS4wNzQ1LTkuMDc0NDRhMS4xNjgwNiAxLjE2ODA2IDAgMCAwIC0xLjY1MiAwbC05LjA3MjcyIDkuMDcyM2ExLjE2NTQ2IDEuMTY1NDYgMCAwIDAgMCAxLjY0NzM0bDkuMDcyNzIgOS4wNzI3MmExLjE2ODgyIDEuMTY4ODIgMCAwIDAgMS42NTIuMDAwMDN6Ii8+PC9zdmc+;" parent="mw-tG2SvXwZyPVMsNlKE-85" vertex="1">
          <mxGeometry x="18" y="40" width="110" height="110" as="geometry" />
        </mxCell>
        <mxCell id="mw-tG2SvXwZyPVMsNlKE-88" value="" style="group" parent="1" vertex="1" connectable="0">
          <mxGeometry x="-32" y="-45" width="469" height="250" as="geometry" />
        </mxCell>
        <mxCell id="14" style="edgeStyle=orthogonalEdgeStyle;rounded=0;orthogonalLoop=1;jettySize=auto;html=1;entryX=0;entryY=0.5;entryDx=0;entryDy=0;" parent="mw-tG2SvXwZyPVMsNlKE-88" source="2" target="5" edge="1">
          <mxGeometry relative="1" as="geometry" />
        </mxCell>
        <mxCell id="15" style="edgeStyle=orthogonalEdgeStyle;rounded=0;orthogonalLoop=1;jettySize=auto;html=1;entryX=0;entryY=0.5;entryDx=0;entryDy=0;" parent="mw-tG2SvXwZyPVMsNlKE-88" source="2" target="6" edge="1">
          <mxGeometry relative="1" as="geometry" />
        </mxCell>
        <mxCell id="16" style="edgeStyle=orthogonalEdgeStyle;rounded=0;orthogonalLoop=1;jettySize=auto;html=1;entryX=0;entryY=0.5;entryDx=0;entryDy=0;" parent="mw-tG2SvXwZyPVMsNlKE-88" source="2" target="7" edge="1">
          <mxGeometry relative="1" as="geometry" />
        </mxCell>
        <mxCell id="29" style="edgeStyle=orthogonalEdgeStyle;rounded=0;orthogonalLoop=1;jettySize=auto;html=1;entryX=0;entryY=0.5;entryDx=0;entryDy=0;" parent="mw-tG2SvXwZyPVMsNlKE-88" source="2" target="8" edge="1">
          <mxGeometry relative="1" as="geometry">
            <Array as="points">
              <mxPoint x="60" y="70" />
              <mxPoint x="60" y="225" />
            </Array>
          </mxGeometry>
        </mxCell>
        <mxCell id="2" value="User" style="shape=umlActor;verticalLabelPosition=bottom;verticalAlign=top;html=1;outlineConnect=0;" parent="mw-tG2SvXwZyPVMsNlKE-88" vertex="1">
          <mxGeometry y="40" width="30" height="60" as="geometry" />
        </mxCell>
        <mxCell id="17" style="edgeStyle=orthogonalEdgeStyle;rounded=0;orthogonalLoop=1;jettySize=auto;html=1;endArrow=none;endFill=0;" parent="mw-tG2SvXwZyPVMsNlKE-88" source="5" edge="1">
          <mxGeometry relative="1" as="geometry">
            <mxPoint x="345" y="20" as="targetPoint" />
          </mxGeometry>
        </mxCell>
        <mxCell id="5" value="Submit&amp;nbsp;Deployment" style="rounded=1;whiteSpace=wrap;html=1;fillColor=#f5f5f5;fontColor=#333333;strokeColor=#666666;fontSize=14;" parent="mw-tG2SvXwZyPVMsNlKE-88" vertex="1">
          <mxGeometry x="140" width="140" height="40" as="geometry" />
        </mxCell>
        <mxCell id="6" value="Submit&amp;nbsp;Volcano&amp;nbsp;Job" style="rounded=1;whiteSpace=wrap;html=1;fillColor=#f5f5f5;fontColor=#333333;strokeColor=#666666;fontSize=14;" parent="mw-tG2SvXwZyPVMsNlKE-88" vertex="1">
          <mxGeometry x="140" y="50" width="140" height="40" as="geometry" />
        </mxCell>
        <mxCell id="19" style="edgeStyle=orthogonalEdgeStyle;rounded=0;orthogonalLoop=1;jettySize=auto;html=1;endArrow=none;endFill=0;" parent="mw-tG2SvXwZyPVMsNlKE-88" source="7" edge="1">
          <mxGeometry relative="1" as="geometry">
            <mxPoint x="345" y="120" as="targetPoint" />
          </mxGeometry>
        </mxCell>
        <mxCell id="7" value="Submit&amp;nbsp;Pod(AI Traing)" style="rounded=1;whiteSpace=wrap;html=1;fillColor=#f5f5f5;fontColor=#333333;strokeColor=#666666;fontSize=14;" parent="mw-tG2SvXwZyPVMsNlKE-88" vertex="1">
          <mxGeometry x="140" y="100" width="140" height="40" as="geometry" />
        </mxCell>
        <mxCell id="8" value="Submit PropogationPolicy" style="rounded=1;whiteSpace=wrap;html=1;fillColor=#f5f5f5;fontColor=#333333;strokeColor=#666666;" parent="mw-tG2SvXwZyPVMsNlKE-88" vertex="1">
          <mxGeometry x="130" y="200" width="150" height="50" as="geometry" />
        </mxCell>
        <mxCell id="yYOCXMEWniT7reJ3RpYq-96" value="" style="endArrow=none;html=1;rounded=0;" parent="mw-tG2SvXwZyPVMsNlKE-88" edge="1">
          <mxGeometry width="50" height="50" relative="1" as="geometry">
            <mxPoint x="344" y="119.5" as="sourcePoint" />
            <mxPoint x="344" y="20.5" as="targetPoint" />
          </mxGeometry>
        </mxCell>
        <mxCell id="yYOCXMEWniT7reJ3RpYq-97" value="" style="endArrow=classic;html=1;rounded=0;movable=1;resizable=1;rotatable=1;deletable=1;editable=1;locked=0;connectable=1;" parent="mw-tG2SvXwZyPVMsNlKE-88" edge="1">
          <mxGeometry width="50" height="50" relative="1" as="geometry">
            <mxPoint x="281" y="70" as="sourcePoint" />
            <mxPoint x="410" y="70" as="targetPoint" />
          </mxGeometry>
        </mxCell>
        <mxCell id="mw-tG2SvXwZyPVMsNlKE-92" value="&lt;b&gt;&lt;font style=&quot;font-size: 30px;&quot;&gt;Karmada&lt;/font&gt;&lt;/b&gt;" style="text;html=1;align=center;verticalAlign=middle;whiteSpace=wrap;rounded=0;fontSize=28;" parent="1" vertex="1">
          <mxGeometry x="425" y="-99" width="60" height="30" as="geometry" />
        </mxCell>
        <mxCell id="mw-tG2SvXwZyPVMsNlKE-93" value="&lt;b&gt;APIServer&lt;/b&gt;" style="rounded=1;whiteSpace=wrap;html=1;fontSize=22;fillColor=#dae8fc;strokeColor=#6c8ebf;" parent="1" vertex="1">
          <mxGeometry x="445" y="26" width="224" height="93" as="geometry" />
        </mxCell>
        <mxCell id="mw-tG2SvXwZyPVMsNlKE-94" value="&lt;b&gt;Scheduler&lt;/b&gt;" style="rounded=1;whiteSpace=wrap;html=1;fontSize=22;fillColor=#dae8fc;strokeColor=#6c8ebf;" parent="1" vertex="1">
          <mxGeometry x="844" y="26" width="224" height="93" as="geometry" />
        </mxCell>
        <mxCell id="mw-tG2SvXwZyPVMsNlKE-101" value="&lt;font style=&quot;font-size: 18px;&quot;&gt;Schedule when ResourceBinding.&lt;/font&gt;&lt;div&gt;&lt;font style=&quot;font-size: 18px;&quot;&gt;Suspension.Scheduling=false&lt;/font&gt;&lt;/div&gt;" style="text;html=1;align=center;verticalAlign=middle;whiteSpace=wrap;rounded=0;fontSize=16;" parent="1" vertex="1">
          <mxGeometry x="811" y="100" width="307" height="100" as="geometry" />
        </mxCell>
        <mxCell id="mw-tG2SvXwZyPVMsNlKE-125" value="" style="endArrow=classic;html=1;rounded=0;entryX=0.75;entryY=0;entryDx=0;entryDy=0;exitX=0.75;exitY=1;exitDx=0;exitDy=0;" parent="1" source="mw-tG2SvXwZyPVMsNlKE-84" target="mw-tG2SvXwZyPVMsNlKE-94" edge="1">
          <mxGeometry width="50" height="50" relative="1" as="geometry">
            <mxPoint x="1016" y="-265" as="sourcePoint" />
            <mxPoint x="585" y="-131" as="targetPoint" />
          </mxGeometry>
        </mxCell>
        <mxCell id="mw-tG2SvXwZyPVMsNlKE-126" value="" style="endArrow=classic;html=1;rounded=0;exitX=0.5;exitY=0;exitDx=0;exitDy=0;" parent="1" edge="1">
          <mxGeometry width="50" height="50" relative="1" as="geometry">
            <mxPoint x="539" y="26" as="sourcePoint" />
            <mxPoint x="539" y="-355" as="targetPoint" />
          </mxGeometry>
        </mxCell>
        <mxCell id="Npk0ftExUG0agtpWYvep-38" value="" style="shape=image;imageAspect=0;aspect=fixed;verticalLabelPosition=bottom;verticalAlign=top;image=data:image/svg+xml,PHN2ZyB4bWxucz0iaHR0cDovL3d3dy53My5vcmcvMjAwMC9zdmciIHZpZXdCb3g9IjAgMCAyMjAuNjEgMTczLjY1Ij48ZGVmcz48c3R5bGU+LmNscy0xe2ZpbGw6IzE3OTFmZjt9LmNscy0ye2ZpbGw6IzUxYWRmZjt9LmNscy0ze2ZpbGw6IzE3ODFmZjt9LmNscy00e2ZpbGw6IzUxYTFmZjt9LmNscy01e2ZpbGw6IzI3NjVmZjt9LmNscy02e2ZpbGw6IzUwOGFmZjt9PC9zdHlsZT48L2RlZnM+PHRpdGxlPmljb24tY29sb3I8L3RpdGxlPjxnIGRhdGEtbmFtZT0iTGF5ZXIgMiIgaWQ9IkxheWVyXzIiPjxnIGRhdGEtbmFtZT0iTGF5ZXIgMSIgaWQ9IkxheWVyXzEtMiI+PHBhdGggZD0iTTAsMTE5LjcySDI5LjU3QTkxLjMyLDkxLjMyLDAsMCwwLDM2LjY0LDExMGMuMTItMS44Ny4yLTMuNzUuMi01LjY1QTg3LjA3LDg3LjA3LDAsMCwwLDExLjU5LDQyLjkzYTc0LjUsNzQuNSwwLDAsMSw1LjgsMjguODlBNzQuNCw3NC40LDAsMCwxLDAsMTE5LjcyWiIgY2xhc3M9ImNscy0xIi8+PHBhdGggZD0iTTE3LjIsMTMxLjI5SDMzLjQ4Yy43LTIuNTYsMS4zMi01LjEzLDEuODEtNy42OUgwQTI0LjcsMjQuNywwLDAsMSwxNy4yLDEzMS4yOVoiIGNsYXNzPSJjbHMtMiIvPjxwYXRoIGQ9Ik0yOS42OSwxNDIuMjZjMS4wOC0yLjY0LDIuMDgtNS4zMiwyLjkzLTguMDZIMTkuNTZhMjQuNDUsMjQuNDUsMCwwLDEsMy42OSw4LjA2WiIgY2xhc3M9ImNscy0yIi8+PHBhdGggZD0iTTI4LjQ5LDE0NS4xN0gyMy44YTI1LjExLDI1LjExLDAsMCwxLC4yMiwzLjE1QTI0Ljc3LDI0Ljc3LDAsMCwxLDIzLDE1NS40Niw3Ny42Nyw3Ny42NywwLDAsMCwyOC40OSwxNDUuMTdaIiBjbGFzcz0iY2xzLTIiLz48cGF0aCBkPSJNMTgzLjc4LDExOS43MmgzNS40N2E4Ny4zOCw4Ny4zOCwwLDAsMC0yMy44OC03Ni43OSw3NC43OSw3NC43OSwwLDAsMS0xMS41OSw3Ni43OVoiIGNsYXNzPSJjbHMtMSIvPjxwYXRoIGQ9Ik0yMDEsMTMxLjI5SDIxNy41Yy42OS0yLjUyLDEuMjktNS4wOSwxLjc1LTcuNjlIMTgzLjc4QTI0Ljc0LDI0Ljc0LDAsMCwxLDIwMSwxMzEuMjlaIiBjbGFzcz0iY2xzLTIiLz48cGF0aCBkPSJNMjEzLjY0LDE0Mi4yNmMxLjExLTIuNjMsMi4xNC01LjMxLDMtOC4wNmgtMTMuM2EyNC42NSwyNC42NSwwLDAsMSwzLjY5LDguMDZaIiBjbGFzcz0iY2xzLTIiLz48cGF0aCBkPSJNMjEyLjQsMTQ1LjE3aC00LjgyYTI1LjEyLDI1LjEyLDAsMCwxLC4yMSwzLjE1LDI0Ljc2LDI0Ljc2LDAsMCwxLTEsNy4xNEE4NS41NSw4NS41NSwwLDAsMCwyMTIuNCwxNDUuMTdaIiBjbGFzcz0iY2xzLTIiLz48cGF0aCBkPSJNMzYuMTksMTE5LjcySDc2cTIuNzktMy4zNiw1LjMyLTYuOTNhMTA4LDEwOCwwLDAsMCwuNjYtMTJBMTA4Ljg5LDEwOC44OSwwLDAsMCw1MC40NiwyNCw5My4xNiw5My4xNiwwLDAsMSw1Ny43LDYwLjEzLDkyLjkzLDkyLjkzLDAsMCwxLDM2LjE5LDExOS43MloiIGNsYXNzPSJjbHMtMyIvPjxwYXRoIGQ9Ik03OC41NCwxMzEuMjljLjY1LTIuNTUsMS4yMy01LjExLDEuNy03LjY5aC00NGMtLjA4LjEtLjE1LS4wOS0uMjIsMGEzMC42MSwzMC42MSwwLDAsMSwxOS4zNiw3LjY5WiIgY2xhc3M9ImNscy00Ii8+PHBhdGggZD0iTTc1LjIsMTQyLjI2YzEtMi42NSwxLjgzLTUuMzQsMi41OS04LjA2SDU4LjIxYTMxLjcxLDMxLjcxLDAsMCwxLDUuMSw4LjA2WiIgY2xhc3M9ImNscy00Ii8+PHBhdGggZD0iTTcwLjUzLDE1My4yMmMxLjI3LTIuNjIsMi40OC01LjMsMy41Ni04LjA1SDY0LjQzYTMwLjczLDMwLjczLDAsMCwxLDEuNDksOC4wNVoiIGNsYXNzPSJjbHMtNCIvPjxwYXRoIGQ9Ik02NS45NCwxNTYuMTNhMzEuNDYsMzEuNDYsMCwwLDEtMS4yNyw3LjU3YzEuNTYtMi40MywzLTUsNC4zOC03LjU3WiIgY2xhc3M9ImNscy00Ii8+PHBhdGggZD0iTTEzOSwxMTkuNzJoMzguMzRhNzYuNzUsNzYuNzUsMCwwLDAsNy4xMS0xMC4xYy4yMy0yLjkxLjM3LTUuODUuMzctOC44M0ExMDguODYsMTA4Ljg2LDAsMCwwLDE1My4zLDI0LDkzLjQxLDkzLjQxLDAsMCwxLDEzOSwxMTkuNzJaIiBjbGFzcz0iY2xzLTMiLz48cGF0aCBkPSJNMTgxLjM0LDEzMS4yOWMuNjUtMi41NSwxLjI1LTUuMTIsMS43Mi03LjY5SDEzOWMtLjA4LjEtLjE1LS4wOS0uMjMsMGEzMC42NCwzMC42NCwwLDAsMSwxOS4zNyw3LjY5WiIgY2xhc3M9ImNscy00Ii8+PHBhdGggZD0iTTE3OCwxNDIuMjZjMS0yLjY1LDEuODItNS4zNCwyLjU5LTguMDZIMTYxLjA1YTMxLjQ3LDMxLjQ3LDAsMCwxLDUuMTEsOC4wNloiIGNsYXNzPSJjbHMtNCIvPjxwYXRoIGQ9Ik0xNzMuMzUsMTUzLjIyYzEuMjctMi42MiwyLjQ3LTUuMywzLjU1LTguMDVoLTkuNjNhMzEuMTYsMzEuMTYsMCwwLDEsMS41LDguMDVaIiBjbGFzcz0iY2xzLTQiLz48cGF0aCBkPSJNMTY4Ljc4LDE1Ni4xM2EzMSwzMSwwLDAsMS0xLjI3LDcuNTdjMS41Ni0yLjQyLDMtNSw0LjM3LTcuNTdaIiBjbGFzcz0iY2xzLTQiLz48cGF0aCBkPSJNODEuODUsMTE5LjcyaDUxLjM3cTIuNTUtMy4wOSw0Ljg1LTYuMzhBMTM4LjE4LDEzOC4xOCwwLDAsMCwxMzkuMTksOTYsMTM2LjE1LDEzNi4xNSwwLDAsMCw5OS43NSwwYTExNi4zNywxMTYuMzcsMCwwLDEsOS4wNiw0NS4xNEExMTYuMjQsMTE2LjI0LDAsMCwxLDgxLjg1LDExOS43MloiIGNsYXNzPSJjbHMtNSIvPjxwYXRoIGQ9Ik0xMzUuMzYsMTMxLjI5Yy42MS0yLjU1LDEuMTctNS4xMSwxLjY0LTcuNjlIODEuODVjLS4wNy4wOS0uMTQtLjA5LS4yMSwwYTM4LjI1LDM4LjI1LDAsMCwxLDIxLjg1LDcuNjlaIiBjbGFzcz0iY2xzLTYiLz48cGF0aCBkPSJNMTEzLjQ0LDE0Mi4yNmgxOC43OGMuODctMi42NiwxLjY4LTUuMzQsMi4zOS04LjA2SDEwNi45M0EzOS4yNiwzOS4yNiwwLDAsMSwxMTMuNDQsMTQyLjI2WiIgY2xhc3M9ImNscy02Ii8+PHBhdGggZD0iTTEyOC4xNywxNTMuMjJjMS4xLTIuNjQsMi4xNC01LjMzLDMuMDktOC4wNUgxMTUuMDdhMzguNTgsMzguNTgsMCwwLDEsMyw4LjA1WiIgY2xhc3M9ImNscy02Ii8+PHBhdGggZD0iTTExOS4xLDE2NC4xOUgxMjNjMS4zNy0yLjYzLDIuNjgtNS4zMiwzLjktOC4wNmgtOC4yNGEzOS4xNywzOS4xNywwLDAsMSwuNTMsNi4zNkMxMTkuMTYsMTYzLjA2LDExOS4xMiwxNjMuNjIsMTE5LjEsMTY0LjE5WiIgY2xhc3M9ImNscy02Ii8+PHBhdGggZD0iTTExOC44NiwxNjcuMWEzOC40MywzOC40MywwLDAsMS0xLjM1LDYuNTVjMS4zNy0yLjEyLDIuNjUtNC4zMiwzLjg5LTYuNTVaIiBjbGFzcz0iY2xzLTYiLz48L2c+PC9nPjwvc3ZnPg==;" parent="1" vertex="1">
          <mxGeometry x="400" y="-61" width="101.87" height="80" as="geometry" />
        </mxCell>
        <mxCell id="Npk0ftExUG0agtpWYvep-50" value="" style="group" parent="1" vertex="1" connectable="0">
          <mxGeometry x="468" y="340" width="230" height="200" as="geometry" />
        </mxCell>
        <mxCell id="Npk0ftExUG0agtpWYvep-39" value="" style="rounded=1;whiteSpace=wrap;html=1;fillColor=#d5e8d4;strokeColor=#82b366;" parent="Npk0ftExUG0agtpWYvep-50" vertex="1">
          <mxGeometry width="215.91836734693877" height="200" as="geometry" />
        </mxCell>
        <mxCell id="Npk0ftExUG0agtpWYvep-44" value="&lt;b&gt;Cluster A&lt;/b&gt;" style="text;html=1;align=center;verticalAlign=middle;whiteSpace=wrap;rounded=0;fontSize=20;" parent="Npk0ftExUG0agtpWYvep-50" vertex="1">
          <mxGeometry x="11.26530612244898" y="140" width="211.22448979591834" height="40" as="geometry" />
        </mxCell>
        <mxCell id="Npk0ftExUG0agtpWYvep-48" value="" style="shape=image;imageAspect=0;aspect=fixed;verticalLabelPosition=bottom;verticalAlign=top;image=data:image/svg+xml,PHN2ZyB4bWxucz0iaHR0cDovL3d3dy53My5vcmcvMjAwMC9zdmciIHZpZXdCb3g9IjAuMDMgLTguOTYgMzYyLjE4IDI4Mi40MyIgcm9sZT0iaW1nIj48ZGVmcz48c3R5bGU+LmNscy0xe2ZpbGw6I2ZmZn0uY2xzLTJ7ZmlsbDojMzI2Y2U1fTwvc3R5bGU+PC9kZWZzPjxnIGlkPSJpdHMtcHJvbm91bmNlZCI+PGcgaWQ9Imt5b29iLWN1dHRsZSI+PHBhdGggZD0iTTE2Ljg0MSAyNDMuNTg2Yy45NTItMS4wNyAxLjkwNC0yLjE0MSAyLjk3NC0zLjIxMnExLjQ5My0xLjY2IDIuOTc1LTMuMzNjLjk1MS0xLjE5MSAxLjkwMy0yLjI2MiAyLjczNy0zLjIxNHMxLjY2NS0xLjkwMyAyLjI2LTIuNjE3aDExLjU0Yy0yLjI2IDIuNjE3LTQuNTIyIDUuMjM1LTYuNzgxIDcuNjE0cS0zLjIxMyAzLjU3LTcuMTM4IDcuNDk1YTQ4LjA1MiA0OC4wNTIgMCAwIDEgNC4wNDUgNC4yODRjMS40MjcgMS42NjUgMi43MzYgMy4zMyA0LjA0NSA0Ljk5NWE1MC44MDcgNTAuODA3IDAgMCAxIDMuNTY4IDUuMjM2YzEuMDcgMS43ODQgMi4wMjQgMy4zMyAyLjczNyA0Ljc1OUgyOC42MmMtLjcxNS0xLjE5LTEuNTQ3LTIuMzgtMi4zOC0zLjY5YTQzLjMyIDQzLjMyIDAgMCAwLTIuODU2LTQuMTYyIDM0LjIxIDM0LjIxIDAgMCAwLTMuMjExLTQuMDQ1IDIwLjQ0MiAyMC40NDIgMCAwIDAtMy4yMTMtMy4yMTN2MTQuOTlINy4yMDV2LTQ5LjEzNGw5Ljc1NS0xLjU0N3YyOC43OTEiIGlkPSJra2tra2trIi8+PHBhdGggZD0iTTczLjcwOSAyNjQuNDA2YTQ2LjI5NCA0Ni4yOTQgMCAwIDEtNi40MjQgMS4zMDkgNDUuOTg2IDQ1Ljk4NiAwIDAgMS04LjIxLjU5NCAxOS4xNyAxOS4xNyAwIDAgMS03LjM3NS0xLjE4OSAxMC45MjggMTAuOTI4IDAgMCAxLTYuOS04LjMyOCAyNy45NzcgMjcuOTc3IDAgMCAxLS43MTUtNi40MjV2LTE5LjE1NGg5Ljc1N3YxNy45NjVjMCAzLjA5My4zNTcgNS4zNTQgMS4xOSA2Ljc4MnMyLjM3OCAyLjE0MSA0LjYzOSAyLjE0MWExNS4xNjkgMTUuMTY5IDAgMCAwIDIuMjYtLjExOWMuODMzLS4xMTkgMS40MjktLjExOSAyLjE0Mi0uMjM4di0yNi41M2g5Ljc1NWwtLjExOSAzMy4xOTIiIGlkPSJ1dXV1dXV1Ii8+PHBhdGggZD0iTTEwNSAyNDguMTA3YzAtNi4zMDUtMi4yNjItOS4zOTgtNi45MDItOS4zOThhMTIuNzA2IDEyLjcwNiAwIDAgMC0yLjk3NC4zNTYgOC45OSA4Ljk5IDAgMCAwLTIuMzc5Ljk1MnYxNy43MjdjLjQ3NS4xMTkgMS4wNy4xMTkgMS43ODQuMjM4LjcxNCAwIDEuNTQ2LjEyIDIuMzguMTJhNy4zNjYgNy4zNjYgMCAwIDAgNi4wNjgtMi43MzggMTIuMiAxMi4yIDAgMCAwIDIuMDIyLTcuMjU3bTkuODc0LjIzOGEyMS41NDMgMjEuNTQzIDAgMCAxLTEuMTkgNy40OTYgMTUuMzEzIDE1LjMxMyAwIDAgMS0zLjQ1IDUuNzEgMTguMjk3IDE4LjI5NyAwIDAgMS01LjU5MSAzLjY4OCAyMS43NzQgMjEuNzc0IDAgMCAxLTcuNjE1IDEuMTljLTEuMTg5IDAtMi4zNzktLjEyLTMuNjg4LS4yMzhzLTIuNDk3LS4yMzgtMy44MDYtLjM1OGMtMS4xOS0uMTE4LTIuMzgtLjM1Ni0zLjU3LS41OTVhMTUuMDM3IDE1LjAzNyAwIDAgMS0yLjk3NC0uODMyVjIxNi4zNGw5Ljc1Ni0xLjU0NnYxNy4xMzJhMTYuNjE3IDE2LjYxNyAwIDAgMSAzLjQ1LTEuMDcgMTkuNjkxIDE5LjY5MSAwIDAgMSAzLjgwNy0uMzU3IDE1LjA3NCAxNS4wNzQgMCAwIDEgNi40MjQgMS4zMDggMTIuODg0IDEyLjg4NCAwIDAgMSA0Ljc2IDMuNTcgMTQuMzQ4IDE0LjM0OCAwIDAgMSAyLjg1NSA1LjcxIDMzLjc4NSAzMy43ODUgMCAwIDEgLjgzMiA3LjI1NyIgaWQ9ImJiYmJiYmIiLz48cGF0aCBkPSJNMTIwLjcwNCAyNDguNzAyYTIwLjMwMyAyMC4zMDMgMCAwIDEgMS40MjctNy45NyAxOC4yMDYgMTguMjA2IDAgMCAxIDMuNjg5LTUuNzEyIDEzLjg2NiAxMy44NjYgMCAwIDEgNS4yMzMtMy40NSAxNS45IDE1LjkgMCAwIDEgNi4xODctMS4xOSAxNS4yMjcgMTUuMjI3IDAgMCAxIDExLjU0IDQuNTIxYzIuODU1IDIuOTc0IDQuMjgyIDcuMzc4IDQuMjgyIDEzLjA4N2ExMC44ODcgMTAuODg3IDAgMCAxLS4xMTggMS45MDRjMCAuNTk1LS4xMTkgMS4xODktLjExOSAxLjc4NGgtMjIuMTNhNi41MjIgNi41MjIgMCAwIDAgMi44NTYgNC43NTkgMTEuMzIgMTEuMzIgMCAwIDAgNi42NjIgMS43ODQgMjUuMjEyIDI1LjIxMiAwIDAgMCA1LjIzNS0uNDc1IDIxLjM0MiAyMS4zNDIgMCAwIDAgNC4yODMtMS4xOWwxLjMwOCA3Ljk3Yy0uNDc2LjIzOS0xLjE5LjQ3Ny0yLjE0LjgzM2ExMS45OTQgMTEuOTk0IDAgMCAxLTIuOTc2LjU5NiAyNi44NTUgMjYuODU1IDAgMCAxLTMuNDUuNDc1Yy0xLjE5LjEyLTIuNDk3LjIzOC0zLjY4OC4yMzhhMjAuOTIgMjAuOTIgMCAwIDEtOC4wOS0xLjQyNyAxNy41MTcgMTcuNTE3IDAgMCAxLTUuNzEtMy42ODggMTcuMTcyIDE3LjE3MiAwIDAgMS0zLjMzLTUuNzEgMjcuOTQ0IDI3Ljk0NCAwIDAgMS0uOTU0LTcuMTM5bTIyLjk2Mi0zLjgwN2E3LjY5MiA3LjY5MiAwIDAgMC0uNDc2LTIuMzggNy4yMzIgNy4yMzIgMCAwIDAtMS4wNy0yLjE0MSA1LjY4NCA1LjY4NCAwIDAgMC00Ljc2LTIuMTQyIDcuMTg4IDcuMTg4IDAgMCAwLTIuODU1LjU5NSA0LjczMiA0LjczMiAwIDAgMC0xLjkwMyAxLjQyOCA2LjI0IDYuMjQgMCAwIDAtMS4xOSAyLjE0MiAxNy4zOTYgMTcuMzk2IDAgMCAwLS41OTUgMi4zOGgxMi44NSIgaWQ9ImVlZWVlZWUwIi8+PHBhdGggZD0iTTE4MS4yNiAyMzkuNzhhMTcuODc1IDE3Ljg3NSAwIDAgMC0zLjA5NC0uNTk2IDE5LjY4OCAxOS42ODggMCAwIDAtMy44MDctLjM1NyAyMC45NzcgMjAuOTc3IDAgMCAwLTIuMjYuMjM4IDE4LjY4NyAxOC42ODcgMCAwIDAtMS45MDQuMzU3djI2LjI5M2gtOS43NTZ2LTMyLjcxN2E1MC42MDYgNTAuNjA2IDAgMCAxIDYuMTg2LTEuNjY2IDMzLjQ2OCAzMy40NjggMCAwIDEgNy45NzEtLjgzMiAxMS41OCAxMS41OCAwIDAgMSAxLjkwNC4xMTggMTYuMjU2IDE2LjI1NiAwIDAgMSAyLjI2LjIzOGMuNzE1LjEyIDEuNDI4LjIzOCAyLjI2MS4zNTcuNzEzLjEyIDEuNDI4LjM1OCAxLjkwMy40NzZsLTEuNjY1IDguMDkiIGlkPSJycnJycnJyIi8+PHBhdGggZD0iTTE4OC4xNiAyMzIuNDAzYTU3LjUyNCA1Ny41MjQgMCAwIDEgMTQuNjMzLTEuOTAzIDE4LjE0NyAxOC4xNDcgMCAwIDEgNy4yNTcgMS4xODkgMTAuMTkxIDEwLjE5MSAwIDAgMSA0LjY0IDMuMjEyIDEzLjg5NyAxMy44OTcgMCAwIDEgMi4zOCA0Ljk5NyAyNi41NCAyNi41NCAwIDAgMSAuNzEzIDYuNDI0djE5LjM5M2gtOS43NTZ2LTE4LjIwMWMwLTMuMDk0LS4zNTYtNS4zNTQtMS4xOS02LjY2M3MtMi4zNzktMS45MDQtNC42NC0xLjkwNGExNS4xNyAxNS4xNyAwIDAgMC0yLjI2LjEyIDExLjc4NyAxMS43ODcgMCAwIDAtMi4xNC4yMzd2MjYuNTMxaC05LjYzOHYtMzMuNDMiIGlkPSJubm5ubm5uIi8+PHBhdGggZD0iTTIyNS4wNCAyNDguNzAyYTIwLjMwMSAyMC4zMDEgMCAwIDEgMS40MjctNy45NyAxOC4yMDYgMTguMjA2IDAgMCAxIDMuNjktNS43MTIgMTMuODY2IDEzLjg2NiAwIDAgMSA1LjIzNC0zLjQ1IDE1LjkgMTUuOSAwIDAgMSA2LjE4Ny0xLjE5IDE1LjIyNyAxNS4yMjcgMCAwIDEgMTEuNTQgNC41MjFjMi44NTQgMi45NzQgNC4yODIgNy4zNzggNC4yODIgMTMuMDg3YTEwLjg4NCAxMC44ODQgMCAwIDEtLjExOSAxLjkwNGMwIC41OTUtLjEyIDEuMTg5LS4xMiAxLjc4NGgtMjIuMTI3YTYuNTIyIDYuNTIyIDAgMCAwIDIuODU2IDQuNzU5IDExLjMyIDExLjMyIDAgMCAwIDYuNjYgMS43ODQgMjUuMjEzIDI1LjIxMyAwIDAgMCA1LjIzNy0uNDc1IDIxLjM0IDIxLjM0IDAgMCAwIDQuMjgyLTEuMTlsMS4zMDkgNy45N2MtLjQ3Ni4yMzktMS4xOS40NzctMi4xNDIuODMzYTExLjk5MiAxMS45OTIgMCAwIDEtMi45NzQuNTk2IDI2Ljg2IDI2Ljg2IDAgMCAxLTMuNDUuNDc1Yy0xLjE5LjEyLTIuNDk5LjIzOC0zLjY4OC4yMzhhMjAuOTIgMjAuOTIgMCAwIDEtOC4wOS0xLjQyNyAxNy41MTYgMTcuNTE2IDAgMCAxLTUuNzEtMy42ODggMTcuMTcyIDE3LjE3MiAwIDAgMS0zLjMzMi01LjcxIDI3LjkzOCAyNy45MzggMCAwIDEtLjk1Mi03LjEzOW0yMi45NjEtMy44MDdhNy42OTMgNy42OTMgMCAwIDAtLjQ3NS0yLjM4IDcuMjMzIDcuMjMzIDAgMCAwLTEuMDcxLTIuMTQxIDUuNjg0IDUuNjg0IDAgMCAwLTQuNzYtMi4xNDIgNy4xODggNy4xODggMCAwIDAtMi44NTUuNTk1IDQuNzMyIDQuNzMyIDAgMCAwLTEuOTAzIDEuNDI4IDYuMjQgNi4yNCAwIDAgMC0xLjE5IDIuMTQyIDE3LjM4OCAxNy4zODggMCAwIDAtLjU5NCAyLjM4aDEyLjg0OCIgaWQ9ImVlZWVlZWUxIi8+PHBhdGggZD0iTTI2NC42NTcgMjIyLjY0N2w5Ljc1Ni0xLjU0NnYxMC4xMTJoMTEuNjZ2OC4wOWgtMTEuNjZ2MTIuMTM1YTkuNTY2IDkuNTY2IDAgMCAwIDEuMDcgNC44NzhjLjcxNSAxLjE5IDIuMjYxIDEuNzg1IDQuNDAzIDEuNzg1YTI5LjE2NyAyOS4xNjcgMCAwIDAgMy4yMTItLjIzOCAxOS4zNDQgMTkuMzQ0IDAgMCAwIDMuMDkzLS44MzNsMS40MjcgNy42MTRhMTguOTQ4IDE4Ljk0OCAwIDAgMS0zLjkyNiAxLjE5IDIyLjg3MiAyMi44NzIgMCAwIDEtNS4zNTQuNDc1IDE4LjE4IDE4LjE4IDAgMCAxLTYuNjYtMS4wNyAxMS4wMSAxMS4wMSAwIDAgMS00LjE2NS0yLjk3NSAxMS44MDQgMTEuODA0IDAgMCAxLTIuMjYxLTQuNzU4IDMwLjgzNCAzMC44MzQgMCAwIDEtLjU5NC02LjA2OHYtMjguNzkxIiBpZD0idHR0dHR0dCIvPjxwYXRoIGQ9Ik0yOTEuMDY5IDI0OC43MDJhMjAuMyAyMC4zIDAgMCAxIDEuNDI4LTcuOTcgMTguMjA2IDE4LjIwNiAwIDAgMSAzLjY4OC01LjcxMiAxMy44NjYgMTMuODY2IDAgMCAxIDUuMjM0LTMuNDUgMTUuOSAxNS45IDAgMCAxIDYuMTg3LTEuMTkgMTUuMjI3IDE1LjIyNyAwIDAgMSAxMS41NCA0LjUyMWMyLjg1NiAyLjk3NCA0LjI4MyA3LjM3OCA0LjI4MyAxMy4wODdhMTAuODg1IDEwLjg4NSAwIDAgMS0uMTIgMS45MDRjMCAuNTk1LS4xMTkgMS4xODktLjExOSAxLjc4NGgtMjIuMTI4YTYuNTIyIDYuNTIyIDAgMCAwIDIuODU2IDQuNzU5IDExLjMyIDExLjMyIDAgMCAwIDYuNjYxIDEuNzg0IDI1LjIxMyAyNS4yMTMgMCAwIDAgNS4yMzYtLjQ3NSAyMS4zNCAyMS4zNCAwIDAgMCA0LjI4Mi0xLjE5bDEuMzEgNy45N2MtLjQ3Ni4yMzktMS4xOS40NzctMi4xNDMuODMzYTExLjk5MiAxMS45OTIgMCAwIDEtMi45NzQuNTk2IDI2Ljg1NiAyNi44NTYgMCAwIDEtMy40NS40NzVjLTEuMTkuMTItMi40OTcuMjM4LTMuNjg4LjIzOGEyMC45MiAyMC45MiAwIDAgMS04LjA5LTEuNDI3IDE3LjUxNiAxNy41MTYgMCAwIDEtNS43MS0zLjY4OCAxNy4xNzIgMTcuMTcyIDAgMCAxLTMuMzMtNS43MSAyMy41MjUgMjMuNTI1IDAgMCAxLS45NTMtNy4xMzltMjIuODQzLTMuODA3YTcuNjkyIDcuNjkyIDAgMCAwLS40NzctMi4zOCA3LjIzMiA3LjIzMiAwIDAgMC0xLjA3LTIuMTQxIDUuNjg0IDUuNjg0IDAgMCAwLTQuNzU5LTIuMTQyIDcuMTg4IDcuMTg4IDAgMCAwLTIuODU2LjU5NSA0LjczMiA0LjczMiAwIDAgMC0xLjkwNCAxLjQyOCA2LjI0IDYuMjQgMCAwIDAtMS4xODggMi4xNDIgMTcuMzkxIDE3LjM5MSAwIDAgMC0uNTk2IDIuMzhoMTIuODUiIGlkPSJlZWVlZWVlMiIvPjxwYXRoIGQ9Ik0zNDAuNjggMjU4LjU3NmE5Ljc3NiA5Ljc3NiAwIDAgMCAzLjgwNy0uNDc1IDIuMDg0IDIuMDg0IDAgMCAwIDEuMDctMi4wMjNjMC0uODMzLS40NzUtMS40MjctMS40MjctMi4wMjJhMjIuNTY3IDIyLjU2NyAwIDAgMC00LjQwMy0yLjAyM2MtMS41NDYtLjU5NS0yLjk3NC0xLjE5LTQuMTYyLTEuNzg1YTExLjg5NCAxMS44OTQgMCAwIDEtMy4wOTUtMi4xNDEgOS4zMDQgOS4zMDQgMCAwIDEtMi4wMjItMy4wOTQgMTEuNTI2IDExLjUyNiAwIDAgMS0uNzE0LTQuMjgyIDkuMDUyIDkuMDUyIDAgMCAxIDMuNTY5LTcuNjE0YzIuMzgtMS45MDQgNS43MTEtMi44NTYgOS44NzUtMi44NTZhMzMuODQyIDMzLjg0MiAwIDAgMSA2LjA2OC41OTUgMjEuOTk3IDIxLjk5NyAwIDAgMSA0LjUyIDEuMTkxbC0xLjY2NSA3LjYxNGMtMS4xOS0uMzU4LTIuMzgtLjcxNS0zLjY5LTEuMDcxYTE2LjY0NSAxNi42NDUgMCAwIDAtNC40LS40NzdjLTMuMDk0IDAtNC41MjIuODMzLTQuNTIyIDIuNDk4YTMuNDc0IDMuNDc0IDAgMCAwIC4yMzggMS4wNzIgMS45OTggMS45OTggMCAwIDAgLjgzMy45NTJjLjM1Ny4yMzguOTUyLjU5NCAxLjU0Ny45NTEuNzE0LjM1NyAxLjU0Ni41OTUgMi42MTcgMS4wNzFhMzkuMjQzIDM5LjI0MyAwIDAgMSA1LjM1NCAyLjM3OSA4Ljg4MiA4Ljg4MiAwIDAgMSAzLjIxMyAyLjQ5OSA2LjIxNCA2LjIxNCAwIDAgMSAxLjY2NSAyLjk3NCAxMi4zNDYgMTIuMzQ2IDAgMCAxIC40NzYgMy44MDcgOC44NjggOC44NjggMCAwIDEtMy44MDggNy43MzRjLTIuNDk4IDEuNzg0LTYuMDY3IDIuNjE2LTEwLjgyNiAyLjYxNmEyNy41MDIgMjcuNTAyIDAgMCAxLTcuNjEzLS44MzIgMjEuNzE3IDIxLjcxNyAwIDAgMS00LjE2NC0xLjMxbDEuNjY1LTcuOTdhMzYuMzYgMzYuMzYgMCAwIDAgNS4xMTYgMS41NDYgMjEuODk0IDIxLjg5NCAwIDAgMCA0Ljg3Ny40NzYiIGlkPSJzc3Nzc3NzIi8+PC9nPjwvZz48cGF0aCBjbGFzcz0iY2xzLTEiIGQ9Ik03Ni41MjMgMTI2Ljk5MmgxMC42MTl2OC40MzJoLTEwLjYyeiIvPjxwYXRoIGNsYXNzPSJjbHMtMiIgZD0iTTIwMC42ODggMTIwLjA0N2EzLjU5IDMuNTkgMCAwIDAtLjg1NS0uMDY1IDMuNjg1IDMuNjg1IDAgMCAwLTEuNDI1LjM3IDMuNzI1IDMuNzI1IDAgMCAwLTEuODAzIDQuODI1bC0uMDI2LjAzNyA4LjUyOCAyMC42MDNhNDMuNTMgNDMuNTMgMCAwIDAgMTcuNTk1LTIyLjEwMmwtMjEuOTc2LTMuNzE0em0tMzQuMTk0IDIuOTJhMy43MiAzLjcyIDAgMCAwLTMuNTY4LTIuODk0IDMuNjU2IDMuNjU2IDAgMCAwLS43MzMuMDY1bC0uMDM3LS4wNDUtMjEuNzg1IDMuNjk4YTQzLjY5NSA0My42OTUgMCAwIDAgMTcuNTQgMjEuOTQ2bDguNDQyLTIwLjM5OS0uMDY2LS4wOGEzLjY4MyAzLjY4MyAwIDAgMCAuMjA3LTIuMjkxem0xOC4yNDUgOGEzLjcxOCAzLjcxOCAwIDAgMC02LjU1Ny4wMDhoLS4wMThsLTEwLjcxMyAxOS4zNzJhNDMuNjM3IDQzLjYzNyAwIDAgMCAyMy44MTUgMS4yMjVxMi4xOTctLjUgNC4yOTItMS4xOTlsLTEwLjczOC0xOS40MDd6bTMzLjkxNC00NUwyMDIuMTcgMTAwLjcybC4wMDkuMDQ3YTMuNzI1IDMuNzI1IDAgMCAwIDEuNDYgNi4zOTVsLjAyLjA4OSAyMS4zNSA2LjE1YTQ0LjI3OCA0NC4yNzggMCAwIDAtNi4zNTYtMjcuNDMyek0xODguMDMgODcuNjJhMy43MjUgMy43MjUgMCAwIDAgNS45MTMgMi44NGwuMDY1LjAyOCAxOC4wMzYtMTIuNzg5YTQzLjg1IDQzLjg1IDAgMCAwLTI1LjI4Ny0xMi4xOWwxLjI1MyAyMi4xMDV6bS0xOS4xIDIuOTIyYTMuNzIgMy43MiAwIDAgMCA1LjkwNC0yLjg1bC4wOTItLjA0NCAxLjI1My0yMi4xMzlhNDQuNjggNDQuNjggMCAwIDAtNC41MDEuNzc1IDQzLjQ2NyA0My40NjcgMCAwIDAtMjAuOTM3IDExLjQwOWwxOC4xNTQgMTIuODY5em0tOS42NzggMTYuNzI4YTMuNzIgMy43MiAwIDAgMCAxLjQ2Mi02LjM5NmwuMDE4LS4wODctMTYuNTc0LTE0LjgyNWE0My40NTQgNDMuNDU0IDAgMCAwLTYuMTY4IDI3LjUxMWwyMS4yNDUtNi4xM3ptMTYuMDk4IDYuNTEybDYuMTE0IDIuOTQgNi4wOTYtMi45MzMgMS41MTQtNi41ODItNC4yMTktNS4yNzZoLTYuNzlsLTQuMjMxIDUuMjY4eiIvPjxwYXRoIGNsYXNzPSJjbHMtMiIgZD0iTTI4Mi41MzggMTI2Ljc0OGwtMTcuNDIyLTc1LjY3NUExMy42MDIgMTMuNjAyIDAgMCAwIDI1Ny44MjMgNDJMMTg3LjMwMiA4LjMzYTEzLjU4OSAxMy41ODkgMCAwIDAtMTEuNzA1IDBMMTA1LjA5IDQyLjAxOGExMy41OTggMTMuNTk4IDAgMCAwLTcuMjk1IDkuMDcybC0xNy4zOTQgNzUuNjczYTEzLjMxNSAxMy4zMTUgMCAwIDAtLjAwNCA1LjgxIDEzLjUwNSAxMy41MDUgMCAwIDAgLjQ5MSAxLjcxOCAxMy4xMDEgMTMuMTAxIDAgMCAwIDEuMzQzIDIuNzI2Yy4yMzkuMzY1LjQ5MS43Mi43NjUgMS4wNjRsNDguODA0IDYwLjY3OGMuMjEzLjI2NC40NDguNTA1LjY4MS43NWExMy40MjMgMTMuNDIzIDAgMCAwIDIuNTc0IDIuMTMzIDEzLjkyNCAxMy45MjQgMCAwIDAgMy44NTcgMS42NzcgMTMuMjk4IDEzLjI5OCAwIDAgMCAzLjQzLjQ3M2guNzU5bDc3LjUwNC0uMDE4YTEyLjk5NiAxMi45OTYgMCAwIDAgMS40MS0uMDgzIDEzLjQ3IDEzLjQ3IDAgMCAwIDEuOTg5LS4zNzggMTMuODcgMTMuODcgMCAwIDAgMS4zODEtLjQ0MmMuMzUzLS4xMzUuNzA1LS4yNyAxLjA0NS0uNDMzYTEzLjk0MSAxMy45NDEgMCAwIDAgMS40NzktLjgyMiAxMy4zMDQgMTMuMzA0IDAgMCAwIDMuMjM3LTIuODY1bDEuNDg4LTEuODUgNDcuMjk5LTU4Ljg0YTEzLjE4NSAxMy4xODUgMCAwIDAgMi4xMDgtMy43ODUgMTMuNjcgMTMuNjcgMCAwIDAgLjUtMS43MjQgMTMuMjgyIDEzLjI4MiAwIDAgMC0uMDA0LTUuODA5em0tNzMuMTQ3IDI5LjQzMmExNC41MTUgMTQuNTE1IDAgMCAwIC43MDMgMS43MDMgMy4zMTQgMy4zMTQgMCAwIDAtLjMyNyAyLjQ5IDM5LjM3MyAzOS4zNzMgMCAwIDAgMy43NDIgNi43IDM1LjA2NSAzNS4wNjUgMCAwIDEgMi4yNjMgMy4zNjRjLjE3LjMxNS4zOTIuODAzLjU1MyAxLjEzNmE0LjI0IDQuMjQgMCAxIDEtNy42MyAzLjYwN2MtLjE2MS0uMzMtLjM4NS0uNzctLjUyMi0xLjA4MmEzNS4yNzUgMzUuMjc1IDAgMCAxLTEuMjI1LTMuODY4IDM5LjMwNSAzOS4zMDUgMCAwIDAtMi44OTYtNy4wOTcgMy4zMzUgMy4zMzUgMCAwIDAtMi4xNTQtMS4zMDdjLS4xMzUtLjIzMy0uNjM1LTEuMTQ5LS45MDMtMS42MjNhNTQuNjE3IDU0LjYxNyAwIDAgMS0zOC45NDgtLjFsLS45NTUgMS43MzFhMy40MjkgMy40MjkgMCAwIDAtMS44MTkuODg2IDI5LjUxOCAyOS41MTggMCAwIDAtMy4yNjggNy41ODIgMzQuODk4IDM0Ljg5OCAwIDAgMS0xLjIxOCAzLjg2OGMtLjEzNS4zMS0uMzYxLjc0NC0uNTIyIDEuMDczdi4wMDlsLS4wMDcuMDA4YTQuMjM4IDQuMjM4IDAgMSAxLTcuNjE5LTMuNjE2Yy4xNTktLjMzNS4zNzItLjgyLjU0LTEuMTM1YTM1LjE3OCAzNS4xNzggMCAwIDEgMi4yNjItMy4zNzMgNDEuMjI3IDQxLjIyNyAwIDAgMCAzLjgyLTYuODY2IDQuMTg4IDQuMTg4IDAgMCAwLS4zNzYtMi4zODdsLjc2OC0xLjg0YTU0LjkyMiA1NC45MjIgMCAwIDEtMjQuMzM4LTMwLjM4N2wtMS44MzkuMzEzYTQuNjggNC42OCAwIDAgMC0yLjQyOC0uODU1IDM5LjUyNSAzOS41MjUgMCAwIDAtNy4zNTYgMi4xNjUgMzUuNTg1IDM1LjU4NSAwIDAgMS0zLjc4NyAxLjQ1Yy0uMzA1LjA4NC0uNzQ1LjE2OC0xLjA5My4yNDQtLjAyOC4wMS0uMDUyLjAyMi0uMDguMDI5YS42MDMuNjAzIDAgMCAxLS4wNjUuMDA2IDQuMjM2IDQuMjM2IDAgMSAxLTEuODc0LTguMjI0bC4wNjEtLjAxNS4wMzctLjAxYy4zNTMtLjA4My44MDUtLjIgMS4xMjctLjI2MmEzNS4yNjggMzUuMjY4IDAgMCAxIDQuMDUtLjMyNiAzOS4zOSAzOS4zOSAwIDAgMCA3LjU2NC0xLjI0MiA1LjgzNSA1LjgzNSAwIDAgMCAxLjgxNC0xLjgzbDEuNzY3LS41MTZhNTQuNjEzIDU0LjYxMyAwIDAgMSA4LjYxMy0zOC4wNzNsLTEuMzUzLTEuMjA2YTQuNjg4IDQuNjg4IDAgMCAwLS44NDgtMi40MzYgMzkuMzY2IDM5LjM2NiAwIDAgMC02LjI3Ny00LjQxIDM1LjI1MSAzNS4yNTEgMCAwIDEtMy40OTktMi4wNDZjLS4yNTYtLjE5MS0uNTk2LS40NzgtLjg3NC0uNzA0bC0uMDYzLS4wNDRhNC40NzMgNC40NzMgMCAwIDEtMS4wMzgtNi4yMjIgNC4wNjYgNC4wNjYgMCAwIDEgMy4zNjMtMS40ODggNS4wMyA1LjAzIDAgMCAxIDIuOTQyIDEuMTFjLjI4Ny4yMjUuNjguNTI2LjkzNS43NDVhMzUuMjUzIDM1LjI1MyAwIDAgMSAyLjc4IDIuOTUgMzkuMzg0IDM5LjM4NCAwIDAgMCA1LjY5IDUuMTQyIDMuMzMzIDMuMzMzIDAgMCAwIDIuNTA3LjI0M3EuNzU0LjU1IDEuNTIyIDEuMDgyYTU0LjI4OSA1NC4yODkgMCAwIDEgMjcuNTc3LTE1Ljc1NCA1NS4wNTIgNTUuMDUyIDAgMCAxIDcuNjMtMS4xNzNsLjEtMS43ODRhNC42MDEgNC42MDEgMCAwIDAgMS4zNy0yLjE4NCAzOS40NzYgMzkuNDc2IDAgMCAwLS40Ny03LjY1NCAzNS40NjggMzUuNDY4IDAgMCAxLS41NzYtNC4wMTRjLS4wMTEtLjMwNy4wMDYtLjczMS4wMS0xLjA4MSAwLS4wNC0uMDEtLjA3OS0uMDEtLjExOGE0LjI0MiA0LjI0MiAwIDEgMSA4LjQ0MS0uMDA0YzAgLjM3LjAyMi44NjEuMDA5IDEuMmEzNS4xMTEgMzUuMTExIDAgMCAxLS41NzkgNC4wMTMgMzkuNTMzIDM5LjUzMyAwIDAgMC0uNDc4IDcuNjU2IDMuMzQ0IDMuMzQ0IDAgMCAwIDEuMzc5IDIuMTFjLjAxNS4zMDUuMDY1IDEuMzIzLjEwMiAxLjg4NEE1NS4zMDkgNTUuMzA5IDAgMCAxIDIyMS4xNSA3MS4yNWwxLjYwNi0xLjE0N2E0LjY5IDQuNjkgMCAwIDAgMi41Ni0uMjc4IDM5LjUzIDM5LjUzIDAgMCAwIDUuNjktNS4xNDggMzUuMDA0IDM1LjAwNCAwIDAgMSAyLjc4Ny0yLjk1Yy4yNTktLjIyMi42NS0uNTIuOTM2LS43NDZhNC4yNDIgNC4yNDIgMCAxIDEgNS4yNTggNi41OThjLS4yODMuMjI5LS42NTcuNTQ4LS45MjkuNzVhMzUuMDk2IDM1LjA5NiAwIDAgMS0zLjUwNyAyLjA0NiAzOS40OTUgMzkuNDk1IDAgMCAwLTYuMjc3IDQuNDEgMy4zMzcgMy4zMzcgMCAwIDAtLjc5MiAyLjM5Yy0uMjM1LjIxNi0xLjA2Ljk0Ny0xLjQ5NyAxLjM0M2E1NC44MzcgNTQuODM3IDAgMCAxIDguNzkyIDM3Ljk4M2wxLjcwNC40OTZhNC43NDUgNC43NDUgMCAwIDAgMS44MiAxLjgzMSAzOS40NjQgMzkuNDY0IDAgMCAwIDcuNTY4IDEuMjQ1IDM1LjY0IDM1LjY0IDAgMCAxIDQuMDQ2LjMyNGMuMzU1LjA2NS44NjguMjA3IDEuMjMuMjlhNC4yMzYgNC4yMzYgMCAxIDEtMS44NzggOC4yMjNsLS4wNjEtLjAwOGMtLjAyOC0uMDA3LS4wNTQtLjAyMi0uMDgzLS4wMjktLjM0OC0uMDc2LS43ODUtLjE1Mi0xLjA5LS4yMzJhMzUuMTQgMzUuMTQgMCAwIDEtMy43ODUtMS40NjIgMzkuNDc3IDM5LjQ3NyAwIDAgMC03LjM2My0yLjE2NSAzLjMzNyAzLjMzNyAwIDAgMC0yLjM2Mi44NzdxLS45LS4xNzEtMS44MDQtLjMxNmE1NC45MiA1NC45MiAwIDAgMS0yNC4zMjggMzAuNjA1eiIvPjxwYXRoIGNsYXNzPSJjbHMtMSIgZD0iTTI5MS43MzcgMTI4LjY4OUwyNzIuNzMgNDYuMTI4YTE0LjgzOCAxNC44MzggMCAwIDAtNy45NTgtOS45TDE4Ny44MzctLjUwMmExNC44MjUgMTQuODI1IDAgMCAwLTEyLjc3MSAwTDk4LjEzOCAzNi4yNWExNC44MzggMTQuODM4IDAgMCAwLTcuOTYxIDkuODk1TDcxLjIwMyAxMjguNzFhMTQuNjY4IDE0LjY2OCAwIDAgMCAxLjk5NSAxMS4xODVjLjI2MS40LjUzOC43ODguODM4IDEuMTYybDUzLjI0NiA2Ni4yMDVhMTQuOTggMTQuOTggMCAwIDAgMTEuNDk5IDUuNDg3bDg1LjM4Ny0uMDJhMTQuOTg2IDE0Ljk4NiAwIDAgMCAxMS41LTUuNDhsNTMuMjI3LTY2LjIxMWExNC43MiAxNC43MiAwIDAgMCAyLjg0Mi0xMi4zNDd6bS05LjE5NyAzLjg2NmExMy42NzcgMTMuNjc3IDAgMCAxLS40OTggMS43MjMgMTMuMTg0IDEzLjE4NCAwIDAgMS0yLjExIDMuNzg1bC00Ny4yOTkgNTguODM4LTEuNDg2IDEuODUyYTEzLjMwNSAxMy4zMDUgMCAwIDEtMy4yNCAyLjg2NSAxMy45NDMgMTMuOTQzIDAgMCAxLTEuNDc0LjgyMnEtLjUxMy4yMzctMS4wNDUuNDMxYTEzLjg2NSAxMy44NjUgMCAwIDEtMS4zODMuNDQ0IDEzLjQ3MiAxMy40NzIgMCAwIDEtMS45ODkuMzc5IDEyLjk4OCAxMi45ODggMCAwIDEtMS40MS4wODJsLTc3LjUwNC4wMThoLS43NmExMy4yOTggMTMuMjk4IDAgMCAxLTMuNDI5LS40NzIgMTMuOTI0IDEzLjkyNCAwIDAgMS0zLjg1NS0xLjY3OCAxMy40MjMgMTMuNDIzIDAgMCAxLTIuNTc2LTIuMTMyYy0uMjMzLS4yNDYtLjQ2OC0uNDg3LS42OC0uNzVsLTQ4LjgwNS02MC42NzlxLS40MDgtLjUxNC0uNzY1LTEuMDY2YTEzLjEwMiAxMy4xMDIgMCAwIDEtMS4zNDMtMi43MjYgMTMuNTA2IDEzLjUwNiAwIDAgMS0uNDkxLTEuNzE5IDEzLjMxNSAxMy4zMTUgMCAwIDEgLjAwNC01LjgwOWwxNy4zOTQtNzUuNjc1YTEzLjU5OCAxMy41OTggMCAwIDEgNy4yOTUtOS4wN2w3MC41MDgtMzMuNjg2YTEzLjU5IDEzLjU5IDAgMCAxIDExLjcwNSAwbDcwLjUxOSAzMy42N2ExMy42MDIgMTMuNjAyIDAgMCAxIDcuMjkzIDkuMDczbDE3LjQyMiA3NS42NzVhMTMuMjgyIDEzLjI4MiAwIDAgMSAuMDAyIDUuODA3eiIvPjxwYXRoIGNsYXNzPSJjbHMtMSIgZD0iTTI1Mi4xNDQgMTIwLjY4N2MtLjM2LS4wODMtLjg3NC0uMjI1LTEuMjI3LS4yOWEzNS42MzUgMzUuNjM1IDAgMCAwLTQuMDQ2LS4zMjYgMzkuNDY0IDM5LjQ2NCAwIDAgMS03LjU3LTEuMjQyIDQuNzQ1IDQuNzQ1IDAgMCAxLTEuODItMS44MzJsLTEuNzA0LS40OTZhNTQuODM3IDU0LjgzNyAwIDAgMC04Ljc5LTM3Ljk4M2MuNDM2LS4zOTYgMS4yNjItMS4xMjcgMS40OTUtMS4zNDJhMy4zMzggMy4zMzggMCAwIDEgLjc5Mi0yLjM5IDM5LjQ5NSAzOS40OTUgMCAwIDEgNi4yNzctNC40MSAzNS4wOTcgMzUuMDk3IDAgMCAwIDMuNTA3LTIuMDQ2Yy4yNzItLjIwMi42NDQtLjUyMi45MjktLjc1YTQuMjQyIDQuMjQyIDAgMSAwLTUuMjU2LTYuNmMtLjI4OC4yMjctLjY4LjUyNS0uOTM2Ljc0N2EzNS4wMDcgMzUuMDA3IDAgMCAwLTIuNzg5IDIuOTUgMzkuNTMyIDM5LjUzMiAwIDAgMS01LjY5IDUuMTQ4IDQuNjkgNC42OSAwIDAgMS0yLjU2LjI3OGwtMS42MDYgMS4xNDdhNTUuMzA5IDU1LjMwOSAwIDAgMC0zNS4wMzItMTYuOTI3Yy0uMDM5LS41NjEtLjA4Ny0xLjU3Ny0uMTAyLTEuODg0YTMuMzQ0IDMuMzQ0IDAgMCAxLTEuMzc3LTIuMTEgMzkuNTM0IDM5LjUzNCAwIDAgMSAuNDc4LTcuNjU2IDM1LjExMSAzNS4xMTEgMCAwIDAgLjU3NS00LjAxMmMuMDEzLS4zNC0uMDA3LS44MzQtLjAwNy0xLjIwMWE0LjI0MiA0LjI0MiAwIDEgMC04LjQ0MS4wMDRjMCAuMDQuMDA5LjA3OC4wMS4xMTgtLjAwNC4zNS0uMDIxLjc3NC0uMDEgMS4wOGEzNS40NzUgMzUuNDc1IDAgMCAwIC41NzYgNC4wMTUgMzkuNDc1IDM5LjQ3NSAwIDAgMSAuNDcgNy42NTQgNC42MDEgNC42MDEgMCAwIDEtMS4zNyAyLjE4MmwtLjEgMS43ODZhNTUuMDU1IDU1LjA1NSAwIDAgMC03LjYzIDEuMTczIDU0LjI4OSA1NC4yODkgMCAwIDAtMjcuNTc0IDE1Ljc1NHEtLjc3LS41MzEtMS41MjYtMS4wODJhMy4zMzMgMy4zMzMgMCAwIDEtMi41MDYtLjI0MyAzOS4zODMgMzkuMzgzIDAgMCAxLTUuNjktNS4xNDEgMzUuMjU1IDM1LjI1NSAwIDAgMC0yLjc3Ny0yLjk1Yy0uMjU3LS4yMi0uNjUtLjUyLS45MzgtLjc0OWE1LjAzIDUuMDMgMCAwIDAtMi45NDItMS4xMSA0LjA2NiA0LjA2NiAwIDAgMC0zLjM2MyAxLjQ4OSA0LjQ3MyA0LjQ3MyAwIDAgMCAxLjAzOCA2LjIyMmwuMDY1LjA0NmMuMjc2LjIyNi42MTYuNTE1Ljg3Mi43MDJhMzUuMjU3IDM1LjI1NyAwIDAgMCAzLjQ5OSAyLjA0OCAzOS4zNjcgMzkuMzY3IDAgMCAxIDYuMjc2IDQuNDEyIDQuNjkgNC42OSAwIDAgMSAuODQ5IDIuNDM0bDEuMzUxIDEuMjA4YTU0LjYxMyA1NC42MTMgMCAwIDAtOC42MTEgMzguMDczbC0xLjc2Ny41MTRhNS44MzUgNS44MzUgMCAwIDEtMS44MTQgMS44MjcgMzkuMzkgMzkuMzkgMCAwIDEtNy41NjUgMS4yNDcgMzUuMjY0IDM1LjI2NCAwIDAgMC00LjA0OS4zMjZjLS4zMjQuMDYtLjc3NC4xNzQtMS4xMjcuMjYybC0uMDM3LjAwOC0uMDYuMDE4YTQuMjM2IDQuMjM2IDAgMSAwIDEuODc1IDguMjI0bC4wNjMtLjAxYy4wMjgtLjAwNi4wNTItLjAyLjA4LS4wMjUuMzQ4LS4wNzkuNzg2LS4xNjMgMS4wOTItLjI0NmEzNS41ODUgMzUuNTg1IDAgMCAwIDMuNzg2LTEuNDUxIDM5LjUyNyAzOS41MjcgMCAwIDEgNy4zNTgtMi4xNjUgNC42OCA0LjY4IDAgMCAxIDIuNDI2Ljg1N2wxLjg0LS4zMTVhNTQuOTIyIDU0LjkyMiAwIDAgMCAyNC4zNCAzMC4zODdsLS43NjkgMS44NGE0LjE4OCA0LjE4OCAwIDAgMSAuMzc3IDIuMzg3IDQxLjIyNyA0MS4yMjcgMCAwIDEtMy44MiA2Ljg2NCAzNS4xODMgMzUuMTgzIDAgMCAwLTIuMjYzIDMuMzcyYy0uMTY4LjMxOC0uMzgxLjgwNS0uNTQyIDEuMTM4YTQuMjM4IDQuMjM4IDAgMSAwIDcuNjIxIDMuNjE2bC4wMDctLjAwOHYtLjAxYy4xNi0uMzMuMzg3LS43NjMuNTIyLTEuMDcyYTM0LjkgMzQuOSAwIDAgMCAxLjIxOC0zLjg2OCAyOS41MTcgMjkuNTE3IDAgMCAxIDMuMjY4LTcuNTgyIDMuNDMgMy40MyAwIDAgMSAxLjgxOS0uODg4bC45NTctMS43M2E1NC42MTcgNTQuNjE3IDAgMCAwIDM4Ljk0Ni4wOTljLjI2OC40NzguNzY4IDEuMzkyLjkgMS42MjNhMy4zMzUgMy4zMzUgMCAwIDEgMi4xNTUgMS4zMSAzOS4zMDYgMzkuMzA2IDAgMCAxIDIuODk4IDcuMDk2IDM1LjI3NCAzNS4yNzQgMCAwIDAgMS4yMjUgMy44NjhjLjEzNy4zMTIuMzYuNzUxLjUyMiAxLjA4MmE0LjI0IDQuMjQgMCAxIDAgNy42My0zLjYwN2MtLjE2MS0uMzMzLS4zODMtLjgyLS41NS0xLjEzNmEzNS4wNjIgMzUuMDYyIDAgMCAwLTIuMjYzLTMuMzY0IDM5LjM3MyAzOS4zNzMgMCAwIDEtMy43NDItNi43IDMuMzE0IDMuMzE0IDAgMCAxIC4zMjQtMi40OSAxNC41MTUgMTQuNTE1IDAgMCAxLS43MDMtMS43MDMgNTQuOTIgNTQuOTIgMCAwIDAgMjQuMzI4LTMwLjYwNWMuNTQ2LjA4NyAxLjQ5Ny4yNTMgMS44MDYuMzE2YTMuMzM3IDMuMzM3IDAgMCAxIDIuMzYtLjg3NyAzOS40NzcgMzkuNDc3IDAgMCAxIDcuMzYgMi4xNjUgMzUuMTM1IDM1LjEzNSAwIDAgMCAzLjc4OCAxLjQ2MmMuMzA1LjA4Ljc0LjE1NiAxLjA5LjIzMy4wMjkuMDA4LjA1NS4wMjEuMDgzLjAyOGwuMDYuMDA5YTQuMjM2IDQuMjM2IDAgMSAwIDEuODc4LTguMjI0em0tNDAuMS00Mi45ODdsLTE4LjAzNyAxMi43ODctLjA2My0uMDI5YTMuNzIzIDMuNzIzIDAgMCAxLTUuOTEzLTIuODM5bC0uMDItLjAwOS0xLjI1My0yMi4xMDRBNDMuODUgNDMuODUgMCAwIDEgMjEyLjA0MyA3Ny43em0tMzMuOTc4IDI0LjIyOGg2Ljc4OGw0LjIyIDUuMjc2LTEuNTEzIDYuNTgxLTYuMDk2IDIuOTMzLTYuMTE0LTIuOTQtMS41MTYtNi41ODN6TTE3MS42OCA2Ni4yOGE0NC42NzYgNDQuNjc2IDAgMCAxIDQuNTAzLS43NzRsLTEuMjU1IDIyLjEzNy0uMDkyLjA0NGEzLjcyIDMuNzIgMCAwIDEtNS45MDQgMi44NTJsLS4wMzUuMDItMTguMTU0LTEyLjg3MkE0My40NjcgNDMuNDY3IDAgMCAxIDE3MS42OCA2Ni4yOHptLTI3LjUyIDE5LjY4MWwxNi41NzQgMTQuODIzLS4wMTguMDkxYTMuNzIgMy43MiAwIDAgMS0xLjQ2MiA2LjM5NGwtLjAxNy4wNzItMjEuMjQ1IDYuMTMxYTQzLjQ1NCA0My40NTQgMCAwIDEgNi4xNjgtMjcuNTF6bTIyLjE5MSAzOS4zOGwtOC40NDEgMjAuMzk2YTQzLjY5NiA0My42OTYgMCAwIDEtMTcuNTM2LTIxLjk0OGwyMS43ODMtMy42OTkuMDM3LjA0OGEzLjY1NSAzLjY1NSAwIDAgMSAuNzMtLjA2NSAzLjcyIDMuNzIgMCAwIDEgMy4zNjQgNS4xODV6bTI0LjkxNiAyNi4yM2E0My42MzcgNDMuNjM3IDAgMCAxLTIzLjgxNS0xLjIyNGwxMC43MTMtMTkuMzcyaC4wMThhMy43MjUgMy43MjUgMCAwIDEgNi41NTctLjAwNmguMDhsMTAuNzQgMTkuNDA0cS0yLjA5MS42OTgtNC4yOTMgMS4xOTl6bTEzLjg0MS01Ljc1MmwtOC41MjgtMjAuNjA1LjAyNi0uMDM3YTMuNzI1IDMuNzI1IDAgMCAxIDEuODAzLTQuODIzIDMuNjg1IDMuNjg1IDAgMCAxIDEuNDI1LS4zNyAzLjU5IDMuNTkgMCAwIDEgLjg1NS4wNjNsLjAzNy0uMDQ2IDIxLjk3NyAzLjcxNGE0My41MyA0My41MyAwIDAgMS0xNy41OTUgMjIuMTA1em0xOS45MDMtMzIuNDE5bC0yMS4zNTItNi4xNS0uMDItLjA5YTMuNzI1IDMuNzI1IDAgMCAxLTEuNDYtNi4zOTZsLS4wMDgtLjA0MyAxNi40ODItMTQuNzUxYTQ0LjI3OSA0NC4yNzkgMCAwIDEgNi4zNTcgMjcuNDN6Ii8+PC9zdmc+;" parent="Npk0ftExUG0agtpWYvep-50" vertex="1">
          <mxGeometry x="9.387755102040815" y="30" width="96.13061224489796" height="75.10204081632652" as="geometry" />
        </mxCell>
        <mxCell id="Npk0ftExUG0agtpWYvep-49" value="" style="shape=image;imageAspect=0;aspect=fixed;verticalLabelPosition=bottom;verticalAlign=top;image=data:image/svg+xml,PHN2ZyB4bWxuczp4bGluaz0iaHR0cDovL3d3dy53My5vcmcvMTk5OS94bGluayIgeG1sbnM9Imh0dHA6Ly93d3cudzMub3JnLzIwMDAvc3ZnIiB2aWV3Qm94PSIwIDAgMzAwLjMzMzM0IDIwNC42NjY2NyI+PGxpbmVhckdyYWRpZW50IHkyPSIuMTE0NjUiIHkxPSIxNDYuODg1MjciIHgyPSIxNTAiIHgxPSIxNTAiIGdyYWRpZW50VW5pdHM9InVzZXJTcGFjZU9uVXNlIiBpZD0iYSI+PHN0b3Agc3RvcC1jb2xvcj0iI2ViNTUyMCIgb2Zmc2V0PSIwIi8+PHN0b3Agc3RvcC1jb2xvcj0iI2ViNTExZiIgb2Zmc2V0PSIuMjQ3MjciLz48c3RvcCBzdG9wLWNvbG9yPSIjZWI0NDFkIiBvZmZzZXQ9Ii41MDM0NCIvPjxzdG9wIHN0b3AtY29sb3I9IiNlYjMwMWEiIG9mZnNldD0iLjc2MjcyIi8+PHN0b3Agc3RvcC1jb2xvcj0iI2ViMTYxNiIgb2Zmc2V0PSIxIi8+PC9saW5lYXJHcmFkaWVudD48cGF0aCBmaWxsPSJ1cmwoI2EpIiBkPSJtMTI1Ljc1NjI4IDQwLjQzMTcxLTE5LjMwMjE3LTE5LjMwMjE3YTEuMDAyNTYgMS4wMDI1NiAwIDAgMSAwLTEuNDE3ODFsMTkuMzA0LTE5LjMwNGEuOTk5ODguOTk5ODggMCAwIDEgMS40MTQ1IDBsMTkuMzA0IDE5LjMwNGExLjAwMjQ3IDEuMDAyNDcgMCAwIDEgMCAxLjQxNzgxbC0xOS4zMDIxNiAxOS4zMDIxN2ExLjAwMjMyIDEuMDAyMzIgMCAwIDEgLTEuNDE4MTcgMHptLTUuMTE3NTIgMi44MTI0OS0xNi45OTcxNC0xNi45OTcxNGExLjAwNDc3IDEuMDA0NzcgMCAwIDAgLTEuNDIwNzQgMGwtMTYuOTk3MTQgMTYuOTk3MTRhMS4wMDQ1NSAxLjAwNDU1IDAgMCAwIDAgMS40MjExMWwxNy4wMDAwNyAxNy4wMDAwOGExLjAwMDM1IDEuMDAwMzUgMCAwIDAgMS40MTQ4NyAwbDE3LjAwMDA4LTE3LjAwMDA4YTEuMDA1MjIgMS4wMDUyMiAwIDAgMCAwLTEuNDIxMTF6bTQ3LjA2ODI0IDAtMTYuOTk3MDktMTYuOTk3MTRhMS4wMDQ4MyAxLjAwNDgzIDAgMCAwIC0xLjQyMDc5IDBsLTE2Ljk5NzEyIDE2Ljk5NzE0YTEuMDA1MiAxLjAwNTIgMCAwIDAgMCAxLjQyMTExbDE2Ljk5NzE0IDE2Ljk5NzE0YTEuMDA0ODMgMS4wMDQ4MyAwIDAgMCAxLjQyMDc5IDBsMTYuOTk3MDctMTYuOTk3MTRhMS4wMDUyMiAxLjAwNTIyIDAgMCAwIDAtMS40MjExMXptLTcyLjkwMTM0IDIzLjUzNzI0LTE0LjcwMDkxLTE0LjcwMDkxYTEuMDAwNzIgMS4wMDA3MiAwIDAgMCAtMS40MTUxOSAwbC0xNC43MDA1NiAxNC43MDA5MWExLjAwMDMzIDEuMDAwMzMgMCAwIDAgMCAxLjQxNDg3bDE0LjcwMDU2IDE0LjcwMDkxYTEuMDAwNzIgMS4wMDA3MiAwIDAgMCAxLjQxNTE5IDBsMTQuNzAwOTEtMTQuNzAwOTFhMS4wMDEgMS4wMDEgMCAwIDAgMC0xLjQxNDg3em00Ny4wNjc4NyAwLTE0LjcwMDUzLTE0LjcwMDkxYTEuMDAwNzggMS4wMDA3OCAwIDAgMCAtMS40MTUyNCAwbC0xNC43MDA1NiAxNC43MDA5MWExLjAwMDM1IDEuMDAwMzUgMCAwIDAgMCAxLjQxNDg3bDE0LjcwMDU1IDE0LjcwMDkxYTEuMDAwNzggMS4wMDA3OCAwIDAgMCAxLjQxNTI0IDBsMTQuNzAwNTQtMTQuNzAwOTFhMS4wMDAzMyAxLjAwMDMzIDAgMCAwIDAtMS40MTQ4N3ptNDcuMDY4MjQgMC0xNC43MDA1NC0xNC43MDA5MWExLjAwMDc4IDEuMDAwNzggMCAwIDAgLTEuNDE1MjQgMGwtMTQuNzAwNDkgMTQuNzAwOTFhMS4wMDAyNCAxLjAwMDI0IDAgMCAwIDAgMS40MTQ4N2wxNC43MDA1IDE0LjcwMDkxYTEuMDAwNzggMS4wMDA3OCAwIDAgMCAxLjQxNTI0IDBsMTQuNzAwNTQtMTQuNzAwOTFhMS4wMDAyNCAxLjAwMDI0IDAgMCAwIC0uMDAwMDEtMS40MTQ4N3ptLTExOS45NzI1MSAyMy41MzQ2Ny0xMi4zOTkxOC0xMi4zOTkxOGEuOTk5ODguOTk5ODggMCAwIDAgLTEuNDE0NSAwbC0xMi4zOTkxNCAxMi4zOTkxOGEuOTk5NTguOTk5NTggMCAwIDAgMCAxLjQxMzc3bDEyLjM5OTUgMTIuMzk5NTVhMS4wMDAxMiAxLjAwMDEyIDAgMCAwIDEuNDE0MTQgMGwxMi4zOTkxOC0xMi4zOTk1NWEuOTk5Ljk5OSAwIDAgMCAwLTEuNDEzNzd6bTQ3LjA2ODYxIDAtMTIuMzk5MTktMTIuMzk5MThhMS4wMDAzMyAxLjAwMDMzIDAgMCAwIC0xLjQxNDg3IDBsLTEyLjM5OTE4IDEyLjM5OTE4YS45OTk2Ny45OTk2NyAwIDAgMCAwIDEuNDEzNzdsMTIuMzk5NiAxMi4zOTk1NWExLjAwMDA2IDEuMDAwMDYgMCAwIDAgMS40MTQwOSAwbDEyLjM5OTU1LTEyLjM5OTU1YS45OTk2Ny45OTk2NyAwIDAgMCAtMC0xLjQxMzc3em00Ny4wNjgyNCAwLTEyLjM5OTU1LTEyLjM5OTU1YTEuMDAwMTIgMS4wMDAxMiAwIDAgMCAtMS40MTQxNCAwbC0xMi4zOTk1NSAxMi4zOTk1NWEuOTk5NzYuOTk5NzYgMCAwIDAgMCAxLjQxMzc3bDEyLjM5OTU1IDEyLjM5OTU1YTEuMDAwMTIgMS4wMDAxMiAwIDAgMCAxLjQxNDE0IDBsMTIuMzk5NTUtMTIuMzk5NTVhLjk5OTY3Ljk5OTY3IDAgMCAwIDAtMS40MTM3N3ptNDcuMDY4MjMgMC0xMi4zOTk1NS0xMi4zOTk1NWExLjAwMDExIDEuMDAwMTEgMCAwIDAgLTEuNDE0MTMgMGwtMTIuMzk5NTUgMTIuMzk5NTVhLjk5OTY3Ljk5OTY3IDAgMCAwIDAgMS40MTM3N2wxMi4zOTk1NSAxMi4zOTk1NWExLjAwMDExIDEuMDAwMTEgMCAwIDAgMS40MTQxMyAwbDEyLjM5OTU1LTEyLjM5OTU1YS45OTk2Ny45OTk2NyAwIDAgMCAwLTEuNDEzNzd6bS0xNjcuMDQzMzQgMjMuNTMyMTEtMTAuMDkzMzktMTAuMDkzNDJhMS4wMDI1NCAxLjAwMjU0IDAgMCAwIC0xLjQxNzggMGwtMTAuMDkzNDIgMTAuMDkzNDJhMS4wMDI1NCAxLjAwMjU0IDAgMCAwIDAgMS40MTc4bDEwLjA5MzQyIDEwLjA5MzQyYTEuMDAyNTQgMS4wMDI1NCAwIDAgMCAxLjQxNzggMGwxMC4wOTMzOS0xMC4wOTM0NGExLjAwMjU0IDEuMDAyNTQgMCAwIDAgMC0xLjQxNzc4em00Ny4wNjgyMyAwLTEwLjA5My0xMC4wOTM0MmExLjAwMyAxLjAwMyAwIDAgMCAtMS40MTgxOCAwbC0xMC4wOTM0MiAxMC4wOTM0MmExLjAwMjU0IDEuMDAyNTQgMCAwIDAgMCAxLjQxNzhsMTAuMDkzMzcgMTAuMDkzNDJhMS4wMDMgMS4wMDMgMCAwIDAgMS40MTgxOCAwbDEwLjA5My0xMC4wOTM0MmExLjAwMjUzIDEuMDAyNTMgMCAwIDAgLjAwMDA4LTEuNDE3OHptNDcuMDY4MjQgMC0xMC4wOTMwMi0xMC4wOTM0MmExLjAwMyAxLjAwMyAwIDAgMCAtMS40MTgxNyAwbC0xMC4wOTMwNSAxMC4wOTM0MmExLjAwMTg5IDEuMDAxODkgMCAwIDAgMCAxLjQxNzhsMTAuMDkzMDUgMTAuMDkzNDJhMS4wMDMgMS4wMDMgMCAwIDAgMS40MTgxNyAwbDEwLjA5MzA1LTEwLjA5MzQ0YTEuMDAyNTQgMS4wMDI1NCAwIDAgMCAwLTEuNDE3Nzh6bTQ3LjA2ODI0IDAtMTAuMDkzLTEwLjA5MzQyYTEuMDAyOTIgMS4wMDI5MiAwIDAgMCAtMS40MTgxMSAwbC0xMC4wOTMxMSAxMC4wOTM0MmExLjAwMjU0IDEuMDAyNTQgMCAwIDAgMCAxLjQxNzhsMTAuMDkzMTEgMTAuMDkzNDJhMS4wMDI5MiAxLjAwMjkyIDAgMCAwIDEuNDE4MTEgMGwxMC4wOTMtMTAuMDkzNDJhMS4wMDE3OCAxLjAwMTc4IDAgMCAwIC4wMDAwMy0xLjQxNzh6bTQ3LjA2ODY2IDAtMTAuMDkzNDQtMTAuMDkzNDJhMS4wMDMgMS4wMDMgMCAwIDAgLTEuNDE4MTcgMGwtMTAuMDkzIDEwLjA5MzQyYTEuMDAyNDQgMS4wMDI0NCAwIDAgMCAwIDEuNDE3OGwxMC4wOTMgMTAuMDkzNDJhMS4wMDMgMS4wMDMgMCAwIDAgMS40MTgxNyAwbDEwLjA5MzQ3LTEwLjA5MzQ0YTEuMDAyNjMgMS4wMDI2MyAwIDAgMCAwLTEuNDE3Nzh6bS0yMTQuMTA3OTEgMjMuNTM1NzgtNy43OTQ1Ny03Ljc5NDI2YTEgMSAwIDAgMCAtMS40MTQ1NSAwbC03Ljc5NDI2IDcuNzk0MjZhLjk5OTkuOTk5OSAwIDAgMCAwIDEuNDE0NWw3Ljc5MzE2IDcuNzkzMTVhMS4wMDE2NiAxLjAwMTY2IDAgMCAwIDEuNDE3MDcgMGw3Ljc5MzE1LTcuNzkzMTVhMS4wMDA1NSAxLjAwMDU1IDAgMCAwIDAtMS40MTQ1em00Ny4wNjgyOSAwLTcuNzk0NjctNy43OTQyNmEuOTk5OS45OTk5IDAgMCAwIC0xLjQxNDUgMGwtNy43OTQyMSA3Ljc5NDI2YS45OTk3OS45OTk3OSAwIDAgMCAwIDEuNDE0NWw3Ljc5MjM3IDcuNzkyNDJhMS4wMDI3NyAxLjAwMjc3IDAgMCAwIDEuNDE4NTQgMGw3Ljc5MjQ3LTcuNzkyNDJhMS4wMDA2NCAxLjAwMDY0IDAgMCAwIDAtMS40MTQ1em00Ny4wNjgxOSAwLTcuNzkyMzctNy43OTI0MmExLjAwMjgzIDEuMDAyODMgMCAwIDAgLTEuNDE4NTkgMGwtNy43OTA1OCA3Ljc5MDIxYTEuMDAzODcgMS4wMDM4NyAwIDAgMCAwIDEuNDE4OTFsNy43OTA1OCA3Ljc5MDIyYTEuMDAyODMgMS4wMDI4MyAwIDAgMCAxLjQxODU5IDBsNy43OTIzNy03Ljc5MjQyYS45OTk5Ljk5OTkgMCAwIDAgMC0xLjQxNDV6bTQ3LjA2Ni0uMjAyNTUtNy43OTAyMi03Ljc5MDIyYTEuMDAyNzkgMS4wMDI3OSAwIDAgMCAtMS40MTg1NCAwbC03Ljc5MjQyIDcuNzkyMDZhMS4wMDAzMyAxLjAwMDMzIDAgMCAwIDAgMS40MTQ4N2w3Ljc5MjQyIDcuNzkyNDJhMS4wMDM0NCAxLjAwMzQ0IDAgMCAwIDEuNDE4NTQgMGw3Ljc5MDI4LTcuNzkwNThhMS4wMDI3OSAxLjAwMjc5IDAgMCAwIDAtMS40MTg1NnptNDcuMDY4NiAwLTcuNzkwNTgtNy43OTAyMmExLjAwMjc5IDEuMDAyNzkgMCAwIDAgLTEuNDE4NTQgMGwtNy43OTI0MiA3Ljc5MjA2YTEuMDAwMzMgMS4wMDAzMyAwIDAgMCAwIDEuNDE0ODdsNy43OTI0MiA3Ljc5MjQyYTEuMDAzNDQgMS4wMDM0NCAwIDAgMCAxLjQxODU0IDBsNy43OTA2Mi03Ljc5MDU4YTEuMDAzNDQgMS4wMDM0NCAwIDAgMCAwLTEuNDE4NTZ6bTQ3LjA2ODI0IDAtNy43OTA1OC03Ljc5MDIyYTEuMDAyNzkgMS4wMDI3OSAwIDAgMCAtMS40MTg1NCAwbC03Ljc5MjQyIDcuNzkyMDZhMS4wMDEgMS4wMDEgMCAwIDAgMCAxLjQxNDg3bDcuNzkyNDIgNy43OTI0MmExLjAwMzQ0IDEuMDAzNDQgMCAwIDAgMS40MTg1NCAwbDcuNzkwNjItNy43OTA1OGExLjAwMzMzIDEuMDAzMzMgMCAwIDAgMC0xLjQxODU2em0tNzguMzk0NTUtOTYuNzQ4MjcgMTkuMzA1MS0xOS4zMDUxMWExLjAwMDMzIDEuMDAwMzMgMCAwIDAgMC0xLjQxNDg3bC0xOS4zMDUxLTE5LjMwNTQ3YTEuMDAwNzggMS4wMDA3OCAwIDAgMCAtMS40MTUyNCAwbC0xOS4zMDUxMSAxOS4zMDU0N2ExLjAwMDM1IDEuMDAwMzUgMCAwIDAgMCAxLjQxNDg3bDE5LjMwNTEyIDE5LjMwNTExYTEuMDAwNzggMS4wMDA3OCAwIDAgMCAxLjQxNTIzIDB6bTIzLjUzNjg3IDIxLjIyOTI3IDE2Ljk5NzE5LTE2Ljk5NzE0YTEuMDA0NTUgMS4wMDQ1NSAwIDAgMCAwLTEuNDIxMTFsLTE2Ljk5NzE5LTE2Ljk5NzE0YTEuMDA0NzcgMS4wMDQ3NyAwIDAgMCAtMS40MjA3NCAwbC0xNi45OTcxNCAxNi45OTcxNGExLjAwNTIgMS4wMDUyIDAgMCAwIDAgMS40MjExMWwxNi45OTcxNCAxNi45OTcxNGExLjAwNDc3IDEuMDA0NzcgMCAwIDAgMS40MjA3NCAwem0yMy41MzEzNiAyMS4yMzQ3NyAxNC43MDA1NC0xNC43MDA5MWExLjAwMDMzIDEuMDAwMzMgMCAwIDAgMC0xLjQxNDg3bC0xNC43MDA1NC0xNC43MDA5MWExLjAwMDc2IDEuMDAwNzYgMCAwIDAgLTEuNDE1MjMgMGwtMTQuNzAwNTUgMTQuNzAwOTFhMS4wMDAzNSAxLjAwMDM1IDAgMCAwIDAgMS40MTQ4N2wxNC43MDA1NSAxNC43MDA5MWExLjAwMDc2IDEuMDAwNzYgMCAwIDAgMS40MTUyMyAwem0yMy41MzM1NCAyMS4yMzIyMSAxMi4zOTgwOS0xMi4zOTgwOGExLjAwMTc4IDEuMDAxNzggMCAwIDAgMC0xLjQxNjdsLTEyLjM5ODA5LTEyLjM5ODA5YTEuMDAwMTEgMS4wMDAxMSAwIDAgMCAtMS40MTQxMyAwbC0xMi4zOTkxNSAxMi4zOTk1NWEuOTk5Ljk5OSAwIDAgMCAwIDEuNDEzNzdsMTIuMzk5MTggMTIuMzk5NTVhMS4wMDAxMSAxLjAwMDExIDAgMCAwIDEuNDE0MSAwem0yMy41MzYxNCAyMS4yMyAxMC4wOTM0NS0xMC4wOTM0M2ExLjAwMjU0IDEuMDAyNTQgMCAwIDAgMC0xLjQxNzhsLTEwLjA5MzQyLTEwLjA5MzRhMS4wMDI1NCAxLjAwMjU0IDAgMCAwIC0xLjQxNzggMGwtMTAuMDkzMzcgMTAuMDkzNDJhMS4wMDI2NSAxLjAwMjY1IDAgMCAwIDAgMS40MTc4bDEwLjA5MzQyIDEwLjA5MzQyYTEuMDAyNTQgMS4wMDI1NCAwIDAgMCAxLjQxNzc1IDB6bTIzLjUzNDY3IDIxLjAzMTEzIDcuNzkzOTUtNy43OTQyNmEuOTk4Ljk5OCAwIDAgMCAwLTEuNDExMmwtNy43OTM5NS03Ljc5Mzg5YTEuMDAzMjIgMS4wMDMyMiAwIDAgMCAtMS40MTg5IDBsLTcuNzkyNDIgNy43OTIwNmExLjAwMSAxLjAwMSAwIDAgMCAwIDEuNDE0ODdsNy43OTI0MiA3Ljc5MjQyYTEuMDAzODcgMS4wMDM4NyAwIDAgMCAxLjQxODkzLjAwMDAxeiIvPjxnIGZpbGw9IiMwZjBmMGYiPjxwYXRoIGQ9Im04NS4yMzg2NSAyMDQuMjgzNmgtMTkuMzEwMTRhMTEuMDQ2ODYgMTEuMDQ2ODYgMCAwIDEgLTExLjAzNDQ2LTExLjAzNDI5di01LjUxNzIzYTExLjA0NjkgMTEuMDQ2OSAwIDAgMSAxMS4wMzQ0Ni0xMS4wMzQ0NmgxOS4zMTAxNGExMS4wNDY4OCAxMS4wNDY4OCAwIDAgMSAxMS4wMzQ0NiAxMS4wMzQ0NnY1LjUxNzIzYTExLjA0Njg1IDExLjA0Njg1IDAgMCAxIC0xMS4wMzQ0NiAxMS4wMzQyOXptLTE5LjMxMDE0LTIyLjA2ODc1YTUuNTIzNTYgNS41MjM1NiAwIDAgMCAtNS41MTcyMyA1LjUxNzIzdjUuNTE3MjNhNS41MjM2NyA1LjUyMzY3IDAgMCAwIDUuNTE3MjMgNS41MTcyM2gxOS4zMTAxNGE1LjUyMzU2IDUuNTIzNTYgMCAwIDAgNS41MTcyMy01LjUxNzIzdi01LjUxNzIzYTUuNTIzNDUgNS41MjM0NSAwIDAgMCAtNS41MTcyMy01LjUxNzIzeiIvPjxwYXRoIGQ9Im0xMjkuNDI2MzUgMjA0LjI4MzZoLTE4LjgwODQ0YTExLjAzNDM3IDExLjAzNDM3IDAgMCAxIC0xMS4wMzQ0Ny0xMS4wMzQyOXYtMTYuMDVhLjUwMTc2LjUwMTc2IDAgMCAxIC41MDE3My0uNTAxNzJoNC41MTM4M2EuNTAxNzYuNTAxNzYgMCAwIDEgLjUwMTczLjUwMTcydjE2LjA1YTUuNTE3MjUgNS41MTcyNSAwIDAgMCA1LjUxNzIzIDUuNTE3MjNoMTguODA4NDRhLjUwMTYzLjUwMTYzIDAgMCAxIC41MDE3Mi41MDE1NXY0LjUxNGEuNTAxNjMuNTAxNjMgMCAwIDEgLS41MDE3Ny41MDE1MXoiLz48cGF0aCBkPSJtNDguMDA5OTMgMTc2LjkxMTQxLTE1LjM4MjM5IDIxLjk3NDc5YS41MDE1Ni41MDE1NiAwIDAgMSAtLjgyMTg5IDBsLTE1LjM4MjIxLTIxLjk3NDQ0YS41MDE5MS41MDE5MSAwIDAgMCAtLjQxMS0uMjE0aC01LjUwOTg1YS41MDE2Ny41MDE2NyAwIDAgMCAtLjQxMS43ODkzMWwxOC42MDgwNyAyNi41ODI3MWEuNTAxNDIuNTAxNDIgMCAwIDAgLjQxMS4yMTRoNi4yMTE4OWEuNTAxODguNTAxODggMCAwIDAgLjQxMS0uMjE0bDE4LjYwODk1LTI2LjU4NDA2YS41MDA3LjUwMDcgMCAwIDAgLS40MTAxNy0uNzg3OTNoLTUuNTEyMDZhLjUwMDc4LjUwMDc4IDAgMCAwIC0uNDEwMzQuMjEzNjJ6Ii8+PHBhdGggZD0ibTI3OS40NDQyOSAyMDQuMjgzNmgtMTkuMzEwMjlhMTEuMDQ2NzEgMTEuMDQ2NzEgMCAwIDEgLTExLjAzNDI5LTExLjAzNDI5di01LjUxNzIzYTExLjA0Njc1IDExLjA0Njc1IDAgMCAxIDExLjAzNDI5LTExLjAzNDQ2aDE5LjMxMDNhMTEuMDQ2OSAxMS4wNDY5IDAgMCAxIDExLjAzNDQ2IDExLjAzNDQ2djUuNTE3MjNhMTEuMDQ2ODYgMTEuMDQ2ODYgMCAwIDEgLTExLjAzNDQ3IDExLjAzNDI5em0tMTkuMzEwMjktMjIuMDY4NzVhNS41MjM0MSA1LjUyMzQxIDAgMCAwIC01LjUxNzA2IDUuNTE3MjN2NS41MTcyM2E1LjUyMzUyIDUuNTIzNTIgMCAwIDAgNS41MTcwNiA1LjUxNzIzaDE5LjMxMDNhNS41MjM2NyA1LjUyMzY3IDAgMCAwIDUuNTE3MjMtNS41MTcyM3YtNS41MTcyM2E1LjUyMzU2IDUuNTIzNTYgMCAwIDAgLTUuNTE3MjMtNS41MTcyM3oiLz48cGF0aCBkPSJtMTY1LjgzOTg2IDIwNC4yODM3N2gtMjEuNTY3YTExLjAzNDM0IDExLjAzNDM0IDAgMCAxIC0xMS4wMzQ0Ni0xMS4wMzQyOXYtNS41MTcyM2ExMS4wMzQ0OSAxMS4wMzQ0OSAwIDAgMSAxMS4wMzQ0Ni0xMS4wMzQ0NmgyMS41NjdhLjUwMTc3LjUwMTc3IDAgMCAxIC41MDE3My41MDE3M3Y0LjUxMzc4YS41MDE3Ni41MDE3NiAwIDAgMSAtLjUwMTczLjUwMTcyaC0yMS41NjdhNS41MTcyNCA1LjUxNzI0IDAgMCAwIC01LjUxNzIzIDUuNTE3MjN2NS41MTcyM2E1LjUxNzA5IDUuNTE3MDkgMCAwIDAgNS41MTcyMyA1LjUxNzA2aDIxLjU2N2EuNTAxNzcuNTAxNzcgMCAwIDEgLjUwMTczLjUwMTczdjQuNTEzOTVhLjUwMTYxLjUwMTYxIDAgMCAxIC0uNTAxNzMuNTAxNTV6Ii8+PHBhdGggZD0ibTE5NS4wMzEgMTc2LjY5Nzc5aC0xMy43OTI5YTExLjAzNDUxIDExLjAzNDUxIDAgMCAwIC0xMS4wMzQ0NiAxMS4wMzQ0NnYxNi4wNWEuNTAxNi41MDE2IDAgMCAwIC41MDE3Mi41MDE1NWg0LjUxMzc5YS41MDE2MS41MDE2MSAwIDAgMCAuNTAxNzItLjUwMTU1di0xMC4wMzEyNWEuNTAxNjEuNTAxNjEgMCAwIDEgLjUwMTcyLS41MDE1NmgyMy44MjM5MmEuNTAxNjEuNTAxNjEgMCAwIDEgLjUwMTcyLjUwMTU2djEwLjAzMTE4YS41MDE2MS41MDE2MSAwIDAgMCAuNTAxNzMuNTAxNTVoNC41MTM3OGEuNTAxNi41MDE2IDAgMCAwIC41MDE3Mi0uNTAxNTV2LTE2LjA1YTExLjAzNDUxIDExLjAzNDUxIDAgMCAwIC0xMS4wMzQ0Ni0xMS4wMzQzOXptLTE4Ljc4MjM0IDExLjAzNDQ2YS40OTY1MS40OTY1MSAwIDAgMSAtLjUwMjc5LS41Mjc1OCA1LjUyNDkzIDUuNTI0OTMgMCAwIDEgNS40OTIyMy00Ljk4OTY1aDEzLjc5MjlhNS41MjQ5MyA1LjUyNDkzIDAgMCAxIDUuNDkyMjMgNC45ODk2NS40OTY1MS40OTY1MSAwIDAgMSAtLjUwMjc1LjUyNzU4eiIvPjxwYXRoIGQ9Im0yNDAuMjcyMTMgMTc3LjE5ODQ4djE5LjcxN2EuNTAwODkuNTAwODkgMCAwIDEgLS44Mzc3Ni4zNzA2OWwtMjIuNTAzNzUtMjAuNDU3ODlhLjUwMTI0LjUwMTI0IDAgMCAwIC0uMzM3NDEtLjEzMDUyaC02LjE2Mzk1YS41MDE3Ny41MDE3NyAwIDAgMCAtLjUwMTczLjUwMTczdjI2LjU4MzIyYS41MDA3My41MDA3MyAwIDAgMCAuNTAwODcuNTAwODZoNC41MTU1YS41MDA4My41MDA4MyAwIDAgMCAuNTAwODYtLjUwMDg2di0xOS43MTUxYS41MDE2OS41MDE2OSAwIDAgMSAuODM5MTQtLjM3MTIxbDIyLjUwMjcxIDIwLjQ1NzJhLjUwMDg2LjUwMDg2IDAgMCAwIC4zMzY5LjEzMDE3aDYuMTY1YS41MDA4My41MDA4MyAwIDAgMCAuNTAwODYtLjUwMDg2di0yNi41ODQyNmEuNTAxLjUwMSAwIDAgMCAtLjUwMDg2LS41MDA4NmgtNC41MTU2OGEuNTAwNjYuNTAwNjYgMCAwIDAgLS41MDA3LjUwMDY5eiIvPjwvZz48L3N2Zz4=;" parent="Npk0ftExUG0agtpWYvep-50" vertex="1">
          <mxGeometry x="111.71428571428571" y="37" width="96.38408163265305" height="65.71428571428571" as="geometry" />
        </mxCell>
        <mxCell id="Npk0ftExUG0agtpWYvep-51" value="" style="endArrow=classic;html=1;rounded=0;exitX=0.25;exitY=1;exitDx=0;exitDy=0;entryX=0.5;entryY=0;entryDx=0;entryDy=0;" parent="1" source="mw-tG2SvXwZyPVMsNlKE-91" target="Npk0ftExUG0agtpWYvep-39" edge="1">
          <mxGeometry width="50" height="50" relative="1" as="geometry">
            <mxPoint x="700" y="50" as="sourcePoint" />
            <mxPoint x="570" y="310" as="targetPoint" />
          </mxGeometry>
        </mxCell>
        <mxCell id="Npk0ftExUG0agtpWYvep-57" value="" style="endArrow=classic;html=1;rounded=0;exitX=0.25;exitY=1;exitDx=0;exitDy=0;entryX=0.5;entryY=0;entryDx=0;entryDy=0;" parent="1" edge="1">
          <mxGeometry width="50" height="50" relative="1" as="geometry">
            <mxPoint x="894.64" y="220" as="sourcePoint" />
            <mxPoint x="894.64" y="340" as="targetPoint" />
          </mxGeometry>
        </mxCell>
        <mxCell id="Npk0ftExUG0agtpWYvep-58" value="&lt;font style=&quot;font-size: 18px;&quot;&gt;&lt;span style=&quot;font-weight: normal;&quot;&gt;Other Clusters&lt;/span&gt;&lt;/font&gt;" style="text;html=1;align=center;verticalAlign=middle;whiteSpace=wrap;rounded=0;fontStyle=1" parent="1" vertex="1">
          <mxGeometry x="1050" y="425" width="142" height="30" as="geometry" />
        </mxCell>
        <mxCell id="Npk0ftExUG0agtpWYvep-59" value="" style="group" parent="1" vertex="1" connectable="0">
          <mxGeometry x="780" y="340" width="230" height="200" as="geometry" />
        </mxCell>
        <mxCell id="Npk0ftExUG0agtpWYvep-60" value="" style="rounded=1;whiteSpace=wrap;html=1;fillColor=#d5e8d4;strokeColor=#82b366;" parent="Npk0ftExUG0agtpWYvep-59" vertex="1">
          <mxGeometry width="215.91836734693877" height="200" as="geometry" />
        </mxCell>
        <mxCell id="Npk0ftExUG0agtpWYvep-61" value="&lt;b&gt;Cluster B&lt;/b&gt;" style="text;html=1;align=center;verticalAlign=middle;whiteSpace=wrap;rounded=0;fontSize=20;" parent="Npk0ftExUG0agtpWYvep-59" vertex="1">
          <mxGeometry x="11.26530612244898" y="140" width="211.22448979591834" height="40" as="geometry" />
        </mxCell>
        <mxCell id="Npk0ftExUG0agtpWYvep-62" value="" style="shape=image;imageAspect=0;aspect=fixed;verticalLabelPosition=bottom;verticalAlign=top;image=data:image/svg+xml,PHN2ZyB4bWxucz0iaHR0cDovL3d3dy53My5vcmcvMjAwMC9zdmciIHZpZXdCb3g9IjAuMDMgLTguOTYgMzYyLjE4IDI4Mi40MyIgcm9sZT0iaW1nIj48ZGVmcz48c3R5bGU+LmNscy0xe2ZpbGw6I2ZmZn0uY2xzLTJ7ZmlsbDojMzI2Y2U1fTwvc3R5bGU+PC9kZWZzPjxnIGlkPSJpdHMtcHJvbm91bmNlZCI+PGcgaWQ9Imt5b29iLWN1dHRsZSI+PHBhdGggZD0iTTE2Ljg0MSAyNDMuNTg2Yy45NTItMS4wNyAxLjkwNC0yLjE0MSAyLjk3NC0zLjIxMnExLjQ5My0xLjY2IDIuOTc1LTMuMzNjLjk1MS0xLjE5MSAxLjkwMy0yLjI2MiAyLjczNy0zLjIxNHMxLjY2NS0xLjkwMyAyLjI2LTIuNjE3aDExLjU0Yy0yLjI2IDIuNjE3LTQuNTIyIDUuMjM1LTYuNzgxIDcuNjE0cS0zLjIxMyAzLjU3LTcuMTM4IDcuNDk1YTQ4LjA1MiA0OC4wNTIgMCAwIDEgNC4wNDUgNC4yODRjMS40MjcgMS42NjUgMi43MzYgMy4zMyA0LjA0NSA0Ljk5NWE1MC44MDcgNTAuODA3IDAgMCAxIDMuNTY4IDUuMjM2YzEuMDcgMS43ODQgMi4wMjQgMy4zMyAyLjczNyA0Ljc1OUgyOC42MmMtLjcxNS0xLjE5LTEuNTQ3LTIuMzgtMi4zOC0zLjY5YTQzLjMyIDQzLjMyIDAgMCAwLTIuODU2LTQuMTYyIDM0LjIxIDM0LjIxIDAgMCAwLTMuMjExLTQuMDQ1IDIwLjQ0MiAyMC40NDIgMCAwIDAtMy4yMTMtMy4yMTN2MTQuOTlINy4yMDV2LTQ5LjEzNGw5Ljc1NS0xLjU0N3YyOC43OTEiIGlkPSJra2tra2trIi8+PHBhdGggZD0iTTczLjcwOSAyNjQuNDA2YTQ2LjI5NCA0Ni4yOTQgMCAwIDEtNi40MjQgMS4zMDkgNDUuOTg2IDQ1Ljk4NiAwIDAgMS04LjIxLjU5NCAxOS4xNyAxOS4xNyAwIDAgMS03LjM3NS0xLjE4OSAxMC45MjggMTAuOTI4IDAgMCAxLTYuOS04LjMyOCAyNy45NzcgMjcuOTc3IDAgMCAxLS43MTUtNi40MjV2LTE5LjE1NGg5Ljc1N3YxNy45NjVjMCAzLjA5My4zNTcgNS4zNTQgMS4xOSA2Ljc4MnMyLjM3OCAyLjE0MSA0LjYzOSAyLjE0MWExNS4xNjkgMTUuMTY5IDAgMCAwIDIuMjYtLjExOWMuODMzLS4xMTkgMS40MjktLjExOSAyLjE0Mi0uMjM4di0yNi41M2g5Ljc1NWwtLjExOSAzMy4xOTIiIGlkPSJ1dXV1dXV1Ii8+PHBhdGggZD0iTTEwNSAyNDguMTA3YzAtNi4zMDUtMi4yNjItOS4zOTgtNi45MDItOS4zOThhMTIuNzA2IDEyLjcwNiAwIDAgMC0yLjk3NC4zNTYgOC45OSA4Ljk5IDAgMCAwLTIuMzc5Ljk1MnYxNy43MjdjLjQ3NS4xMTkgMS4wNy4xMTkgMS43ODQuMjM4LjcxNCAwIDEuNTQ2LjEyIDIuMzguMTJhNy4zNjYgNy4zNjYgMCAwIDAgNi4wNjgtMi43MzggMTIuMiAxMi4yIDAgMCAwIDIuMDIyLTcuMjU3bTkuODc0LjIzOGEyMS41NDMgMjEuNTQzIDAgMCAxLTEuMTkgNy40OTYgMTUuMzEzIDE1LjMxMyAwIDAgMS0zLjQ1IDUuNzEgMTguMjk3IDE4LjI5NyAwIDAgMS01LjU5MSAzLjY4OCAyMS43NzQgMjEuNzc0IDAgMCAxLTcuNjE1IDEuMTljLTEuMTg5IDAtMi4zNzktLjEyLTMuNjg4LS4yMzhzLTIuNDk3LS4yMzgtMy44MDYtLjM1OGMtMS4xOS0uMTE4LTIuMzgtLjM1Ni0zLjU3LS41OTVhMTUuMDM3IDE1LjAzNyAwIDAgMS0yLjk3NC0uODMyVjIxNi4zNGw5Ljc1Ni0xLjU0NnYxNy4xMzJhMTYuNjE3IDE2LjYxNyAwIDAgMSAzLjQ1LTEuMDcgMTkuNjkxIDE5LjY5MSAwIDAgMSAzLjgwNy0uMzU3IDE1LjA3NCAxNS4wNzQgMCAwIDEgNi40MjQgMS4zMDggMTIuODg0IDEyLjg4NCAwIDAgMSA0Ljc2IDMuNTcgMTQuMzQ4IDE0LjM0OCAwIDAgMSAyLjg1NSA1LjcxIDMzLjc4NSAzMy43ODUgMCAwIDEgLjgzMiA3LjI1NyIgaWQ9ImJiYmJiYmIiLz48cGF0aCBkPSJNMTIwLjcwNCAyNDguNzAyYTIwLjMwMyAyMC4zMDMgMCAwIDEgMS40MjctNy45NyAxOC4yMDYgMTguMjA2IDAgMCAxIDMuNjg5LTUuNzEyIDEzLjg2NiAxMy44NjYgMCAwIDEgNS4yMzMtMy40NSAxNS45IDE1LjkgMCAwIDEgNi4xODctMS4xOSAxNS4yMjcgMTUuMjI3IDAgMCAxIDExLjU0IDQuNTIxYzIuODU1IDIuOTc0IDQuMjgyIDcuMzc4IDQuMjgyIDEzLjA4N2ExMC44ODcgMTAuODg3IDAgMCAxLS4xMTggMS45MDRjMCAuNTk1LS4xMTkgMS4xODktLjExOSAxLjc4NGgtMjIuMTNhNi41MjIgNi41MjIgMCAwIDAgMi44NTYgNC43NTkgMTEuMzIgMTEuMzIgMCAwIDAgNi42NjIgMS43ODQgMjUuMjEyIDI1LjIxMiAwIDAgMCA1LjIzNS0uNDc1IDIxLjM0MiAyMS4zNDIgMCAwIDAgNC4yODMtMS4xOWwxLjMwOCA3Ljk3Yy0uNDc2LjIzOS0xLjE5LjQ3Ny0yLjE0LjgzM2ExMS45OTQgMTEuOTk0IDAgMCAxLTIuOTc2LjU5NiAyNi44NTUgMjYuODU1IDAgMCAxLTMuNDUuNDc1Yy0xLjE5LjEyLTIuNDk3LjIzOC0zLjY4OC4yMzhhMjAuOTIgMjAuOTIgMCAwIDEtOC4wOS0xLjQyNyAxNy41MTcgMTcuNTE3IDAgMCAxLTUuNzEtMy42ODggMTcuMTcyIDE3LjE3MiAwIDAgMS0zLjMzLTUuNzEgMjcuOTQ0IDI3Ljk0NCAwIDAgMS0uOTU0LTcuMTM5bTIyLjk2Mi0zLjgwN2E3LjY5MiA3LjY5MiAwIDAgMC0uNDc2LTIuMzggNy4yMzIgNy4yMzIgMCAwIDAtMS4wNy0yLjE0MSA1LjY4NCA1LjY4NCAwIDAgMC00Ljc2LTIuMTQyIDcuMTg4IDcuMTg4IDAgMCAwLTIuODU1LjU5NSA0LjczMiA0LjczMiAwIDAgMC0xLjkwMyAxLjQyOCA2LjI0IDYuMjQgMCAwIDAtMS4xOSAyLjE0MiAxNy4zOTYgMTcuMzk2IDAgMCAwLS41OTUgMi4zOGgxMi44NSIgaWQ9ImVlZWVlZWUwIi8+PHBhdGggZD0iTTE4MS4yNiAyMzkuNzhhMTcuODc1IDE3Ljg3NSAwIDAgMC0zLjA5NC0uNTk2IDE5LjY4OCAxOS42ODggMCAwIDAtMy44MDctLjM1NyAyMC45NzcgMjAuOTc3IDAgMCAwLTIuMjYuMjM4IDE4LjY4NyAxOC42ODcgMCAwIDAtMS45MDQuMzU3djI2LjI5M2gtOS43NTZ2LTMyLjcxN2E1MC42MDYgNTAuNjA2IDAgMCAxIDYuMTg2LTEuNjY2IDMzLjQ2OCAzMy40NjggMCAwIDEgNy45NzEtLjgzMiAxMS41OCAxMS41OCAwIDAgMSAxLjkwNC4xMTggMTYuMjU2IDE2LjI1NiAwIDAgMSAyLjI2LjIzOGMuNzE1LjEyIDEuNDI4LjIzOCAyLjI2MS4zNTcuNzEzLjEyIDEuNDI4LjM1OCAxLjkwMy40NzZsLTEuNjY1IDguMDkiIGlkPSJycnJycnJyIi8+PHBhdGggZD0iTTE4OC4xNiAyMzIuNDAzYTU3LjUyNCA1Ny41MjQgMCAwIDEgMTQuNjMzLTEuOTAzIDE4LjE0NyAxOC4xNDcgMCAwIDEgNy4yNTcgMS4xODkgMTAuMTkxIDEwLjE5MSAwIDAgMSA0LjY0IDMuMjEyIDEzLjg5NyAxMy44OTcgMCAwIDEgMi4zOCA0Ljk5NyAyNi41NCAyNi41NCAwIDAgMSAuNzEzIDYuNDI0djE5LjM5M2gtOS43NTZ2LTE4LjIwMWMwLTMuMDk0LS4zNTYtNS4zNTQtMS4xOS02LjY2M3MtMi4zNzktMS45MDQtNC42NC0xLjkwNGExNS4xNyAxNS4xNyAwIDAgMC0yLjI2LjEyIDExLjc4NyAxMS43ODcgMCAwIDAtMi4xNC4yMzd2MjYuNTMxaC05LjYzOHYtMzMuNDMiIGlkPSJubm5ubm5uIi8+PHBhdGggZD0iTTIyNS4wNCAyNDguNzAyYTIwLjMwMSAyMC4zMDEgMCAwIDEgMS40MjctNy45NyAxOC4yMDYgMTguMjA2IDAgMCAxIDMuNjktNS43MTIgMTMuODY2IDEzLjg2NiAwIDAgMSA1LjIzNC0zLjQ1IDE1LjkgMTUuOSAwIDAgMSA2LjE4Ny0xLjE5IDE1LjIyNyAxNS4yMjcgMCAwIDEgMTEuNTQgNC41MjFjMi44NTQgMi45NzQgNC4yODIgNy4zNzggNC4yODIgMTMuMDg3YTEwLjg4NCAxMC44ODQgMCAwIDEtLjExOSAxLjkwNGMwIC41OTUtLjEyIDEuMTg5LS4xMiAxLjc4NGgtMjIuMTI3YTYuNTIyIDYuNTIyIDAgMCAwIDIuODU2IDQuNzU5IDExLjMyIDExLjMyIDAgMCAwIDYuNjYgMS43ODQgMjUuMjEzIDI1LjIxMyAwIDAgMCA1LjIzNy0uNDc1IDIxLjM0IDIxLjM0IDAgMCAwIDQuMjgyLTEuMTlsMS4zMDkgNy45N2MtLjQ3Ni4yMzktMS4xOS40NzctMi4xNDIuODMzYTExLjk5MiAxMS45OTIgMCAwIDEtMi45NzQuNTk2IDI2Ljg2IDI2Ljg2IDAgMCAxLTMuNDUuNDc1Yy0xLjE5LjEyLTIuNDk5LjIzOC0zLjY4OC4yMzhhMjAuOTIgMjAuOTIgMCAwIDEtOC4wOS0xLjQyNyAxNy41MTYgMTcuNTE2IDAgMCAxLTUuNzEtMy42ODggMTcuMTcyIDE3LjE3MiAwIDAgMS0zLjMzMi01LjcxIDI3LjkzOCAyNy45MzggMCAwIDEtLjk1Mi03LjEzOW0yMi45NjEtMy44MDdhNy42OTMgNy42OTMgMCAwIDAtLjQ3NS0yLjM4IDcuMjMzIDcuMjMzIDAgMCAwLTEuMDcxLTIuMTQxIDUuNjg0IDUuNjg0IDAgMCAwLTQuNzYtMi4xNDIgNy4xODggNy4xODggMCAwIDAtMi44NTUuNTk1IDQuNzMyIDQuNzMyIDAgMCAwLTEuOTAzIDEuNDI4IDYuMjQgNi4yNCAwIDAgMC0xLjE5IDIuMTQyIDE3LjM4OCAxNy4zODggMCAwIDAtLjU5NCAyLjM4aDEyLjg0OCIgaWQ9ImVlZWVlZWUxIi8+PHBhdGggZD0iTTI2NC42NTcgMjIyLjY0N2w5Ljc1Ni0xLjU0NnYxMC4xMTJoMTEuNjZ2OC4wOWgtMTEuNjZ2MTIuMTM1YTkuNTY2IDkuNTY2IDAgMCAwIDEuMDcgNC44NzhjLjcxNSAxLjE5IDIuMjYxIDEuNzg1IDQuNDAzIDEuNzg1YTI5LjE2NyAyOS4xNjcgMCAwIDAgMy4yMTItLjIzOCAxOS4zNDQgMTkuMzQ0IDAgMCAwIDMuMDkzLS44MzNsMS40MjcgNy42MTRhMTguOTQ4IDE4Ljk0OCAwIDAgMS0zLjkyNiAxLjE5IDIyLjg3MiAyMi44NzIgMCAwIDEtNS4zNTQuNDc1IDE4LjE4IDE4LjE4IDAgMCAxLTYuNjYtMS4wNyAxMS4wMSAxMS4wMSAwIDAgMS00LjE2NS0yLjk3NSAxMS44MDQgMTEuODA0IDAgMCAxLTIuMjYxLTQuNzU4IDMwLjgzNCAzMC44MzQgMCAwIDEtLjU5NC02LjA2OHYtMjguNzkxIiBpZD0idHR0dHR0dCIvPjxwYXRoIGQ9Ik0yOTEuMDY5IDI0OC43MDJhMjAuMyAyMC4zIDAgMCAxIDEuNDI4LTcuOTcgMTguMjA2IDE4LjIwNiAwIDAgMSAzLjY4OC01LjcxMiAxMy44NjYgMTMuODY2IDAgMCAxIDUuMjM0LTMuNDUgMTUuOSAxNS45IDAgMCAxIDYuMTg3LTEuMTkgMTUuMjI3IDE1LjIyNyAwIDAgMSAxMS41NCA0LjUyMWMyLjg1NiAyLjk3NCA0LjI4MyA3LjM3OCA0LjI4MyAxMy4wODdhMTAuODg1IDEwLjg4NSAwIDAgMS0uMTIgMS45MDRjMCAuNTk1LS4xMTkgMS4xODktLjExOSAxLjc4NGgtMjIuMTI4YTYuNTIyIDYuNTIyIDAgMCAwIDIuODU2IDQuNzU5IDExLjMyIDExLjMyIDAgMCAwIDYuNjYxIDEuNzg0IDI1LjIxMyAyNS4yMTMgMCAwIDAgNS4yMzYtLjQ3NSAyMS4zNCAyMS4zNCAwIDAgMCA0LjI4Mi0xLjE5bDEuMzEgNy45N2MtLjQ3Ni4yMzktMS4xOS40NzctMi4xNDMuODMzYTExLjk5MiAxMS45OTIgMCAwIDEtMi45NzQuNTk2IDI2Ljg1NiAyNi44NTYgMCAwIDEtMy40NS40NzVjLTEuMTkuMTItMi40OTcuMjM4LTMuNjg4LjIzOGEyMC45MiAyMC45MiAwIDAgMS04LjA5LTEuNDI3IDE3LjUxNiAxNy41MTYgMCAwIDEtNS43MS0zLjY4OCAxNy4xNzIgMTcuMTcyIDAgMCAxLTMuMzMtNS43MSAyMy41MjUgMjMuNTI1IDAgMCAxLS45NTMtNy4xMzltMjIuODQzLTMuODA3YTcuNjkyIDcuNjkyIDAgMCAwLS40NzctMi4zOCA3LjIzMiA3LjIzMiAwIDAgMC0xLjA3LTIuMTQxIDUuNjg0IDUuNjg0IDAgMCAwLTQuNzU5LTIuMTQyIDcuMTg4IDcuMTg4IDAgMCAwLTIuODU2LjU5NSA0LjczMiA0LjczMiAwIDAgMC0xLjkwNCAxLjQyOCA2LjI0IDYuMjQgMCAwIDAtMS4xODggMi4xNDIgMTcuMzkxIDE3LjM5MSAwIDAgMC0uNTk2IDIuMzhoMTIuODUiIGlkPSJlZWVlZWVlMiIvPjxwYXRoIGQ9Ik0zNDAuNjggMjU4LjU3NmE5Ljc3NiA5Ljc3NiAwIDAgMCAzLjgwNy0uNDc1IDIuMDg0IDIuMDg0IDAgMCAwIDEuMDctMi4wMjNjMC0uODMzLS40NzUtMS40MjctMS40MjctMi4wMjJhMjIuNTY3IDIyLjU2NyAwIDAgMC00LjQwMy0yLjAyM2MtMS41NDYtLjU5NS0yLjk3NC0xLjE5LTQuMTYyLTEuNzg1YTExLjg5NCAxMS44OTQgMCAwIDEtMy4wOTUtMi4xNDEgOS4zMDQgOS4zMDQgMCAwIDEtMi4wMjItMy4wOTQgMTEuNTI2IDExLjUyNiAwIDAgMS0uNzE0LTQuMjgyIDkuMDUyIDkuMDUyIDAgMCAxIDMuNTY5LTcuNjE0YzIuMzgtMS45MDQgNS43MTEtMi44NTYgOS44NzUtMi44NTZhMzMuODQyIDMzLjg0MiAwIDAgMSA2LjA2OC41OTUgMjEuOTk3IDIxLjk5NyAwIDAgMSA0LjUyIDEuMTkxbC0xLjY2NSA3LjYxNGMtMS4xOS0uMzU4LTIuMzgtLjcxNS0zLjY5LTEuMDcxYTE2LjY0NSAxNi42NDUgMCAwIDAtNC40LS40NzdjLTMuMDk0IDAtNC41MjIuODMzLTQuNTIyIDIuNDk4YTMuNDc0IDMuNDc0IDAgMCAwIC4yMzggMS4wNzIgMS45OTggMS45OTggMCAwIDAgLjgzMy45NTJjLjM1Ny4yMzguOTUyLjU5NCAxLjU0Ny45NTEuNzE0LjM1NyAxLjU0Ni41OTUgMi42MTcgMS4wNzFhMzkuMjQzIDM5LjI0MyAwIDAgMSA1LjM1NCAyLjM3OSA4Ljg4MiA4Ljg4MiAwIDAgMSAzLjIxMyAyLjQ5OSA2LjIxNCA2LjIxNCAwIDAgMSAxLjY2NSAyLjk3NCAxMi4zNDYgMTIuMzQ2IDAgMCAxIC40NzYgMy44MDcgOC44NjggOC44NjggMCAwIDEtMy44MDggNy43MzRjLTIuNDk4IDEuNzg0LTYuMDY3IDIuNjE2LTEwLjgyNiAyLjYxNmEyNy41MDIgMjcuNTAyIDAgMCAxLTcuNjEzLS44MzIgMjEuNzE3IDIxLjcxNyAwIDAgMS00LjE2NC0xLjMxbDEuNjY1LTcuOTdhMzYuMzYgMzYuMzYgMCAwIDAgNS4xMTYgMS41NDYgMjEuODk0IDIxLjg5NCAwIDAgMCA0Ljg3Ny40NzYiIGlkPSJzc3Nzc3NzIi8+PC9nPjwvZz48cGF0aCBjbGFzcz0iY2xzLTEiIGQ9Ik03Ni41MjMgMTI2Ljk5MmgxMC42MTl2OC40MzJoLTEwLjYyeiIvPjxwYXRoIGNsYXNzPSJjbHMtMiIgZD0iTTIwMC42ODggMTIwLjA0N2EzLjU5IDMuNTkgMCAwIDAtLjg1NS0uMDY1IDMuNjg1IDMuNjg1IDAgMCAwLTEuNDI1LjM3IDMuNzI1IDMuNzI1IDAgMCAwLTEuODAzIDQuODI1bC0uMDI2LjAzNyA4LjUyOCAyMC42MDNhNDMuNTMgNDMuNTMgMCAwIDAgMTcuNTk1LTIyLjEwMmwtMjEuOTc2LTMuNzE0em0tMzQuMTk0IDIuOTJhMy43MiAzLjcyIDAgMCAwLTMuNTY4LTIuODk0IDMuNjU2IDMuNjU2IDAgMCAwLS43MzMuMDY1bC0uMDM3LS4wNDUtMjEuNzg1IDMuNjk4YTQzLjY5NSA0My42OTUgMCAwIDAgMTcuNTQgMjEuOTQ2bDguNDQyLTIwLjM5OS0uMDY2LS4wOGEzLjY4MyAzLjY4MyAwIDAgMCAuMjA3LTIuMjkxem0xOC4yNDUgOGEzLjcxOCAzLjcxOCAwIDAgMC02LjU1Ny4wMDhoLS4wMThsLTEwLjcxMyAxOS4zNzJhNDMuNjM3IDQzLjYzNyAwIDAgMCAyMy44MTUgMS4yMjVxMi4xOTctLjUgNC4yOTItMS4xOTlsLTEwLjczOC0xOS40MDd6bTMzLjkxNC00NUwyMDIuMTcgMTAwLjcybC4wMDkuMDQ3YTMuNzI1IDMuNzI1IDAgMCAwIDEuNDYgNi4zOTVsLjAyLjA4OSAyMS4zNSA2LjE1YTQ0LjI3OCA0NC4yNzggMCAwIDAtNi4zNTYtMjcuNDMyek0xODguMDMgODcuNjJhMy43MjUgMy43MjUgMCAwIDAgNS45MTMgMi44NGwuMDY1LjAyOCAxOC4wMzYtMTIuNzg5YTQzLjg1IDQzLjg1IDAgMCAwLTI1LjI4Ny0xMi4xOWwxLjI1MyAyMi4xMDV6bS0xOS4xIDIuOTIyYTMuNzIgMy43MiAwIDAgMCA1LjkwNC0yLjg1bC4wOTItLjA0NCAxLjI1My0yMi4xMzlhNDQuNjggNDQuNjggMCAwIDAtNC41MDEuNzc1IDQzLjQ2NyA0My40NjcgMCAwIDAtMjAuOTM3IDExLjQwOWwxOC4xNTQgMTIuODY5em0tOS42NzggMTYuNzI4YTMuNzIgMy43MiAwIDAgMCAxLjQ2Mi02LjM5NmwuMDE4LS4wODctMTYuNTc0LTE0LjgyNWE0My40NTQgNDMuNDU0IDAgMCAwLTYuMTY4IDI3LjUxMWwyMS4yNDUtNi4xM3ptMTYuMDk4IDYuNTEybDYuMTE0IDIuOTQgNi4wOTYtMi45MzMgMS41MTQtNi41ODItNC4yMTktNS4yNzZoLTYuNzlsLTQuMjMxIDUuMjY4eiIvPjxwYXRoIGNsYXNzPSJjbHMtMiIgZD0iTTI4Mi41MzggMTI2Ljc0OGwtMTcuNDIyLTc1LjY3NUExMy42MDIgMTMuNjAyIDAgMCAwIDI1Ny44MjMgNDJMMTg3LjMwMiA4LjMzYTEzLjU4OSAxMy41ODkgMCAwIDAtMTEuNzA1IDBMMTA1LjA5IDQyLjAxOGExMy41OTggMTMuNTk4IDAgMCAwLTcuMjk1IDkuMDcybC0xNy4zOTQgNzUuNjczYTEzLjMxNSAxMy4zMTUgMCAwIDAtLjAwNCA1LjgxIDEzLjUwNSAxMy41MDUgMCAwIDAgLjQ5MSAxLjcxOCAxMy4xMDEgMTMuMTAxIDAgMCAwIDEuMzQzIDIuNzI2Yy4yMzkuMzY1LjQ5MS43Mi43NjUgMS4wNjRsNDguODA0IDYwLjY3OGMuMjEzLjI2NC40NDguNTA1LjY4MS43NWExMy40MjMgMTMuNDIzIDAgMCAwIDIuNTc0IDIuMTMzIDEzLjkyNCAxMy45MjQgMCAwIDAgMy44NTcgMS42NzcgMTMuMjk4IDEzLjI5OCAwIDAgMCAzLjQzLjQ3M2guNzU5bDc3LjUwNC0uMDE4YTEyLjk5NiAxMi45OTYgMCAwIDAgMS40MS0uMDgzIDEzLjQ3IDEzLjQ3IDAgMCAwIDEuOTg5LS4zNzggMTMuODcgMTMuODcgMCAwIDAgMS4zODEtLjQ0MmMuMzUzLS4xMzUuNzA1LS4yNyAxLjA0NS0uNDMzYTEzLjk0MSAxMy45NDEgMCAwIDAgMS40NzktLjgyMiAxMy4zMDQgMTMuMzA0IDAgMCAwIDMuMjM3LTIuODY1bDEuNDg4LTEuODUgNDcuMjk5LTU4Ljg0YTEzLjE4NSAxMy4xODUgMCAwIDAgMi4xMDgtMy43ODUgMTMuNjcgMTMuNjcgMCAwIDAgLjUtMS43MjQgMTMuMjgyIDEzLjI4MiAwIDAgMC0uMDA0LTUuODA5em0tNzMuMTQ3IDI5LjQzMmExNC41MTUgMTQuNTE1IDAgMCAwIC43MDMgMS43MDMgMy4zMTQgMy4zMTQgMCAwIDAtLjMyNyAyLjQ5IDM5LjM3MyAzOS4zNzMgMCAwIDAgMy43NDIgNi43IDM1LjA2NSAzNS4wNjUgMCAwIDEgMi4yNjMgMy4zNjRjLjE3LjMxNS4zOTIuODAzLjU1MyAxLjEzNmE0LjI0IDQuMjQgMCAxIDEtNy42MyAzLjYwN2MtLjE2MS0uMzMtLjM4NS0uNzctLjUyMi0xLjA4MmEzNS4yNzUgMzUuMjc1IDAgMCAxLTEuMjI1LTMuODY4IDM5LjMwNSAzOS4zMDUgMCAwIDAtMi44OTYtNy4wOTcgMy4zMzUgMy4zMzUgMCAwIDAtMi4xNTQtMS4zMDdjLS4xMzUtLjIzMy0uNjM1LTEuMTQ5LS45MDMtMS42MjNhNTQuNjE3IDU0LjYxNyAwIDAgMS0zOC45NDgtLjFsLS45NTUgMS43MzFhMy40MjkgMy40MjkgMCAwIDAtMS44MTkuODg2IDI5LjUxOCAyOS41MTggMCAwIDAtMy4yNjggNy41ODIgMzQuODk4IDM0Ljg5OCAwIDAgMS0xLjIxOCAzLjg2OGMtLjEzNS4zMS0uMzYxLjc0NC0uNTIyIDEuMDczdi4wMDlsLS4wMDcuMDA4YTQuMjM4IDQuMjM4IDAgMSAxLTcuNjE5LTMuNjE2Yy4xNTktLjMzNS4zNzItLjgyLjU0LTEuMTM1YTM1LjE3OCAzNS4xNzggMCAwIDEgMi4yNjItMy4zNzMgNDEuMjI3IDQxLjIyNyAwIDAgMCAzLjgyLTYuODY2IDQuMTg4IDQuMTg4IDAgMCAwLS4zNzYtMi4zODdsLjc2OC0xLjg0YTU0LjkyMiA1NC45MjIgMCAwIDEtMjQuMzM4LTMwLjM4N2wtMS44MzkuMzEzYTQuNjggNC42OCAwIDAgMC0yLjQyOC0uODU1IDM5LjUyNSAzOS41MjUgMCAwIDAtNy4zNTYgMi4xNjUgMzUuNTg1IDM1LjU4NSAwIDAgMS0zLjc4NyAxLjQ1Yy0uMzA1LjA4NC0uNzQ1LjE2OC0xLjA5My4yNDQtLjAyOC4wMS0uMDUyLjAyMi0uMDguMDI5YS42MDMuNjAzIDAgMCAxLS4wNjUuMDA2IDQuMjM2IDQuMjM2IDAgMSAxLTEuODc0LTguMjI0bC4wNjEtLjAxNS4wMzctLjAxYy4zNTMtLjA4My44MDUtLjIgMS4xMjctLjI2MmEzNS4yNjggMzUuMjY4IDAgMCAxIDQuMDUtLjMyNiAzOS4zOSAzOS4zOSAwIDAgMCA3LjU2NC0xLjI0MiA1LjgzNSA1LjgzNSAwIDAgMCAxLjgxNC0xLjgzbDEuNzY3LS41MTZhNTQuNjEzIDU0LjYxMyAwIDAgMSA4LjYxMy0zOC4wNzNsLTEuMzUzLTEuMjA2YTQuNjg4IDQuNjg4IDAgMCAwLS44NDgtMi40MzYgMzkuMzY2IDM5LjM2NiAwIDAgMC02LjI3Ny00LjQxIDM1LjI1MSAzNS4yNTEgMCAwIDEtMy40OTktMi4wNDZjLS4yNTYtLjE5MS0uNTk2LS40NzgtLjg3NC0uNzA0bC0uMDYzLS4wNDRhNC40NzMgNC40NzMgMCAwIDEtMS4wMzgtNi4yMjIgNC4wNjYgNC4wNjYgMCAwIDEgMy4zNjMtMS40ODggNS4wMyA1LjAzIDAgMCAxIDIuOTQyIDEuMTFjLjI4Ny4yMjUuNjguNTI2LjkzNS43NDVhMzUuMjUzIDM1LjI1MyAwIDAgMSAyLjc4IDIuOTUgMzkuMzg0IDM5LjM4NCAwIDAgMCA1LjY5IDUuMTQyIDMuMzMzIDMuMzMzIDAgMCAwIDIuNTA3LjI0M3EuNzU0LjU1IDEuNTIyIDEuMDgyYTU0LjI4OSA1NC4yODkgMCAwIDEgMjcuNTc3LTE1Ljc1NCA1NS4wNTIgNTUuMDUyIDAgMCAxIDcuNjMtMS4xNzNsLjEtMS43ODRhNC42MDEgNC42MDEgMCAwIDAgMS4zNy0yLjE4NCAzOS40NzYgMzkuNDc2IDAgMCAwLS40Ny03LjY1NCAzNS40NjggMzUuNDY4IDAgMCAxLS41NzYtNC4wMTRjLS4wMTEtLjMwNy4wMDYtLjczMS4wMS0xLjA4MSAwLS4wNC0uMDEtLjA3OS0uMDEtLjExOGE0LjI0MiA0LjI0MiAwIDEgMSA4LjQ0MS0uMDA0YzAgLjM3LjAyMi44NjEuMDA5IDEuMmEzNS4xMTEgMzUuMTExIDAgMCAxLS41NzkgNC4wMTMgMzkuNTMzIDM5LjUzMyAwIDAgMC0uNDc4IDcuNjU2IDMuMzQ0IDMuMzQ0IDAgMCAwIDEuMzc5IDIuMTFjLjAxNS4zMDUuMDY1IDEuMzIzLjEwMiAxLjg4NEE1NS4zMDkgNTUuMzA5IDAgMCAxIDIyMS4xNSA3MS4yNWwxLjYwNi0xLjE0N2E0LjY5IDQuNjkgMCAwIDAgMi41Ni0uMjc4IDM5LjUzIDM5LjUzIDAgMCAwIDUuNjktNS4xNDggMzUuMDA0IDM1LjAwNCAwIDAgMSAyLjc4Ny0yLjk1Yy4yNTktLjIyMi42NS0uNTIuOTM2LS43NDZhNC4yNDIgNC4yNDIgMCAxIDEgNS4yNTggNi41OThjLS4yODMuMjI5LS42NTcuNTQ4LS45MjkuNzVhMzUuMDk2IDM1LjA5NiAwIDAgMS0zLjUwNyAyLjA0NiAzOS40OTUgMzkuNDk1IDAgMCAwLTYuMjc3IDQuNDEgMy4zMzcgMy4zMzcgMCAwIDAtLjc5MiAyLjM5Yy0uMjM1LjIxNi0xLjA2Ljk0Ny0xLjQ5NyAxLjM0M2E1NC44MzcgNTQuODM3IDAgMCAxIDguNzkyIDM3Ljk4M2wxLjcwNC40OTZhNC43NDUgNC43NDUgMCAwIDAgMS44MiAxLjgzMSAzOS40NjQgMzkuNDY0IDAgMCAwIDcuNTY4IDEuMjQ1IDM1LjY0IDM1LjY0IDAgMCAxIDQuMDQ2LjMyNGMuMzU1LjA2NS44NjguMjA3IDEuMjMuMjlhNC4yMzYgNC4yMzYgMCAxIDEtMS44NzggOC4yMjNsLS4wNjEtLjAwOGMtLjAyOC0uMDA3LS4wNTQtLjAyMi0uMDgzLS4wMjktLjM0OC0uMDc2LS43ODUtLjE1Mi0xLjA5LS4yMzJhMzUuMTQgMzUuMTQgMCAwIDEtMy43ODUtMS40NjIgMzkuNDc3IDM5LjQ3NyAwIDAgMC03LjM2My0yLjE2NSAzLjMzNyAzLjMzNyAwIDAgMC0yLjM2Mi44NzdxLS45LS4xNzEtMS44MDQtLjMxNmE1NC45MiA1NC45MiAwIDAgMS0yNC4zMjggMzAuNjA1eiIvPjxwYXRoIGNsYXNzPSJjbHMtMSIgZD0iTTI5MS43MzcgMTI4LjY4OUwyNzIuNzMgNDYuMTI4YTE0LjgzOCAxNC44MzggMCAwIDAtNy45NTgtOS45TDE4Ny44MzctLjUwMmExNC44MjUgMTQuODI1IDAgMCAwLTEyLjc3MSAwTDk4LjEzOCAzNi4yNWExNC44MzggMTQuODM4IDAgMCAwLTcuOTYxIDkuODk1TDcxLjIwMyAxMjguNzFhMTQuNjY4IDE0LjY2OCAwIDAgMCAxLjk5NSAxMS4xODVjLjI2MS40LjUzOC43ODguODM4IDEuMTYybDUzLjI0NiA2Ni4yMDVhMTQuOTggMTQuOTggMCAwIDAgMTEuNDk5IDUuNDg3bDg1LjM4Ny0uMDJhMTQuOTg2IDE0Ljk4NiAwIDAgMCAxMS41LTUuNDhsNTMuMjI3LTY2LjIxMWExNC43MiAxNC43MiAwIDAgMCAyLjg0Mi0xMi4zNDd6bS05LjE5NyAzLjg2NmExMy42NzcgMTMuNjc3IDAgMCAxLS40OTggMS43MjMgMTMuMTg0IDEzLjE4NCAwIDAgMS0yLjExIDMuNzg1bC00Ny4yOTkgNTguODM4LTEuNDg2IDEuODUyYTEzLjMwNSAxMy4zMDUgMCAwIDEtMy4yNCAyLjg2NSAxMy45NDMgMTMuOTQzIDAgMCAxLTEuNDc0LjgyMnEtLjUxMy4yMzctMS4wNDUuNDMxYTEzLjg2NSAxMy44NjUgMCAwIDEtMS4zODMuNDQ0IDEzLjQ3MiAxMy40NzIgMCAwIDEtMS45ODkuMzc5IDEyLjk4OCAxMi45ODggMCAwIDEtMS40MS4wODJsLTc3LjUwNC4wMThoLS43NmExMy4yOTggMTMuMjk4IDAgMCAxLTMuNDI5LS40NzIgMTMuOTI0IDEzLjkyNCAwIDAgMS0zLjg1NS0xLjY3OCAxMy40MjMgMTMuNDIzIDAgMCAxLTIuNTc2LTIuMTMyYy0uMjMzLS4yNDYtLjQ2OC0uNDg3LS42OC0uNzVsLTQ4LjgwNS02MC42NzlxLS40MDgtLjUxNC0uNzY1LTEuMDY2YTEzLjEwMiAxMy4xMDIgMCAwIDEtMS4zNDMtMi43MjYgMTMuNTA2IDEzLjUwNiAwIDAgMS0uNDkxLTEuNzE5IDEzLjMxNSAxMy4zMTUgMCAwIDEgLjAwNC01LjgwOWwxNy4zOTQtNzUuNjc1YTEzLjU5OCAxMy41OTggMCAwIDEgNy4yOTUtOS4wN2w3MC41MDgtMzMuNjg2YTEzLjU5IDEzLjU5IDAgMCAxIDExLjcwNSAwbDcwLjUxOSAzMy42N2ExMy42MDIgMTMuNjAyIDAgMCAxIDcuMjkzIDkuMDczbDE3LjQyMiA3NS42NzVhMTMuMjgyIDEzLjI4MiAwIDAgMSAuMDAyIDUuODA3eiIvPjxwYXRoIGNsYXNzPSJjbHMtMSIgZD0iTTI1Mi4xNDQgMTIwLjY4N2MtLjM2LS4wODMtLjg3NC0uMjI1LTEuMjI3LS4yOWEzNS42MzUgMzUuNjM1IDAgMCAwLTQuMDQ2LS4zMjYgMzkuNDY0IDM5LjQ2NCAwIDAgMS03LjU3LTEuMjQyIDQuNzQ1IDQuNzQ1IDAgMCAxLTEuODItMS44MzJsLTEuNzA0LS40OTZhNTQuODM3IDU0LjgzNyAwIDAgMC04Ljc5LTM3Ljk4M2MuNDM2LS4zOTYgMS4yNjItMS4xMjcgMS40OTUtMS4zNDJhMy4zMzggMy4zMzggMCAwIDEgLjc5Mi0yLjM5IDM5LjQ5NSAzOS40OTUgMCAwIDEgNi4yNzctNC40MSAzNS4wOTcgMzUuMDk3IDAgMCAwIDMuNTA3LTIuMDQ2Yy4yNzItLjIwMi42NDQtLjUyMi45MjktLjc1YTQuMjQyIDQuMjQyIDAgMSAwLTUuMjU2LTYuNmMtLjI4OC4yMjctLjY4LjUyNS0uOTM2Ljc0N2EzNS4wMDcgMzUuMDA3IDAgMCAwLTIuNzg5IDIuOTUgMzkuNTMyIDM5LjUzMiAwIDAgMS01LjY5IDUuMTQ4IDQuNjkgNC42OSAwIDAgMS0yLjU2LjI3OGwtMS42MDYgMS4xNDdhNTUuMzA5IDU1LjMwOSAwIDAgMC0zNS4wMzItMTYuOTI3Yy0uMDM5LS41NjEtLjA4Ny0xLjU3Ny0uMTAyLTEuODg0YTMuMzQ0IDMuMzQ0IDAgMCAxLTEuMzc3LTIuMTEgMzkuNTM0IDM5LjUzNCAwIDAgMSAuNDc4LTcuNjU2IDM1LjExMSAzNS4xMTEgMCAwIDAgLjU3NS00LjAxMmMuMDEzLS4zNC0uMDA3LS44MzQtLjAwNy0xLjIwMWE0LjI0MiA0LjI0MiAwIDEgMC04LjQ0MS4wMDRjMCAuMDQuMDA5LjA3OC4wMS4xMTgtLjAwNC4zNS0uMDIxLjc3NC0uMDEgMS4wOGEzNS40NzUgMzUuNDc1IDAgMCAwIC41NzYgNC4wMTUgMzkuNDc1IDM5LjQ3NSAwIDAgMSAuNDcgNy42NTQgNC42MDEgNC42MDEgMCAwIDEtMS4zNyAyLjE4MmwtLjEgMS43ODZhNTUuMDU1IDU1LjA1NSAwIDAgMC03LjYzIDEuMTczIDU0LjI4OSA1NC4yODkgMCAwIDAtMjcuNTc0IDE1Ljc1NHEtLjc3LS41MzEtMS41MjYtMS4wODJhMy4zMzMgMy4zMzMgMCAwIDEtMi41MDYtLjI0MyAzOS4zODMgMzkuMzgzIDAgMCAxLTUuNjktNS4xNDEgMzUuMjU1IDM1LjI1NSAwIDAgMC0yLjc3Ny0yLjk1Yy0uMjU3LS4yMi0uNjUtLjUyLS45MzgtLjc0OWE1LjAzIDUuMDMgMCAwIDAtMi45NDItMS4xMSA0LjA2NiA0LjA2NiAwIDAgMC0zLjM2MyAxLjQ4OSA0LjQ3MyA0LjQ3MyAwIDAgMCAxLjAzOCA2LjIyMmwuMDY1LjA0NmMuMjc2LjIyNi42MTYuNTE1Ljg3Mi43MDJhMzUuMjU3IDM1LjI1NyAwIDAgMCAzLjQ5OSAyLjA0OCAzOS4zNjcgMzkuMzY3IDAgMCAxIDYuMjc2IDQuNDEyIDQuNjkgNC42OSAwIDAgMSAuODQ5IDIuNDM0bDEuMzUxIDEuMjA4YTU0LjYxMyA1NC42MTMgMCAwIDAtOC42MTEgMzguMDczbC0xLjc2Ny41MTRhNS44MzUgNS44MzUgMCAwIDEtMS44MTQgMS44MjcgMzkuMzkgMzkuMzkgMCAwIDEtNy41NjUgMS4yNDcgMzUuMjY0IDM1LjI2NCAwIDAgMC00LjA0OS4zMjZjLS4zMjQuMDYtLjc3NC4xNzQtMS4xMjcuMjYybC0uMDM3LjAwOC0uMDYuMDE4YTQuMjM2IDQuMjM2IDAgMSAwIDEuODc1IDguMjI0bC4wNjMtLjAxYy4wMjgtLjAwNi4wNTItLjAyLjA4LS4wMjUuMzQ4LS4wNzkuNzg2LS4xNjMgMS4wOTItLjI0NmEzNS41ODUgMzUuNTg1IDAgMCAwIDMuNzg2LTEuNDUxIDM5LjUyNyAzOS41MjcgMCAwIDEgNy4zNTgtMi4xNjUgNC42OCA0LjY4IDAgMCAxIDIuNDI2Ljg1N2wxLjg0LS4zMTVhNTQuOTIyIDU0LjkyMiAwIDAgMCAyNC4zNCAzMC4zODdsLS43NjkgMS44NGE0LjE4OCA0LjE4OCAwIDAgMSAuMzc3IDIuMzg3IDQxLjIyNyA0MS4yMjcgMCAwIDEtMy44MiA2Ljg2NCAzNS4xODMgMzUuMTgzIDAgMCAwLTIuMjYzIDMuMzcyYy0uMTY4LjMxOC0uMzgxLjgwNS0uNTQyIDEuMTM4YTQuMjM4IDQuMjM4IDAgMSAwIDcuNjIxIDMuNjE2bC4wMDctLjAwOHYtLjAxYy4xNi0uMzMuMzg3LS43NjMuNTIyLTEuMDcyYTM0LjkgMzQuOSAwIDAgMCAxLjIxOC0zLjg2OCAyOS41MTcgMjkuNTE3IDAgMCAxIDMuMjY4LTcuNTgyIDMuNDMgMy40MyAwIDAgMSAxLjgxOS0uODg4bC45NTctMS43M2E1NC42MTcgNTQuNjE3IDAgMCAwIDM4Ljk0Ni4wOTljLjI2OC40NzguNzY4IDEuMzkyLjkgMS42MjNhMy4zMzUgMy4zMzUgMCAwIDEgMi4xNTUgMS4zMSAzOS4zMDYgMzkuMzA2IDAgMCAxIDIuODk4IDcuMDk2IDM1LjI3NCAzNS4yNzQgMCAwIDAgMS4yMjUgMy44NjhjLjEzNy4zMTIuMzYuNzUxLjUyMiAxLjA4MmE0LjI0IDQuMjQgMCAxIDAgNy42My0zLjYwN2MtLjE2MS0uMzMzLS4zODMtLjgyLS41NS0xLjEzNmEzNS4wNjIgMzUuMDYyIDAgMCAwLTIuMjYzLTMuMzY0IDM5LjM3MyAzOS4zNzMgMCAwIDEtMy43NDItNi43IDMuMzE0IDMuMzE0IDAgMCAxIC4zMjQtMi40OSAxNC41MTUgMTQuNTE1IDAgMCAxLS43MDMtMS43MDMgNTQuOTIgNTQuOTIgMCAwIDAgMjQuMzI4LTMwLjYwNWMuNTQ2LjA4NyAxLjQ5Ny4yNTMgMS44MDYuMzE2YTMuMzM3IDMuMzM3IDAgMCAxIDIuMzYtLjg3NyAzOS40NzcgMzkuNDc3IDAgMCAxIDcuMzYgMi4xNjUgMzUuMTM1IDM1LjEzNSAwIDAgMCAzLjc4OCAxLjQ2MmMuMzA1LjA4Ljc0LjE1NiAxLjA5LjIzMy4wMjkuMDA4LjA1NS4wMjEuMDgzLjAyOGwuMDYuMDA5YTQuMjM2IDQuMjM2IDAgMSAwIDEuODc4LTguMjI0em0tNDAuMS00Mi45ODdsLTE4LjAzNyAxMi43ODctLjA2My0uMDI5YTMuNzIzIDMuNzIzIDAgMCAxLTUuOTEzLTIuODM5bC0uMDItLjAwOS0xLjI1My0yMi4xMDRBNDMuODUgNDMuODUgMCAwIDEgMjEyLjA0MyA3Ny43em0tMzMuOTc4IDI0LjIyOGg2Ljc4OGw0LjIyIDUuMjc2LTEuNTEzIDYuNTgxLTYuMDk2IDIuOTMzLTYuMTE0LTIuOTQtMS41MTYtNi41ODN6TTE3MS42OCA2Ni4yOGE0NC42NzYgNDQuNjc2IDAgMCAxIDQuNTAzLS43NzRsLTEuMjU1IDIyLjEzNy0uMDkyLjA0NGEzLjcyIDMuNzIgMCAwIDEtNS45MDQgMi44NTJsLS4wMzUuMDItMTguMTU0LTEyLjg3MkE0My40NjcgNDMuNDY3IDAgMCAxIDE3MS42OCA2Ni4yOHptLTI3LjUyIDE5LjY4MWwxNi41NzQgMTQuODIzLS4wMTguMDkxYTMuNzIgMy43MiAwIDAgMS0xLjQ2MiA2LjM5NGwtLjAxNy4wNzItMjEuMjQ1IDYuMTMxYTQzLjQ1NCA0My40NTQgMCAwIDEgNi4xNjgtMjcuNTF6bTIyLjE5MSAzOS4zOGwtOC40NDEgMjAuMzk2YTQzLjY5NiA0My42OTYgMCAwIDEtMTcuNTM2LTIxLjk0OGwyMS43ODMtMy42OTkuMDM3LjA0OGEzLjY1NSAzLjY1NSAwIDAgMSAuNzMtLjA2NSAzLjcyIDMuNzIgMCAwIDEgMy4zNjQgNS4xODV6bTI0LjkxNiAyNi4yM2E0My42MzcgNDMuNjM3IDAgMCAxLTIzLjgxNS0xLjIyNGwxMC43MTMtMTkuMzcyaC4wMThhMy43MjUgMy43MjUgMCAwIDEgNi41NTctLjAwNmguMDhsMTAuNzQgMTkuNDA0cS0yLjA5MS42OTgtNC4yOTMgMS4xOTl6bTEzLjg0MS01Ljc1MmwtOC41MjgtMjAuNjA1LjAyNi0uMDM3YTMuNzI1IDMuNzI1IDAgMCAxIDEuODAzLTQuODIzIDMuNjg1IDMuNjg1IDAgMCAxIDEuNDI1LS4zNyAzLjU5IDMuNTkgMCAwIDEgLjg1NS4wNjNsLjAzNy0uMDQ2IDIxLjk3NyAzLjcxNGE0My41MyA0My41MyAwIDAgMS0xNy41OTUgMjIuMTA1em0xOS45MDMtMzIuNDE5bC0yMS4zNTItNi4xNS0uMDItLjA5YTMuNzI1IDMuNzI1IDAgMCAxLTEuNDYtNi4zOTZsLS4wMDgtLjA0MyAxNi40ODItMTQuNzUxYTQ0LjI3OSA0NC4yNzkgMCAwIDEgNi4zNTcgMjcuNDN6Ii8+PC9zdmc+;" parent="Npk0ftExUG0agtpWYvep-59" vertex="1">
          <mxGeometry x="9.387755102040815" y="30" width="96.13061224489796" height="75.10204081632652" as="geometry" />
        </mxCell>
        <mxCell id="Npk0ftExUG0agtpWYvep-63" value="" style="shape=image;imageAspect=0;aspect=fixed;verticalLabelPosition=bottom;verticalAlign=top;image=data:image/svg+xml,PHN2ZyB4bWxuczp4bGluaz0iaHR0cDovL3d3dy53My5vcmcvMTk5OS94bGluayIgeG1sbnM9Imh0dHA6Ly93d3cudzMub3JnLzIwMDAvc3ZnIiB2aWV3Qm94PSIwIDAgMzAwLjMzMzM0IDIwNC42NjY2NyI+PGxpbmVhckdyYWRpZW50IHkyPSIuMTE0NjUiIHkxPSIxNDYuODg1MjciIHgyPSIxNTAiIHgxPSIxNTAiIGdyYWRpZW50VW5pdHM9InVzZXJTcGFjZU9uVXNlIiBpZD0iYSI+PHN0b3Agc3RvcC1jb2xvcj0iI2ViNTUyMCIgb2Zmc2V0PSIwIi8+PHN0b3Agc3RvcC1jb2xvcj0iI2ViNTExZiIgb2Zmc2V0PSIuMjQ3MjciLz48c3RvcCBzdG9wLWNvbG9yPSIjZWI0NDFkIiBvZmZzZXQ9Ii41MDM0NCIvPjxzdG9wIHN0b3AtY29sb3I9IiNlYjMwMWEiIG9mZnNldD0iLjc2MjcyIi8+PHN0b3Agc3RvcC1jb2xvcj0iI2ViMTYxNiIgb2Zmc2V0PSIxIi8+PC9saW5lYXJHcmFkaWVudD48cGF0aCBmaWxsPSJ1cmwoI2EpIiBkPSJtMTI1Ljc1NjI4IDQwLjQzMTcxLTE5LjMwMjE3LTE5LjMwMjE3YTEuMDAyNTYgMS4wMDI1NiAwIDAgMSAwLTEuNDE3ODFsMTkuMzA0LTE5LjMwNGEuOTk5ODguOTk5ODggMCAwIDEgMS40MTQ1IDBsMTkuMzA0IDE5LjMwNGExLjAwMjQ3IDEuMDAyNDcgMCAwIDEgMCAxLjQxNzgxbC0xOS4zMDIxNiAxOS4zMDIxN2ExLjAwMjMyIDEuMDAyMzIgMCAwIDEgLTEuNDE4MTcgMHptLTUuMTE3NTIgMi44MTI0OS0xNi45OTcxNC0xNi45OTcxNGExLjAwNDc3IDEuMDA0NzcgMCAwIDAgLTEuNDIwNzQgMGwtMTYuOTk3MTQgMTYuOTk3MTRhMS4wMDQ1NSAxLjAwNDU1IDAgMCAwIDAgMS40MjExMWwxNy4wMDAwNyAxNy4wMDAwOGExLjAwMDM1IDEuMDAwMzUgMCAwIDAgMS40MTQ4NyAwbDE3LjAwMDA4LTE3LjAwMDA4YTEuMDA1MjIgMS4wMDUyMiAwIDAgMCAwLTEuNDIxMTF6bTQ3LjA2ODI0IDAtMTYuOTk3MDktMTYuOTk3MTRhMS4wMDQ4MyAxLjAwNDgzIDAgMCAwIC0xLjQyMDc5IDBsLTE2Ljk5NzEyIDE2Ljk5NzE0YTEuMDA1MiAxLjAwNTIgMCAwIDAgMCAxLjQyMTExbDE2Ljk5NzE0IDE2Ljk5NzE0YTEuMDA0ODMgMS4wMDQ4MyAwIDAgMCAxLjQyMDc5IDBsMTYuOTk3MDctMTYuOTk3MTRhMS4wMDUyMiAxLjAwNTIyIDAgMCAwIDAtMS40MjExMXptLTcyLjkwMTM0IDIzLjUzNzI0LTE0LjcwMDkxLTE0LjcwMDkxYTEuMDAwNzIgMS4wMDA3MiAwIDAgMCAtMS40MTUxOSAwbC0xNC43MDA1NiAxNC43MDA5MWExLjAwMDMzIDEuMDAwMzMgMCAwIDAgMCAxLjQxNDg3bDE0LjcwMDU2IDE0LjcwMDkxYTEuMDAwNzIgMS4wMDA3MiAwIDAgMCAxLjQxNTE5IDBsMTQuNzAwOTEtMTQuNzAwOTFhMS4wMDEgMS4wMDEgMCAwIDAgMC0xLjQxNDg3em00Ny4wNjc4NyAwLTE0LjcwMDUzLTE0LjcwMDkxYTEuMDAwNzggMS4wMDA3OCAwIDAgMCAtMS40MTUyNCAwbC0xNC43MDA1NiAxNC43MDA5MWExLjAwMDM1IDEuMDAwMzUgMCAwIDAgMCAxLjQxNDg3bDE0LjcwMDU1IDE0LjcwMDkxYTEuMDAwNzggMS4wMDA3OCAwIDAgMCAxLjQxNTI0IDBsMTQuNzAwNTQtMTQuNzAwOTFhMS4wMDAzMyAxLjAwMDMzIDAgMCAwIDAtMS40MTQ4N3ptNDcuMDY4MjQgMC0xNC43MDA1NC0xNC43MDA5MWExLjAwMDc4IDEuMDAwNzggMCAwIDAgLTEuNDE1MjQgMGwtMTQuNzAwNDkgMTQuNzAwOTFhMS4wMDAyNCAxLjAwMDI0IDAgMCAwIDAgMS40MTQ4N2wxNC43MDA1IDE0LjcwMDkxYTEuMDAwNzggMS4wMDA3OCAwIDAgMCAxLjQxNTI0IDBsMTQuNzAwNTQtMTQuNzAwOTFhMS4wMDAyNCAxLjAwMDI0IDAgMCAwIC0uMDAwMDEtMS40MTQ4N3ptLTExOS45NzI1MSAyMy41MzQ2Ny0xMi4zOTkxOC0xMi4zOTkxOGEuOTk5ODguOTk5ODggMCAwIDAgLTEuNDE0NSAwbC0xMi4zOTkxNCAxMi4zOTkxOGEuOTk5NTguOTk5NTggMCAwIDAgMCAxLjQxMzc3bDEyLjM5OTUgMTIuMzk5NTVhMS4wMDAxMiAxLjAwMDEyIDAgMCAwIDEuNDE0MTQgMGwxMi4zOTkxOC0xMi4zOTk1NWEuOTk5Ljk5OSAwIDAgMCAwLTEuNDEzNzd6bTQ3LjA2ODYxIDAtMTIuMzk5MTktMTIuMzk5MThhMS4wMDAzMyAxLjAwMDMzIDAgMCAwIC0xLjQxNDg3IDBsLTEyLjM5OTE4IDEyLjM5OTE4YS45OTk2Ny45OTk2NyAwIDAgMCAwIDEuNDEzNzdsMTIuMzk5NiAxMi4zOTk1NWExLjAwMDA2IDEuMDAwMDYgMCAwIDAgMS40MTQwOSAwbDEyLjM5OTU1LTEyLjM5OTU1YS45OTk2Ny45OTk2NyAwIDAgMCAtMC0xLjQxMzc3em00Ny4wNjgyNCAwLTEyLjM5OTU1LTEyLjM5OTU1YTEuMDAwMTIgMS4wMDAxMiAwIDAgMCAtMS40MTQxNCAwbC0xMi4zOTk1NSAxMi4zOTk1NWEuOTk5NzYuOTk5NzYgMCAwIDAgMCAxLjQxMzc3bDEyLjM5OTU1IDEyLjM5OTU1YTEuMDAwMTIgMS4wMDAxMiAwIDAgMCAxLjQxNDE0IDBsMTIuMzk5NTUtMTIuMzk5NTVhLjk5OTY3Ljk5OTY3IDAgMCAwIDAtMS40MTM3N3ptNDcuMDY4MjMgMC0xMi4zOTk1NS0xMi4zOTk1NWExLjAwMDExIDEuMDAwMTEgMCAwIDAgLTEuNDE0MTMgMGwtMTIuMzk5NTUgMTIuMzk5NTVhLjk5OTY3Ljk5OTY3IDAgMCAwIDAgMS40MTM3N2wxMi4zOTk1NSAxMi4zOTk1NWExLjAwMDExIDEuMDAwMTEgMCAwIDAgMS40MTQxMyAwbDEyLjM5OTU1LTEyLjM5OTU1YS45OTk2Ny45OTk2NyAwIDAgMCAwLTEuNDEzNzd6bS0xNjcuMDQzMzQgMjMuNTMyMTEtMTAuMDkzMzktMTAuMDkzNDJhMS4wMDI1NCAxLjAwMjU0IDAgMCAwIC0xLjQxNzggMGwtMTAuMDkzNDIgMTAuMDkzNDJhMS4wMDI1NCAxLjAwMjU0IDAgMCAwIDAgMS40MTc4bDEwLjA5MzQyIDEwLjA5MzQyYTEuMDAyNTQgMS4wMDI1NCAwIDAgMCAxLjQxNzggMGwxMC4wOTMzOS0xMC4wOTM0NGExLjAwMjU0IDEuMDAyNTQgMCAwIDAgMC0xLjQxNzc4em00Ny4wNjgyMyAwLTEwLjA5My0xMC4wOTM0MmExLjAwMyAxLjAwMyAwIDAgMCAtMS40MTgxOCAwbC0xMC4wOTM0MiAxMC4wOTM0MmExLjAwMjU0IDEuMDAyNTQgMCAwIDAgMCAxLjQxNzhsMTAuMDkzMzcgMTAuMDkzNDJhMS4wMDMgMS4wMDMgMCAwIDAgMS40MTgxOCAwbDEwLjA5My0xMC4wOTM0MmExLjAwMjUzIDEuMDAyNTMgMCAwIDAgLjAwMDA4LTEuNDE3OHptNDcuMDY4MjQgMC0xMC4wOTMwMi0xMC4wOTM0MmExLjAwMyAxLjAwMyAwIDAgMCAtMS40MTgxNyAwbC0xMC4wOTMwNSAxMC4wOTM0MmExLjAwMTg5IDEuMDAxODkgMCAwIDAgMCAxLjQxNzhsMTAuMDkzMDUgMTAuMDkzNDJhMS4wMDMgMS4wMDMgMCAwIDAgMS40MTgxNyAwbDEwLjA5MzA1LTEwLjA5MzQ0YTEuMDAyNTQgMS4wMDI1NCAwIDAgMCAwLTEuNDE3Nzh6bTQ3LjA2ODI0IDAtMTAuMDkzLTEwLjA5MzQyYTEuMDAyOTIgMS4wMDI5MiAwIDAgMCAtMS40MTgxMSAwbC0xMC4wOTMxMSAxMC4wOTM0MmExLjAwMjU0IDEuMDAyNTQgMCAwIDAgMCAxLjQxNzhsMTAuMDkzMTEgMTAuMDkzNDJhMS4wMDI5MiAxLjAwMjkyIDAgMCAwIDEuNDE4MTEgMGwxMC4wOTMtMTAuMDkzNDJhMS4wMDE3OCAxLjAwMTc4IDAgMCAwIC4wMDAwMy0xLjQxNzh6bTQ3LjA2ODY2IDAtMTAuMDkzNDQtMTAuMDkzNDJhMS4wMDMgMS4wMDMgMCAwIDAgLTEuNDE4MTcgMGwtMTAuMDkzIDEwLjA5MzQyYTEuMDAyNDQgMS4wMDI0NCAwIDAgMCAwIDEuNDE3OGwxMC4wOTMgMTAuMDkzNDJhMS4wMDMgMS4wMDMgMCAwIDAgMS40MTgxNyAwbDEwLjA5MzQ3LTEwLjA5MzQ0YTEuMDAyNjMgMS4wMDI2MyAwIDAgMCAwLTEuNDE3Nzh6bS0yMTQuMTA3OTEgMjMuNTM1NzgtNy43OTQ1Ny03Ljc5NDI2YTEgMSAwIDAgMCAtMS40MTQ1NSAwbC03Ljc5NDI2IDcuNzk0MjZhLjk5OTkuOTk5OSAwIDAgMCAwIDEuNDE0NWw3Ljc5MzE2IDcuNzkzMTVhMS4wMDE2NiAxLjAwMTY2IDAgMCAwIDEuNDE3MDcgMGw3Ljc5MzE1LTcuNzkzMTVhMS4wMDA1NSAxLjAwMDU1IDAgMCAwIDAtMS40MTQ1em00Ny4wNjgyOSAwLTcuNzk0NjctNy43OTQyNmEuOTk5OS45OTk5IDAgMCAwIC0xLjQxNDUgMGwtNy43OTQyMSA3Ljc5NDI2YS45OTk3OS45OTk3OSAwIDAgMCAwIDEuNDE0NWw3Ljc5MjM3IDcuNzkyNDJhMS4wMDI3NyAxLjAwMjc3IDAgMCAwIDEuNDE4NTQgMGw3Ljc5MjQ3LTcuNzkyNDJhMS4wMDA2NCAxLjAwMDY0IDAgMCAwIDAtMS40MTQ1em00Ny4wNjgxOSAwLTcuNzkyMzctNy43OTI0MmExLjAwMjgzIDEuMDAyODMgMCAwIDAgLTEuNDE4NTkgMGwtNy43OTA1OCA3Ljc5MDIxYTEuMDAzODcgMS4wMDM4NyAwIDAgMCAwIDEuNDE4OTFsNy43OTA1OCA3Ljc5MDIyYTEuMDAyODMgMS4wMDI4MyAwIDAgMCAxLjQxODU5IDBsNy43OTIzNy03Ljc5MjQyYS45OTk5Ljk5OTkgMCAwIDAgMC0xLjQxNDV6bTQ3LjA2Ni0uMjAyNTUtNy43OTAyMi03Ljc5MDIyYTEuMDAyNzkgMS4wMDI3OSAwIDAgMCAtMS40MTg1NCAwbC03Ljc5MjQyIDcuNzkyMDZhMS4wMDAzMyAxLjAwMDMzIDAgMCAwIDAgMS40MTQ4N2w3Ljc5MjQyIDcuNzkyNDJhMS4wMDM0NCAxLjAwMzQ0IDAgMCAwIDEuNDE4NTQgMGw3Ljc5MDI4LTcuNzkwNThhMS4wMDI3OSAxLjAwMjc5IDAgMCAwIDAtMS40MTg1NnptNDcuMDY4NiAwLTcuNzkwNTgtNy43OTAyMmExLjAwMjc5IDEuMDAyNzkgMCAwIDAgLTEuNDE4NTQgMGwtNy43OTI0MiA3Ljc5MjA2YTEuMDAwMzMgMS4wMDAzMyAwIDAgMCAwIDEuNDE0ODdsNy43OTI0MiA3Ljc5MjQyYTEuMDAzNDQgMS4wMDM0NCAwIDAgMCAxLjQxODU0IDBsNy43OTA2Mi03Ljc5MDU4YTEuMDAzNDQgMS4wMDM0NCAwIDAgMCAwLTEuNDE4NTZ6bTQ3LjA2ODI0IDAtNy43OTA1OC03Ljc5MDIyYTEuMDAyNzkgMS4wMDI3OSAwIDAgMCAtMS40MTg1NCAwbC03Ljc5MjQyIDcuNzkyMDZhMS4wMDEgMS4wMDEgMCAwIDAgMCAxLjQxNDg3bDcuNzkyNDIgNy43OTI0MmExLjAwMzQ0IDEuMDAzNDQgMCAwIDAgMS40MTg1NCAwbDcuNzkwNjItNy43OTA1OGExLjAwMzMzIDEuMDAzMzMgMCAwIDAgMC0xLjQxODU2em0tNzguMzk0NTUtOTYuNzQ4MjcgMTkuMzA1MS0xOS4zMDUxMWExLjAwMDMzIDEuMDAwMzMgMCAwIDAgMC0xLjQxNDg3bC0xOS4zMDUxLTE5LjMwNTQ3YTEuMDAwNzggMS4wMDA3OCAwIDAgMCAtMS40MTUyNCAwbC0xOS4zMDUxMSAxOS4zMDU0N2ExLjAwMDM1IDEuMDAwMzUgMCAwIDAgMCAxLjQxNDg3bDE5LjMwNTEyIDE5LjMwNTExYTEuMDAwNzggMS4wMDA3OCAwIDAgMCAxLjQxNTIzIDB6bTIzLjUzNjg3IDIxLjIyOTI3IDE2Ljk5NzE5LTE2Ljk5NzE0YTEuMDA0NTUgMS4wMDQ1NSAwIDAgMCAwLTEuNDIxMTFsLTE2Ljk5NzE5LTE2Ljk5NzE0YTEuMDA0NzcgMS4wMDQ3NyAwIDAgMCAtMS40MjA3NCAwbC0xNi45OTcxNCAxNi45OTcxNGExLjAwNTIgMS4wMDUyIDAgMCAwIDAgMS40MjExMWwxNi45OTcxNCAxNi45OTcxNGExLjAwNDc3IDEuMDA0NzcgMCAwIDAgMS40MjA3NCAwem0yMy41MzEzNiAyMS4yMzQ3NyAxNC43MDA1NC0xNC43MDA5MWExLjAwMDMzIDEuMDAwMzMgMCAwIDAgMC0xLjQxNDg3bC0xNC43MDA1NC0xNC43MDA5MWExLjAwMDc2IDEuMDAwNzYgMCAwIDAgLTEuNDE1MjMgMGwtMTQuNzAwNTUgMTQuNzAwOTFhMS4wMDAzNSAxLjAwMDM1IDAgMCAwIDAgMS40MTQ4N2wxNC43MDA1NSAxNC43MDA5MWExLjAwMDc2IDEuMDAwNzYgMCAwIDAgMS40MTUyMyAwem0yMy41MzM1NCAyMS4yMzIyMSAxMi4zOTgwOS0xMi4zOTgwOGExLjAwMTc4IDEuMDAxNzggMCAwIDAgMC0xLjQxNjdsLTEyLjM5ODA5LTEyLjM5ODA5YTEuMDAwMTEgMS4wMDAxMSAwIDAgMCAtMS40MTQxMyAwbC0xMi4zOTkxNSAxMi4zOTk1NWEuOTk5Ljk5OSAwIDAgMCAwIDEuNDEzNzdsMTIuMzk5MTggMTIuMzk5NTVhMS4wMDAxMSAxLjAwMDExIDAgMCAwIDEuNDE0MSAwem0yMy41MzYxNCAyMS4yMyAxMC4wOTM0NS0xMC4wOTM0M2ExLjAwMjU0IDEuMDAyNTQgMCAwIDAgMC0xLjQxNzhsLTEwLjA5MzQyLTEwLjA5MzRhMS4wMDI1NCAxLjAwMjU0IDAgMCAwIC0xLjQxNzggMGwtMTAuMDkzMzcgMTAuMDkzNDJhMS4wMDI2NSAxLjAwMjY1IDAgMCAwIDAgMS40MTc4bDEwLjA5MzQyIDEwLjA5MzQyYTEuMDAyNTQgMS4wMDI1NCAwIDAgMCAxLjQxNzc1IDB6bTIzLjUzNDY3IDIxLjAzMTEzIDcuNzkzOTUtNy43OTQyNmEuOTk4Ljk5OCAwIDAgMCAwLTEuNDExMmwtNy43OTM5NS03Ljc5Mzg5YTEuMDAzMjIgMS4wMDMyMiAwIDAgMCAtMS40MTg5IDBsLTcuNzkyNDIgNy43OTIwNmExLjAwMSAxLjAwMSAwIDAgMCAwIDEuNDE0ODdsNy43OTI0MiA3Ljc5MjQyYTEuMDAzODcgMS4wMDM4NyAwIDAgMCAxLjQxODkzLjAwMDAxeiIvPjxnIGZpbGw9IiMwZjBmMGYiPjxwYXRoIGQ9Im04NS4yMzg2NSAyMDQuMjgzNmgtMTkuMzEwMTRhMTEuMDQ2ODYgMTEuMDQ2ODYgMCAwIDEgLTExLjAzNDQ2LTExLjAzNDI5di01LjUxNzIzYTExLjA0NjkgMTEuMDQ2OSAwIDAgMSAxMS4wMzQ0Ni0xMS4wMzQ0NmgxOS4zMTAxNGExMS4wNDY4OCAxMS4wNDY4OCAwIDAgMSAxMS4wMzQ0NiAxMS4wMzQ0NnY1LjUxNzIzYTExLjA0Njg1IDExLjA0Njg1IDAgMCAxIC0xMS4wMzQ0NiAxMS4wMzQyOXptLTE5LjMxMDE0LTIyLjA2ODc1YTUuNTIzNTYgNS41MjM1NiAwIDAgMCAtNS41MTcyMyA1LjUxNzIzdjUuNTE3MjNhNS41MjM2NyA1LjUyMzY3IDAgMCAwIDUuNTE3MjMgNS41MTcyM2gxOS4zMTAxNGE1LjUyMzU2IDUuNTIzNTYgMCAwIDAgNS41MTcyMy01LjUxNzIzdi01LjUxNzIzYTUuNTIzNDUgNS41MjM0NSAwIDAgMCAtNS41MTcyMy01LjUxNzIzeiIvPjxwYXRoIGQ9Im0xMjkuNDI2MzUgMjA0LjI4MzZoLTE4LjgwODQ0YTExLjAzNDM3IDExLjAzNDM3IDAgMCAxIC0xMS4wMzQ0Ny0xMS4wMzQyOXYtMTYuMDVhLjUwMTc2LjUwMTc2IDAgMCAxIC41MDE3My0uNTAxNzJoNC41MTM4M2EuNTAxNzYuNTAxNzYgMCAwIDEgLjUwMTczLjUwMTcydjE2LjA1YTUuNTE3MjUgNS41MTcyNSAwIDAgMCA1LjUxNzIzIDUuNTE3MjNoMTguODA4NDRhLjUwMTYzLjUwMTYzIDAgMCAxIC41MDE3Mi41MDE1NXY0LjUxNGEuNTAxNjMuNTAxNjMgMCAwIDEgLS41MDE3Ny41MDE1MXoiLz48cGF0aCBkPSJtNDguMDA5OTMgMTc2LjkxMTQxLTE1LjM4MjM5IDIxLjk3NDc5YS41MDE1Ni41MDE1NiAwIDAgMSAtLjgyMTg5IDBsLTE1LjM4MjIxLTIxLjk3NDQ0YS41MDE5MS41MDE5MSAwIDAgMCAtLjQxMS0uMjE0aC01LjUwOTg1YS41MDE2Ny41MDE2NyAwIDAgMCAtLjQxMS43ODkzMWwxOC42MDgwNyAyNi41ODI3MWEuNTAxNDIuNTAxNDIgMCAwIDAgLjQxMS4yMTRoNi4yMTE4OWEuNTAxODguNTAxODggMCAwIDAgLjQxMS0uMjE0bDE4LjYwODk1LTI2LjU4NDA2YS41MDA3LjUwMDcgMCAwIDAgLS40MTAxNy0uNzg3OTNoLTUuNTEyMDZhLjUwMDc4LjUwMDc4IDAgMCAwIC0uNDEwMzQuMjEzNjJ6Ii8+PHBhdGggZD0ibTI3OS40NDQyOSAyMDQuMjgzNmgtMTkuMzEwMjlhMTEuMDQ2NzEgMTEuMDQ2NzEgMCAwIDEgLTExLjAzNDI5LTExLjAzNDI5di01LjUxNzIzYTExLjA0Njc1IDExLjA0Njc1IDAgMCAxIDExLjAzNDI5LTExLjAzNDQ2aDE5LjMxMDNhMTEuMDQ2OSAxMS4wNDY5IDAgMCAxIDExLjAzNDQ2IDExLjAzNDQ2djUuNTE3MjNhMTEuMDQ2ODYgMTEuMDQ2ODYgMCAwIDEgLTExLjAzNDQ3IDExLjAzNDI5em0tMTkuMzEwMjktMjIuMDY4NzVhNS41MjM0MSA1LjUyMzQxIDAgMCAwIC01LjUxNzA2IDUuNTE3MjN2NS41MTcyM2E1LjUyMzUyIDUuNTIzNTIgMCAwIDAgNS41MTcwNiA1LjUxNzIzaDE5LjMxMDNhNS41MjM2NyA1LjUyMzY3IDAgMCAwIDUuNTE3MjMtNS41MTcyM3YtNS41MTcyM2E1LjUyMzU2IDUuNTIzNTYgMCAwIDAgLTUuNTE3MjMtNS41MTcyM3oiLz48cGF0aCBkPSJtMTY1LjgzOTg2IDIwNC4yODM3N2gtMjEuNTY3YTExLjAzNDM0IDExLjAzNDM0IDAgMCAxIC0xMS4wMzQ0Ni0xMS4wMzQyOXYtNS41MTcyM2ExMS4wMzQ0OSAxMS4wMzQ0OSAwIDAgMSAxMS4wMzQ0Ni0xMS4wMzQ0NmgyMS41NjdhLjUwMTc3LjUwMTc3IDAgMCAxIC41MDE3My41MDE3M3Y0LjUxMzc4YS41MDE3Ni41MDE3NiAwIDAgMSAtLjUwMTczLjUwMTcyaC0yMS41NjdhNS41MTcyNCA1LjUxNzI0IDAgMCAwIC01LjUxNzIzIDUuNTE3MjN2NS41MTcyM2E1LjUxNzA5IDUuNTE3MDkgMCAwIDAgNS41MTcyMyA1LjUxNzA2aDIxLjU2N2EuNTAxNzcuNTAxNzcgMCAwIDEgLjUwMTczLjUwMTczdjQuNTEzOTVhLjUwMTYxLjUwMTYxIDAgMCAxIC0uNTAxNzMuNTAxNTV6Ii8+PHBhdGggZD0ibTE5NS4wMzEgMTc2LjY5Nzc5aC0xMy43OTI5YTExLjAzNDUxIDExLjAzNDUxIDAgMCAwIC0xMS4wMzQ0NiAxMS4wMzQ0NnYxNi4wNWEuNTAxNi41MDE2IDAgMCAwIC41MDE3Mi41MDE1NWg0LjUxMzc5YS41MDE2MS41MDE2MSAwIDAgMCAuNTAxNzItLjUwMTU1di0xMC4wMzEyNWEuNTAxNjEuNTAxNjEgMCAwIDEgLjUwMTcyLS41MDE1NmgyMy44MjM5MmEuNTAxNjEuNTAxNjEgMCAwIDEgLjUwMTcyLjUwMTU2djEwLjAzMTE4YS41MDE2MS41MDE2MSAwIDAgMCAuNTAxNzMuNTAxNTVoNC41MTM3OGEuNTAxNi41MDE2IDAgMCAwIC41MDE3Mi0uNTAxNTV2LTE2LjA1YTExLjAzNDUxIDExLjAzNDUxIDAgMCAwIC0xMS4wMzQ0Ni0xMS4wMzQzOXptLTE4Ljc4MjM0IDExLjAzNDQ2YS40OTY1MS40OTY1MSAwIDAgMSAtLjUwMjc5LS41Mjc1OCA1LjUyNDkzIDUuNTI0OTMgMCAwIDEgNS40OTIyMy00Ljk4OTY1aDEzLjc5MjlhNS41MjQ5MyA1LjUyNDkzIDAgMCAxIDUuNDkyMjMgNC45ODk2NS40OTY1MS40OTY1MSAwIDAgMSAtLjUwMjc1LjUyNzU4eiIvPjxwYXRoIGQ9Im0yNDAuMjcyMTMgMTc3LjE5ODQ4djE5LjcxN2EuNTAwODkuNTAwODkgMCAwIDEgLS44Mzc3Ni4zNzA2OWwtMjIuNTAzNzUtMjAuNDU3ODlhLjUwMTI0LjUwMTI0IDAgMCAwIC0uMzM3NDEtLjEzMDUyaC02LjE2Mzk1YS41MDE3Ny41MDE3NyAwIDAgMCAtLjUwMTczLjUwMTczdjI2LjU4MzIyYS41MDA3My41MDA3MyAwIDAgMCAuNTAwODcuNTAwODZoNC41MTU1YS41MDA4My41MDA4MyAwIDAgMCAuNTAwODYtLjUwMDg2di0xOS43MTUxYS41MDE2OS41MDE2OSAwIDAgMSAuODM5MTQtLjM3MTIxbDIyLjUwMjcxIDIwLjQ1NzJhLjUwMDg2LjUwMDg2IDAgMCAwIC4zMzY5LjEzMDE3aDYuMTY1YS41MDA4My41MDA4MyAwIDAgMCAuNTAwODYtLjUwMDg2di0yNi41ODQyNmEuNTAxLjUwMSAwIDAgMCAtLjUwMDg2LS41MDA4NmgtNC41MTU2OGEuNTAwNjYuNTAwNjYgMCAwIDAgLS41MDA3LjUwMDY5eiIvPjwvZz48L3N2Zz4=;" parent="Npk0ftExUG0agtpWYvep-59" vertex="1">
          <mxGeometry x="111.71428571428571" y="37" width="96.38408163265305" height="65.71428571428571" as="geometry" />
        </mxCell>
      </root>
    </mxGraphModel>
  </diagram>
  <diagram id="LQXIfwz0o8kIY4j7_Os7" name="第 2 页">
    <mxGraphModel dx="265" dy="676" grid="1" gridSize="10" guides="1" tooltips="1" connect="1" arrows="1" fold="1" page="1" pageScale="1" pageWidth="690" pageHeight="980" math="0" shadow="0">
      <root>
        <mxCell id="0" />
        <mxCell id="1" parent="0" />
        <mxCell id="cF3Z6rCIAbGeNynUnd23-1" value="volcano-global scheduler(Base on Karmada scheduler)" style="swimlane;labelBackgroundColor=none;fillColor=#994C00;fontColor=#FFFFFF;" vertex="1" parent="1">
          <mxGeometry x="1170" y="80" width="530" height="590" as="geometry" />
        </mxCell>
        <mxCell id="cF3Z6rCIAbGeNynUnd23-2" style="edgeStyle=orthogonalEdgeStyle;rounded=0;orthogonalLoop=1;jettySize=auto;html=1;fontColor=#FFFFFF;" edge="1" parent="cF3Z6rCIAbGeNynUnd23-1" source="cF3Z6rCIAbGeNynUnd23-3" target="cF3Z6rCIAbGeNynUnd23-6">
          <mxGeometry relative="1" as="geometry" />
        </mxCell>
        <mxCell id="cF3Z6rCIAbGeNynUnd23-3" value="ResourceBinding&lt;br&gt;Suspend=false" style="rounded=1;whiteSpace=wrap;html=1;fillColor=#0066CC;fontColor=#FFFFFF;" vertex="1" parent="cF3Z6rCIAbGeNynUnd23-1">
          <mxGeometry x="30" y="40" width="120" height="60" as="geometry" />
        </mxCell>
        <mxCell id="cF3Z6rCIAbGeNynUnd23-4" value="" style="endArrow=none;html=1;rounded=0;fontColor=#FFFFFF;" edge="1" parent="cF3Z6rCIAbGeNynUnd23-1">
          <mxGeometry width="50" height="50" relative="1" as="geometry">
            <mxPoint y="120" as="sourcePoint" />
            <mxPoint x="530" y="120" as="targetPoint" />
          </mxGeometry>
        </mxCell>
        <mxCell id="cF3Z6rCIAbGeNynUnd23-5" style="edgeStyle=orthogonalEdgeStyle;rounded=0;orthogonalLoop=1;jettySize=auto;html=1;entryX=0.5;entryY=0;entryDx=0;entryDy=0;fontColor=#FFFFFF;" edge="1" parent="cF3Z6rCIAbGeNynUnd23-1" source="cF3Z6rCIAbGeNynUnd23-6" target="cF3Z6rCIAbGeNynUnd23-8">
          <mxGeometry relative="1" as="geometry" />
        </mxCell>
        <mxCell id="cF3Z6rCIAbGeNynUnd23-6" value="FilterCluster" style="rounded=1;whiteSpace=wrap;html=1;fillColor=#FF3399;fontColor=#FFFFFF;" vertex="1" parent="cF3Z6rCIAbGeNynUnd23-1">
          <mxGeometry x="30" y="160" width="120" height="60" as="geometry" />
        </mxCell>
        <mxCell id="cF3Z6rCIAbGeNynUnd23-7" style="edgeStyle=orthogonalEdgeStyle;rounded=0;orthogonalLoop=1;jettySize=auto;html=1;entryX=0.5;entryY=0;entryDx=0;entryDy=0;fontColor=#FFFFFF;" edge="1" parent="cF3Z6rCIAbGeNynUnd23-1" source="cF3Z6rCIAbGeNynUnd23-8" target="cF3Z6rCIAbGeNynUnd23-10">
          <mxGeometry relative="1" as="geometry" />
        </mxCell>
        <mxCell id="cF3Z6rCIAbGeNynUnd23-8" value="ScoreCluster" style="rounded=1;whiteSpace=wrap;html=1;fillColor=#FF3399;fontColor=#FFFFFF;" vertex="1" parent="cF3Z6rCIAbGeNynUnd23-1">
          <mxGeometry x="30" y="270" width="120" height="60" as="geometry" />
        </mxCell>
        <mxCell id="cF3Z6rCIAbGeNynUnd23-9" style="edgeStyle=orthogonalEdgeStyle;rounded=0;orthogonalLoop=1;jettySize=auto;html=1;entryX=0.5;entryY=0;entryDx=0;entryDy=0;fontColor=#FFFFFF;" edge="1" parent="cF3Z6rCIAbGeNynUnd23-1" source="cF3Z6rCIAbGeNynUnd23-10" target="cF3Z6rCIAbGeNynUnd23-11">
          <mxGeometry relative="1" as="geometry" />
        </mxCell>
        <mxCell id="cF3Z6rCIAbGeNynUnd23-10" value="SelectCluster" style="rounded=1;whiteSpace=wrap;html=1;fillColor=#FF3399;fontColor=#FFFFFF;" vertex="1" parent="cF3Z6rCIAbGeNynUnd23-1">
          <mxGeometry x="30" y="390" width="120" height="60" as="geometry" />
        </mxCell>
        <mxCell id="cF3Z6rCIAbGeNynUnd23-11" value="ReplicaScheduling&lt;br&gt;(AssignReplica)" style="rounded=1;whiteSpace=wrap;html=1;fillColor=#FF3399;fontColor=#FFFFFF;" vertex="1" parent="cF3Z6rCIAbGeNynUnd23-1">
          <mxGeometry x="30" y="500" width="120" height="60" as="geometry" />
        </mxCell>
        <mxCell id="cF3Z6rCIAbGeNynUnd23-12" style="edgeStyle=orthogonalEdgeStyle;rounded=0;orthogonalLoop=1;jettySize=auto;html=1;entryX=1;entryY=0.5;entryDx=0;entryDy=0;fontColor=#FFFFFF;" edge="1" parent="cF3Z6rCIAbGeNynUnd23-1" source="cF3Z6rCIAbGeNynUnd23-13" target="cF3Z6rCIAbGeNynUnd23-11">
          <mxGeometry relative="1" as="geometry" />
        </mxCell>
        <mxCell id="cF3Z6rCIAbGeNynUnd23-13" value="Gang Scheduling Plugin" style="ellipse;whiteSpace=wrap;html=1;fillColor=#CC0066;fontColor=#FFFFFF;" vertex="1" parent="cF3Z6rCIAbGeNynUnd23-1">
          <mxGeometry x="300" y="490" width="120" height="80" as="geometry" />
        </mxCell>
      </root>
    </mxGraphModel>
  </diagram>
</mxfile>
